<svg fill="none" height="42" viewBox="0 0 172 42" width="172" xmlns="http://www.w3.org/2000/svg" xmlns:xlink="http://www.w3.org/1999/xlink"><linearGradient id="a"><stop offset="0" stop-color="#25136d"/><stop offset="1" stop-color="#3d9ba2"/></linearGradient><linearGradient id="b" gradientUnits="userSpaceOnUse" x1="35.2865" x2="35.2865" xlink:href="#a" y1="11.2428" y2="22.0636"/><linearGradient id="c" gradientUnits="userSpaceOnUse" x1="28.8019" x2="34.2123" xlink:href="#a" y1="8.69432" y2="18.0655"/><linearGradient id="d" gradientUnits="userSpaceOnUse" x1="21.9116" x2="31.2827" xlink:href="#a" y1="9.72959" y2="15.14"/><linearGradient id="e" gradientUnits="userSpaceOnUse" x1="16.4617" x2="27.2825" xlink:href="#a" y1="14.0714" y2="14.0714"/><linearGradient id="f" gradientUnits="userSpaceOnUse" x1="13.9125" x2="23.2836" xlink:href="#a" y1="20.5561" y2="15.1457"/><linearGradient id="g" gradientUnits="userSpaceOnUse" x1="14.9468" x2="20.3572" xlink:href="#a" y1="27.4468" y2="18.0757"/><linearGradient id="h" gradientUnits="userSpaceOnUse" x1="19.2877" x2="19.2877" xlink:href="#a" y1="32.8968" y2="22.076"/><linearGradient id="i" gradientUnits="userSpaceOnUse" x1="25.7719" x2="20.3615" xlink:href="#a" y1="35.4462" y2="26.0751"/><linearGradient id="j" gradientUnits="userSpaceOnUse" x1="32.6625" x2="23.2914" xlink:href="#a" y1="34.4119" y2="29.0014"/><linearGradient id="k" gradientUnits="userSpaceOnUse" x1="38.1126" x2="27.2918" xlink:href="#a" y1="30.071" y2="30.071"/><linearGradient id="l" gradientUnits="userSpaceOnUse" x1="40.662" x2="31.2909" xlink:href="#a" y1="23.5868" y2="28.9972"/><linearGradient id="m" gradientUnits="userSpaceOnUse" x1="39.6277" x2="34.2173" xlink:href="#a" y1="16.6962" y2="26.0673"/><clipPath id="n"><path d="m10 2h153v38h-153z"/></clipPath><g clip-path="url(#n)"><path d="m34.6091 21.0253c1.2486-1.0456 2.0426-2.6161 2.0426-4.3721 0-1.7559-.794-3.3264-2.0426-4.372.1431-.0693.2808-.1445.412-.226.8282-.515 1.8057-.8124 2.8527-.8124 2.9881 0 5.4104 2.4224 5.4104 5.4104 0 2.9881-2.4223 5.4104-5.4104 5.4104-1.047 0-2.0245-.2974-2.8527-.8123-.1312-.0815-.2689-.1567-.412-.226z" fill="url(#b)"/><path d="m33.1065 17.5049c.5585-1.5298.4609-3.2869-.4171-4.8076s-2.3509-2.4838-3.955-2.76503c.0893-.13153.1709-.26552.2437-.4017.4598-.86005 1.1577-1.60638 2.0644-2.12988 2.5878-1.49404 5.8968-.60741 7.3908 1.98034 1.494 2.58777.6074 5.89677-1.9804 7.39077-.9067.5235-1.902.7547-2.8767.7229-.1543-.0051-.3112-.0013-.4697.0102z" fill="url(#c)"/><path d="m30.0447 15.2075c-.2812-1.6041-1.2443-3.077-2.765-3.955s-3.2778-.9756-4.8076-.4171c.0116-.1585.0153-.3154.0102-.4697-.0318-.97474.1994-1.97002.7229-2.87676 1.4941-2.58775 4.803-3.47438 7.3908-1.98034 2.5877 1.49404 3.4744 4.803 1.9803 7.3908-.5235.9067-1.2698 1.6046-2.1299 2.0644-.1361.0728-.2701.1544-.4017.2437z" fill="url(#d)"/><path d="m26.2442 14.7489c-1.0456-1.2486-2.6161-2.0426-4.3721-2.0426s-3.3265.794-4.3721 2.0426c-.0692-.1431-.1445-.2808-.226-.412-.5149-.8282-.8123-1.8057-.8123-2.8528 0-2.98805 2.4223-5.41037 5.4104-5.41037s5.4104 2.42232 5.4104 5.41037c0 1.0471-.2974 2.0246-.8123 2.8528-.0816.1312-.1568.2689-.226.412z" fill="url(#e)"/><path d="m22.7231 16.2516c-1.5298-.5585-3.2869-.4609-4.8076.417-1.5207.878-2.4838 2.3509-2.765 3.955-.1315-.0893-.2655-.1709-.4017-.2437-.8601-.4598-1.6064-1.1577-2.1299-2.0644-1.4941-2.5878-.6074-5.8967 1.9803-7.3908 2.5878-1.49401 5.8967-.6074 7.3908 1.9804.5235.9067.7547 1.902.7228 2.8767-.005.1543-.0013.3112.0103.4698z" fill="url(#f)"/><path d="m20.4247 19.3137c-1.6041.2812-3.077 1.2443-3.955 2.765s-.9756 3.2778-.4171 4.8076c-.1585-.0116-.3154-.0153-.4698-.0103-.9747.0319-1.97-.1993-2.8767-.7228-2.5878-1.4941-3.47438-4.803-1.9803-7.3908 1.494-2.5877 4.803-3.4744 7.3907-1.9803.9067.5235 1.6046 1.2698 2.0644 2.1298.0728.1362.1545.2702.2438.4018z" fill="url(#g)"/><path d="m19.9651 23.1145c-1.2486 1.0456-2.0426 2.6161-2.0426 4.372 0 1.756.794 3.3264 2.0426 4.372-.1431.0692-.2808.1445-.412.226-.8282.5149-1.8057.8123-2.8527.8123-2.9881 0-5.4104-2.4222-5.4104-5.4103s2.4223-5.4105 5.4104-5.4105c1.047 0 2.0245.2974 2.8527.8124.1312.0815.2689.1568.412.2261z" fill="url(#h)"/><path d="m21.4674 26.6356c-.5586 1.5298-.461 3.2869.417 4.8076.878 1.5208 2.3509 2.4838 3.955 2.765-.0893.1316-.1709.2656-.2437.4018-.4598.86-1.1577 1.6063-2.0644 2.1298-2.5878 1.4941-5.8968.6074-7.3908-1.9803-1.4941-2.5878-.6074-5.8967 1.9803-7.3908.9068-.5235 1.9021-.7547 2.8768-.7228.1543.005.3112.0013.4698-.0103z" fill="url(#i)"/><path d="m24.5293 28.934c.2812 1.6041 1.2443 3.077 2.765 3.9549 1.5207.878 3.2779.9756 4.8077.4171-.0116.1586-.0153.3154-.0103.4698.0319.9747-.1993 1.97-.7228 2.8767-1.4941 2.5878-4.803 3.4744-7.3908 1.9803-2.5878-1.494-3.4744-4.8029-1.9803-7.3907.5235-.9067 1.2698-1.6046 2.1298-2.0644.1362-.0728.2702-.1545.4017-.2437z" fill="url(#j)"/><path d="m28.3301 29.3936c1.0456 1.2486 2.6161 2.0426 4.3721 2.0426s3.3265-.794 4.3721-2.0426c.0692.1431.1444.2808.226.4119.5149.8282.8123 1.8058.8123 2.8528 0 2.9881-2.4223 5.4104-5.4104 5.4104s-5.4104-2.4223-5.4104-5.4104c0-1.047.2974-2.0246.8123-2.8528.0816-.1311.1568-.2688.226-.4119z" fill="url(#k)"/><path d="m31.8514 27.8913c1.5298.5585 3.2869.4609 4.8076-.417 1.5207-.878 2.4838-2.3509 2.765-3.955.1315.0892.2655.1709.4017.2437.8601.4598 1.6064 1.1577 2.1299 2.0644 1.4941 2.5878.6074 5.8967-1.9803 7.3908-2.5878 1.494-5.8967.6074-7.3908-1.9804-.5235-.9067-.7547-1.902-.7229-2.8767.0051-.1543.0014-.3112-.0102-.4698z" fill="url(#l)"/><path d="m38.108 22.0586c-.0011.0019-.0022.0038-.0033.0057-.8779 1.5207-2.3508 2.4838-3.9549 2.765.0892.1316.1709.2656.2437.4017.4598.8601 1.1577 1.6064 2.0644 2.1299 2.5878 1.4941 5.8967.6074 7.3908-1.9803 1.2808-2.2186.8119-4.9672-.9786-6.6478-.7866 1.8877-2.6119 3.2342-4.7621 3.3258z" fill="url(#m)"/><path d="m57.2605 11.841v16.159h-3.5812v-16.159zm-3.0135 16.159.0655-3.1663h9.2805v3.1663zm9.9065-5.481c0-1.15.2402-2.1545.7206-3.0134.4804-.8735 1.1573-1.5504 2.0308-2.0308.8734-.4804 1.8924-.7206 3.0571-.7206 1.1646 0 2.1763.2402 3.0352.7206.8735.4804 1.5504 1.1573 2.0308 2.0308.4804.8589.7206 1.8634.7206 3.0134 0 1.1501-.2402 2.1546-.7206 3.0135s-1.1573 1.5285-2.0308 2.0089c-.8589.4804-1.8706.7206-3.0352.7206-1.1647 0-2.1837-.2402-3.0571-.7206-.8735-.4804-1.5504-1.15-2.0308-2.0089s-.7206-1.8634-.7206-3.0135zm3.3846-.0218c0 .5532.1019 1.0409.3057 1.4631.2038.4076.4877.7278.8516.9608.364.2183.7862.3275 1.2666.3275s.9025-.1092 1.2665-.3275c.3639-.233.6405-.5532.8298-.9608.2038-.4222.3057-.9099.3057-1.4631s-.1019-1.0336-.3057-1.4412c-.1893-.4076-.4659-.7206-.8298-.939-.364-.2329-.7861-.3494-1.2665-.3494s-.9026.1165-1.2666.3494c-.3639.2184-.6478.5314-.8516.939s-.3057.888-.3057 1.4412zm8.9699-.1528c0-1.121.2256-2.1036.6769-2.948.4513-.8443 1.07-1.4994 1.8561-1.9653.7861-.4804 1.6887-.7206 2.7077-.7206.8589 0 1.6159.1747 2.271.5241.6697.3494 1.1209.808 1.3539 1.3757l-.3276.2184.2621-1.7469h3.0352v10.2194c0 1.2811-.2475 2.3875-.7424 3.3192-.495.9462-1.201 1.6741-2.1182 2.1836-.9025.5095-1.9798.7643-3.2318.7643-1.0481 0-1.9943-.2111-2.8387-.6333-.8298-.4076-1.5067-.9899-2.0308-1.7469-.5095-.757-.8152-1.6304-.9171-2.6204h3.4065c.0291.626.2766 1.1064.7424 1.4413.4804.3348 1.0918.5022 1.8343.5022.8298 0 1.4703-.2329 1.9216-.6988.4513-.4513.6769-1.0554.6769-1.8124v-2.3147l.3057.2839c-.2329.5678-.6842 1.0263-1.3538 1.3757-.6697.3494-1.4412.5241-2.3147.5241-1.0045 0-1.8998-.2329-2.6859-.6988-.7715-.4658-1.383-1.1136-1.8343-1.9434-.4367-.8298-.655-1.7906-.655-2.8824zm3.4064-.0874c0 .5241.1092.9899.3276 1.3975.2184.4077.5095.7279.8735.9608.3639.2184.7642.3276 1.201.3276.524 0 .9826-.1092 1.3757-.3276.4076-.2329.7206-.5531.9389-.9608.2329-.4076.3494-.8734.3494-1.3975 0-.5386-.1165-.9972-.3494-1.3757-.2329-.393-.5532-.6988-.9608-.9171-.393-.2184-.8516-.3276-1.3757-.3276-.4367 0-.837.1092-1.201.3276-.3639.2183-.6551.5241-.8734.9171-.2039.3931-.3058.8516-.3058 1.3757zm9.6274.262c0-1.15.2402-2.1545.7206-3.0134.4804-.8735 1.1573-1.5504 2.0308-2.0308.8734-.4804 1.8925-.7206 3.0571-.7206s2.1763.2402 3.0353.7206c.8734.4804 1.5503 1.1573 2.0304 2.0308.481.8589.721 1.8634.721 3.0134 0 1.1501-.24 2.1546-.721 3.0135-.4801.8589-1.157 1.5285-2.0304 2.0089-.859.4804-1.8707.7206-3.0353.7206s-2.1837-.2402-3.0571-.7206c-.8735-.4804-1.5504-1.15-2.0308-2.0089s-.7206-1.8634-.7206-3.0135zm3.3846-.0218c0 .5532.1019 1.0409.3057 1.4631.2038.4076.4877.7278.8517.9608.3639.2183.7861.3275 1.2665.3275s.9026-.1092 1.2665-.3275c.3639-.233.6405-.5532.8298-.9608.2038-.4222.3057-.9099.3057-1.4631s-.1019-1.0336-.3057-1.4412c-.1893-.4076-.4659-.7206-.8298-.939-.3639-.2329-.7861-.3494-1.2665-.3494s-.9026.1165-1.2665.3494c-.364.2184-.6479.5314-.8517.939s-.3057.888-.3057 1.4412zm9.6246 5.5028v-10.9182h3.385v10.9182zm1.704-12.6215c-.539 0-.998-.182-1.376-.5459-.364-.3785-.546-.8371-.546-1.3757s.182-.9899.546-1.3539c.378-.3639.837-.5459 1.376-.5459.524 0 .968.182 1.332.5459.378.364.567.8153.567 1.3539s-.189.9972-.567 1.3757c-.364.3639-.808.5459-1.332.5459zm3.87 17.8623v-16.159h3.079l.174 1.332c.306-.5095.794-.9171 1.463-1.2229.67-.3057 1.391-.4585 2.162-.4585 1.019 0 1.907.2256 2.664.6769s1.354 1.0991 1.791 1.9435c.436.8297.669 1.8342.699 3.0134.029 1.15-.161 2.1764-.568 3.0789-.408.888-.997 1.5868-1.769 2.0963-.772.5096-1.703.7643-2.795.7643-.757 0-1.463-.131-2.118-.393-.655-.2621-1.143-.5969-1.463-1.0045v6.3326zm3.384-10.6999c0 .5386.109 1.019.328 1.4412.233.4076.546.7279.939.9608.407.2184.873.3275 1.397.3275.539 0 .998-.1164 1.376-.3493.393-.233.692-.5532.895-.9608.219-.4077.328-.8808.328-1.4194 0-.5387-.109-1.0118-.328-1.4194-.203-.4076-.502-.7279-.895-.9608-.378-.2329-.837-.3494-1.376-.3494-.524 0-.99.1165-1.397.3494-.393.2184-.706.5314-.939.939-.219.4076-.328.888-.328 1.4412zm9.224 2.0089h3.036c0 .3785.123.677.371.8953.262.2184.64.3276 1.135.3276.291 0 .532-.0364.721-.1092.204-.0728.357-.1747.458-.3057.117-.1456.175-.3057.175-.4804 0-.1893-.065-.3494-.196-.4804-.117-.131-.321-.2329-.612-.3057l-1.921-.5023c-1.078-.2911-1.842-.7206-2.293-1.2883-.452-.5678-.677-1.2156-.677-1.9435s.182-1.3611.546-1.8997c.378-.5532.888-.9754 1.528-1.2666.641-.3057 1.361-.4585 2.162-.4585 1.208 0 2.198.3348 2.97 1.0045.786.655 1.201 1.5503 1.245 2.6858h-3.036c.015-.3785-.094-.6769-.327-.8953-.233-.2329-.539-.3493-.917-.3493-.335 0-.612.0873-.83.262-.204.1601-.306.3858-.306.6769 0 .2766.102.4804.306.6115.204.1164.48.2183.83.3057l1.943.4804c.903.2183 1.587.5896 2.053 1.1136.466.5241.698 1.1938.698 2.009 0 1.1209-.414 2.0089-1.244 2.664s-1.907.9827-3.232.9827c-1.368 0-2.468-.3421-3.297-1.0263-.816-.6988-1.245-1.6014-1.289-2.7078zm14.428 3.7341c-1.281 0-2.271-.4004-2.97-1.201-.698-.8007-1.048-1.8489-1.048-3.1445v-6.8566h3.363v5.6338c0 1.019.182 1.7032.546 2.0526s.844.5241 1.441.5241c.772 0 1.303-.2184 1.594-.6551s.437-1.0627.437-1.878v-5.6774h3.363v10.9182h-3.166l-.219-1.2228c-.335.4512-.808.8152-1.419 1.0918-.612.2766-1.252.4149-1.922.4149zm12.277-.2839h-3.385v-10.9182h3.145l.24 1.8779-.371-.3931c.291-.5532.728-.9972 1.31-1.332.597-.3494 1.237-.5241 1.922-.5241 1.077 0 1.921.2402 2.533.7206.626.4804 1.077 1.1137 1.353 1.8998h-.524c.175-.7861.597-1.4194 1.267-1.8998s1.47-.7206 2.402-.7206c1.412 0 2.453.3785 3.123 1.1355.669.757 1.004 1.7615 1.004 3.0135v7.1405h-3.275v-6.3107c0-.6843-.168-1.1938-.503-1.5286-.32-.3348-.749-.5022-1.288-.5022-.32 0-.626.0728-.917.2183-.291.131-.532.3712-.721.7206-.189.3349-.284.8153-.284 1.4412v5.9614h-3.319v-6.3107c0-.6843-.16-1.1865-.48-1.5068-.321-.3348-.75-.5022-1.289-.5022-.32 0-.633.0728-.939.2184-.291.131-.531.3712-.72.7206-.189.3348-.284.8079-.284 1.4193z" fill="#1b3d5b"/></g></svg>