<svg fill="none" height="42" viewBox="0 0 172 42" width="172" xmlns="http://www.w3.org/2000/svg"><path clip-rule="evenodd" d="m57.1022 5.36191c0-1.20264.9855-2.17758 2.2014-2.17758h3.8351c.8654 0 1.704.29663 2.3731.83941l1.1667.94634.0291.02632c.027-.00899.0539-.01776.0809-.02632 2.1048-.66685 4.6584-.79366 7.2648-.79366s5.1601.12681 7.2648.79366c.027.00856.054.01733.0809.02632l.0291-.02632 1.1667-.94634c.6691-.54278 1.5078-.83941 2.3731-.83941h3.8351c1.2159 0 2.2014.97494 2.2014 2.17758v1.34615c0 1.04153-.4435 2.03487-1.2218 2.73635l-.9412.84829c-.4594.4141-1.0109.7155-1.6099.8798l-.2226.0611c.8721 2.0583 1.3538 4.2584 1.3538 6.0383 0 7.1596-4.4784 10.2518-8.4245 12.9763-3.1076 2.1456-5.8849 4.0632-5.8849 7.5598 0-3.4966-2.7773-5.4142-5.8849-7.5598-3.946-2.7245-8.4245-5.8167-8.4245-12.9763 0-1.7799.4818-3.98 1.3538-6.0383l-.2226-.0611c-.599-.1643-1.1504-.4657-1.6099-.8798l-.9412-.84829c-.7783-.70148-1.2218-1.69482-1.2218-2.73635zm19.813 17.76329c0 .342-.1508.67-.4191.912-.2683.2418-.6323.3777-1.0119.3777-.3276 0-.6437-.1014-.8966-.2847.4305 1.14 1.5323 2.2202 3.2082.4831 1.4794-1.6141-.0658-5.0184-1.5712-7.0385-.5018-.6733-1.3256-.9974-2.1713-.9974s-1.6695.3241-2.1712.9974c-1.5055 2.0201-3.0507 5.4244-1.5713 7.0385 1.6759 1.7371 2.7777.6569 3.2083-.4831-.253.1833-.5691.2847-.8967.2847-.3796 0-.7435-.1359-1.0119-.3777-.2683-.242-.4191-.57-.4191-.912zm-8.3417-10.0773h-3.9864l3.1417 2.4883c.6913.5475 1.7018.3724 2.1296-.3689.5401-.9361-.1773-2.1194-1.2849-2.1194zm10.9596 0h3.9864l-3.1417 2.4883c-.6913.5475-1.7018.3724-2.1296-.3689-.5401-.9361.1773-2.1194 1.2849-2.1194z" fill="#72b800" fill-rule="evenodd"/><g fill="#355030"><path d="m95.7532 27.7094h3.5316v-13.3215h-3.5316zm0-15.3989h3.5316v-3.16804h-3.5316z"/><path d="m101.56 32.072h3.532v-5.8687h.052c.753 1.1426 1.974 1.8956 3.843 1.8956 3.428 0 5.765-2.7266 5.765-7.0372 0-4.1549-2.259-7.0373-5.791-7.0373-1.818 0-3.064.8569-3.921 2.0255h-.078v-1.6619h-3.402zm6.674-6.9074c-2.103 0-3.22-1.5841-3.22-3.9991 0-2.389.883-4.2846 3.09-4.2846 2.182 0 3.064 1.7658 3.064 4.2846 0 2.5189-1.142 3.9991-2.934 3.9991z"/><path d="m121.797 28.0989c3.324 0 5.609-1.61 5.609-4.2846 0-3.1162-2.467-3.7394-4.7-4.2068-1.896-.3895-3.661-.4934-3.661-1.636 0-.9608.908-1.4802 2.285-1.4802 1.506 0 2.415.5194 2.57 1.9476h3.194c-.259-2.6746-2.207-4.4145-5.712-4.4145-3.039 0-5.428 1.3763-5.428 4.2587 0 2.9084 2.337 3.5576 4.726 4.025 1.818.3636 3.506.4934 3.506 1.7658 0 .9349-.883 1.5321-2.441 1.5321-1.584 0-2.675-.6751-2.908-2.2072h-3.272c.208 2.8305 2.363 4.7001 6.232 4.7001z"/><path d="m140.815 27.7094v-13.3215h-3.532v7.6865c0 1.7658-1.012 3.0122-2.674 3.0122-1.506 0-2.208-.8569-2.208-2.415v-8.2837h-3.505v8.881c0 2.9084 1.662 4.804 4.622 4.804 1.87 0 2.908-.7011 3.817-1.9216h.078v1.5581z"/><path d="m143.099 27.7094h3.532v-7.7384c0-1.7658.961-2.9084 2.389-2.9084 1.298 0 2.051.7791 2.051 2.2852v8.3616h3.532v-7.7384c0-1.7658.909-2.9084 2.389-2.9084 1.298 0 2.051.7791 2.051 2.2852v8.3616h3.532v-8.9589c0-2.9083-1.584-4.7261-4.389-4.7261-1.687 0-3.09.8829-3.999 2.3371h-.051c-.65-1.4022-2-2.3371-3.688-2.3371-1.844 0-3.142.9349-3.869 2.1553h-.078v-1.7917h-3.402z"/><path d="m6.59216 27.7094h3.53164v-18.56694h-3.53164z"/><path d="m18.7591 28.0989c4.1289 0 6.9593-3.0642 6.9593-7.0372 0-3.9731-2.8304-7.0373-6.9593-7.0373s-6.9594 3.0642-6.9594 7.0373c0 3.973 2.8305 7.0372 6.9594 7.0372zm0-2.7006c-2.1813 0-3.3758-1.7399-3.3758-4.3366 0-2.5968 1.1945-4.3626 3.3758-4.3626 2.1553 0 3.3758 1.7658 3.3758 4.3626 0 2.5967-1.2205 4.3366-3.3758 4.3366z"/><path d="m33.2287 32.2538c1.9736 0 3.6874-.4675 4.8041-1.5062.9867-.9088 1.584-2.1812 1.584-4.0509v-12.3087h-3.4018v1.4022h-.0519c-.805-1.1166-2.0255-1.7658-3.6874-1.7658-3.3759 0-5.7649 2.5449-5.7649 6.5179 0 4.025 2.9084 6.3621 5.8687 6.3621 1.6879 0 2.7007-.6751 3.4797-1.5581h.0779v1.4542c0 1.8178-.9608 2.7786-2.9603 2.7786-1.636 0-2.389-.6492-2.6747-1.4802h-3.5056c.3635 2.5968 2.5967 4.1549 6.2322 4.1549zm-.0519-8.1799c-1.8178 0-3.0123-1.3243-3.0123-3.5835 0-2.2332 1.1945-3.6355 2.9863-3.6355 2.1294 0 3.1681 1.6619 3.1681 3.6095 0 1.9736-.9089 3.6095-3.1421 3.6095z"/><path d="m48.2009 28.0989c4.1289 0 6.9594-3.0642 6.9594-7.0372 0-3.9731-2.8305-7.0373-6.9594-7.0373-4.1288 0-6.9593 3.0642-6.9593 7.0373 0 3.973 2.8305 7.0372 6.9593 7.0372zm0-2.7006c-2.1813 0-3.3758-1.7399-3.3758-4.3366 0-2.5968 1.1945-4.3626 3.3758-4.3626 2.1554 0 3.3758 1.7658 3.3758 4.3626 0 2.5967-1.2204 4.3366-3.3758 4.3366z"/><path d="m162.416 11.4796c0-.5976.484-1.082 1.082-1.082h2.164c.597 0 1.082.4844 1.082 1.082 0 .5975-.485 1.082-1.082 1.082h-2.164c-.598 0-1.082-.4845-1.082-1.082z"/></g></svg>