<svg fill="none" height="42" viewBox="0 0 172 42" width="172" xmlns="http://www.w3.org/2000/svg" xmlns:xlink="http://www.w3.org/1999/xlink"><linearGradient id="a" gradientUnits="userSpaceOnUse" x1="44.7809" x2="13.7555" y1="12.7563" y2="12.7563"><stop offset="0" stop-color="#73e5e2"/><stop offset="1" stop-color="#394f87"/></linearGradient><linearGradient id="b" gradientUnits="userSpaceOnUse" x1="6" x2="37.0254" y1="28.269" y2="28.269"><stop offset="0" stop-color="#fbdc8e"/><stop offset="1" stop-color="#fb958e"/></linearGradient><clipPath id="c"><path d="m6 5h160v32h-160z"/></clipPath><g clip-path="url(#c)"><g fill="#3a5088"><path d="m54.0728 29.2381v-16.2879h3.0714v13.4957h7.4459v2.7922z"/><path d="m71.2215 29.5639c-1.1478 0-2.1794-.2327-3.0946-.6981-.9153-.4653-1.6366-1.1401-2.164-2.0243s-.7911-1.9468-.7911-3.1878v-.3723c0-1.241.2637-2.3036.7911-3.1878s1.2487-1.559 2.164-2.0244c.9152-.4653 1.9468-.698 3.0946-.698 1.1479 0 2.1796.2327 3.0948.698.9152.4654 1.6365 1.1402 2.164 2.0244.5274.8842.7911 1.9468.7911 3.1878v.3723c0 1.241-.2637 2.3036-.7911 3.1878-.5275.8842-1.2488 1.559-2.164 2.0243-.9152.4654-1.9469.6981-3.0948.6981zm0-2.6061c.8997 0 1.6444-.287 2.2339-.8609.5894-.5895.8842-1.4272.8842-2.513v-.2327c0-1.0859-.2948-1.9158-.8842-2.4898-.574-.5894-1.3187-.8842-2.2339-.8842-.8996 0-1.6442.2948-2.2337.8842-.5895.574-.8842 1.4039-.8842 2.4898v.2327c0 1.0858.2947 1.9235.8842 2.513.5895.5739 1.3341.8609 2.2337.8609z"/><path d="m78.3719 23.5141v-.3723c0-1.21.2404-2.2416.7213-3.0948.4809-.8686 1.1169-1.5279 1.908-1.9778.8067-.4653 1.6831-.698 2.6294-.698 1.0548 0 1.8537.1861 2.3966.5584.543.3723.9385.7601 1.1867 1.1634h.4189v-1.3961h2.8854v13.5888c0 .7912-.2328 1.4194-.6982 1.8848-.4654.4809-1.0858.7213-1.8615.7213h-7.7251v-2.5595h6.7013c.4344 0 .6516-.2327.6516-.6981v-3.0016h-.4189c-.1551.2482-.3723.5041-.6515.7679-.2792.2481-.6515.4576-1.1169.6282s-1.0548.256-1.7684.256c-.9463 0-1.8227-.225-2.6294-.6748-.7911-.4654-1.4271-1.1247-1.908-1.9779-.4809-.8686-.7213-1.908-.7213-3.1179zm6.0964 3.211c.8997 0 1.652-.287 2.257-.8609.605-.574.9075-1.3806.9075-2.4199v-.2327c0-1.0549-.3025-1.8615-.9075-2.42-.5895-.5739-1.3418-.8609-2.257-.8609-.8998 0-1.652.287-2.257.8609-.605.5585-.9076 1.3651-.9076 2.42v.2327c0 1.0393.3026 1.8459.9076 2.4199.605.5739 1.3572.8609 2.257.8609z"/><path d="m98.213 29.5639c-1.1479 0-2.1795-.2327-3.0948-.6981-.9152-.4653-1.6365-1.1401-2.1639-2.0243s-.7912-1.9468-.7912-3.1878v-.3723c0-1.241.2638-2.3036.7912-3.1878s1.2487-1.559 2.1639-2.0244c.9153-.4653 1.9469-.698 3.0948-.698s2.179.2327 3.095.698c.915.4654 1.636 1.1402 2.164 2.0244.527.8842.791 1.9468.791 3.1878v.3723c0 1.241-.264 2.3036-.791 3.1878-.528.8842-1.249 1.559-2.164 2.0243-.916.4654-1.9471.6981-3.095.6981zm0-2.6061c.8997 0 1.6443-.287 2.234-.8609.589-.5895.884-1.4272.884-2.513v-.2327c0-1.0859-.295-1.9158-.884-2.4898-.5742-.5894-1.3188-.8842-2.234-.8842-.8998 0-1.6443.2948-2.2338.8842-.5895.574-.8842 1.4039-.8842 2.4898v.2327c0 1.0858.2947 1.9235.8842 2.513.5895.5739 1.334.8609 2.2338.8609z"/><path d="m105.922 29.2381v-11.5412h2.932v11.5412zm1.466-12.8907c-.528 0-.977-.1707-1.35-.512-.357-.3412-.535-.7911-.535-1.3495 0-.5585.178-1.0083.535-1.3496.373-.3413.822-.5119 1.35-.5119.543 0 .993.1706 1.349.5119.357.3413.536.7911.536 1.3496 0 .5584-.179 1.0083-.536 1.3495-.356.3413-.806.512-1.349.512z"/><path d="m111.056 33.8918v-16.1949h2.885v1.3961h.419c.263-.4498.674-.8454 1.233-1.1867.558-.3567 1.357-.5351 2.397-.5351.93 0 1.791.2327 2.582.698.792.4499 1.428 1.1169 1.908 2.0011.481.8842.722 1.9546.722 3.2111v.3723c0 1.2565-.241 2.3268-.722 3.211-.48.8842-1.116 1.559-1.908 2.0244-.791.4498-1.652.6748-2.582.6748-.698 0-1.288-.0853-1.769-.256-.465-.1551-.845-.3568-1.14-.605-.279-.2637-.504-.5274-.675-.7911h-.419v5.98zm6.049-6.8875c.916 0 1.668-.2869 2.257-.8609.605-.5895.908-1.4426.908-2.5595v-.2327c0-1.1169-.303-1.9623-.908-2.5363-.605-.5895-1.357-.8842-2.257-.8842-.899 0-1.652.2947-2.257.8842-.605.574-.907 1.4194-.907 2.5363v.2327c0 1.1169.302 1.97.907 2.5595.605.574 1.358.8609 2.257.8609z"/><path d="m129.64 29.5639c-1.505 0-2.738-.3258-3.7-.9773-.961-.6515-1.543-1.5823-1.745-2.7922l2.699-.6981c.109.543.287.9695.536 1.2798.263.3102.581.5352.954.6748.387.1241.806.1861 1.256.1861.683 0 1.187-.1163 1.512-.349.326-.2482.489-.5507.489-.9075s-.155-.6282-.465-.8144c-.311-.2016-.807-.3645-1.489-.4886l-.652-.1164c-.807-.1551-1.543-.3645-2.21-.6282-.668-.2792-1.203-.6593-1.606-1.1402-.403-.4808-.605-1.1013-.605-1.8614 0-1.148.419-2.0244 1.257-2.6294.837-.6205 1.939-.9307 3.304-.9307 1.287 0 2.358.2869 3.211.8609s1.411 1.3263 1.675 2.2571l-2.722.8376c-.124-.5894-.38-1.0083-.768-1.2565-.373-.2482-.838-.3723-1.396-.3723-.559 0-.985.1009-1.28.3025-.295.1862-.442.4499-.442.7911 0 .3723.155.6516.465.8377.31.1706.729.3025 1.257.3956l.651.1163c.869.1551 1.652.3646 2.35.6283.714.2482 1.272.6127 1.676 1.0936.418.4654.628 1.1014.628 1.908 0 1.21-.442 2.1485-1.326 2.8155-.869.6515-2.04.9773-3.514.9773z"/><path d="m140.4 29.4243c-.9 0-1.691-.2017-2.374-.605-.667-.4188-1.186-.9928-1.559-1.7219-.372-.7291-.558-1.5667-.558-2.513v-6.8875h2.932v6.6548c0 .8687.209 1.5202.628 1.9546.434.4343 1.047.6515 1.838.6515.9 0 1.598-.2947 2.094-.8842.497-.605.745-1.4427.745-2.513v-5.8637h2.932v11.5412h-2.886v-1.5124h-.418c-.186.3878-.536.7678-1.047 1.1401-.512.3723-1.288.5585-2.327.5585z"/><path d="m149.293 29.238v-11.5412h2.885v1.2565h.419c.202-.3878.536-.7213 1.001-1.0005.465-.2948 1.078-.4421 1.838-.4421.822 0 1.482.1629 1.978.4886.496.3103.876.7213 1.14 1.2333h.419c.264-.4964.636-.9075 1.117-1.2333.481-.3257 1.163-.4886 2.047-.4886.714 0 1.358.1551 1.932.4654.589.2947 1.055.7523 1.396 1.3728.357.605.535 1.3728.535 2.3036v7.5855h-2.932v-7.3761c0-.636-.163-1.1091-.488-1.4194-.326-.3257-.784-.4886-1.373-.4886-.667 0-1.187.2171-1.559.6515-.357.4188-.535 1.0238-.535 1.8149v6.8177h-2.932v-7.3761c0-.636-.163-1.1091-.489-1.4194-.326-.3257-.783-.4886-1.373-.4886-.667 0-1.187.2171-1.559.6515-.357.4188-.535 1.0238-.535 1.8149v6.8177z"/></g><path d="m44.7809 20.5127c0-4.1142-1.6344-8.06-4.5436-10.96914-2.9092-2.90919-6.8549-4.54356-10.9691-4.54356s-8.0599 1.63437-10.9691 4.54356c-2.9092 2.90914-4.5436 6.85494-4.5436 10.96914h4.8478c1.6064 0 2.8592-1.3462 3.4476-2.841.3863-.9814.9725-1.8833 1.7327-2.6436 1.4546-1.4546 3.4275-2.2718 5.4846-2.2718s4.03.8172 5.4846 2.2718 2.2717 3.4275 2.2717 5.4846z" fill="url(#a)"/><path d="m35.8445 26.4491c.7796-1.8821 1.1809-3.8993 1.1809-5.9364h7.7555c0 8.5674-6.9453 15.5126-15.5127 15.5126-1.3417 0-2.6437-.1703-3.8853-.4905.7025-.181 1.393-.4115 2.0662-.6903 1.8821-.7796 3.5922-1.9222 5.0327-3.3627s2.5832-3.1506 3.3627-5.0327z" fill="#fbcf8e"/><path d="m6 20.5126c0 2.0372.40125 4.0544 1.18083 5.9365.77959 1.8821 1.92224 3.5922 3.36277 5.0327 1.4404 1.4404 3.1506 2.5831 5.0326 3.3627 1.8821.7796 3.8993 1.1808 5.9365 1.1808 2.0371 0 4.0543-.4012 5.9364-1.1808s3.5922-1.9223 5.0327-3.3627c1.4405-1.4405 2.5831-3.1506 3.3627-5.0327s1.1809-3.8993 1.1809-5.9365h-4.8478c-1.6064 0-2.8592 1.3462-3.4476 2.8409-.0167.0426-.0339.085-.0514.1274-.3898.941-.9611 1.7961-1.6814 2.5163-.7202.7202-1.5753 1.2916-2.5163 1.6814s-1.9496.5904-2.9682.5904-2.0272-.2006-2.9682-.5904c-.9411-.3898-1.7961-.9612-2.5164-1.6814-.7202-.7202-1.2916-1.5753-1.6813-2.5163-.3898-.9411-.5905-1.9497-.5905-2.9683z" fill="url(#b)"/><path d="m6.00159 20.5127c0-8.5675 6.94521-15.5127 15.51261-15.5127 1.3414 0 2.643.17025 3.8845.49032-2.6639.68625-5.1213 2.07503-7.0996 4.05325-2.9092 2.90913-4.5435 6.85493-4.5435 10.96913z" fill="#73e5e2"/></g></svg>