<svg fill="none" height="400" viewBox="0 0 636 400" width="636" xmlns="http://www.w3.org/2000/svg" xmlns:xlink="http://www.w3.org/1999/xlink"><filter id="a" color-interpolation-filters="sRGB" filterUnits="userSpaceOnUse" height="336" width="572" x="32" y="36"><feFlood flood-opacity="0" result="BackgroundImageFix"/><feColorMatrix in="SourceAlpha" result="hardAlpha" type="matrix" values="0 0 0 0 0 0 0 0 0 0 0 0 0 0 0 0 0 0 127 0"/><feOffset dy="4"/><feGaussianBlur stdDeviation="4"/><feColorMatrix type="matrix" values="0 0 0 0 0.559444 0 0 0 0 0.559444 0 0 0 0 0.633333 0 0 0 0.16 0"/><feBlend in2="BackgroundImageFix" mode="normal" result="effect1_dropShadow_1850_2679"/><feBlend in="SourceGraphic" in2="effect1_dropShadow_1850_2679" mode="normal" result="shape"/></filter><linearGradient id="b"><stop offset="0" stop-color="#b4bed8"/><stop offset="1" stop-color="#c1c6d2" stop-opacity="0"/></linearGradient><linearGradient id="c" gradientUnits="userSpaceOnUse" x1="170" x2="170" xlink:href="#b" y1="156.293" y2="210"/><linearGradient id="d" gradientUnits="userSpaceOnUse" x1="270" x2="270" xlink:href="#b" y1="156.293" y2="210"/><linearGradient id="e" gradientUnits="userSpaceOnUse" x1="370" x2="370" xlink:href="#b" y1="156.293" y2="210"/><linearGradient id="f" gradientUnits="userSpaceOnUse" x1="470" x2="470" xlink:href="#b" y1="156.293" y2="210"/><path d="m0 0h636v400h-636z" fill="#e3e9f1" fill-opacity=".5"/><g filter="url(#a)"><rect fill="#fff" height="320" rx="16" width="556" x="40" y="40"/></g><path d="m276.016 97.544c1.739 0 3.285.352 4.64 1.056 1.365.6933 2.464 1.643 3.296 2.848.843 1.205 1.339 2.565 1.488 4.08h-4.896c-.149-.8-.421-1.509-.816-2.128-.395-.629-.912-1.12-1.552-1.472-.64-.363-1.408-.544-2.304-.544-1.077 0-2.005.261-2.784.784s-1.376 1.365-1.792 2.528-.624 2.699-.624 4.608c0 2.88.459 4.965 1.376 6.256.928 1.28 2.203 1.92 3.824 1.92.896 0 1.664-.203 2.304-.608.64-.416 1.157-.96 1.552-1.632.395-.683.667-1.429.816-2.24h4.896c-.139 1.099-.405 2.149-.8 3.152-.395.992-.955 1.877-1.68 2.656s-1.659 1.392-2.8 1.84-2.523.672-4.144.672c-2.155 0-4.016-.501-5.584-1.504s-2.779-2.411-3.632-4.224c-.843-1.813-1.264-3.931-1.264-6.352 0-2.432.421-4.517 1.264-6.256.843-1.749 2.048-3.0933 3.616-4.032s3.435-1.408 5.6-1.408zm18.233 23.744c-1.216 0-2.182-.144-2.896-.432-.715-.288-1.243-.667-1.584-1.136-.342-.48-.56-1.008-.656-1.584-.096-.587-.144-1.179-.144-1.776v-19.136h4.576v18.56c0 .608.128 1.104.384 1.488.266.373.762.603 1.488.688l.784.048v2.88c-.32.107-.646.197-.976.272-.331.085-.656.128-.976.128zm9.705-16.832v16.544h-4.464v-16.544zm.048-6.576v4.208h-4.544v-4.208zm8.026 15.92c-.011.843.122 1.579.4 2.208.277.619.677 1.099 1.2 1.44.533.331 1.173.496 1.92.496.8 0 1.498-.171 2.096-.512.608-.341 1.029-.901 1.264-1.68h4.208c-.182 1.173-.651 2.176-1.408 3.008-.747.832-1.654 1.467-2.72 1.904-1.067.437-2.176.656-3.328.656-1.632 0-3.072-.341-4.32-1.024-1.238-.693-2.203-1.669-2.896-2.928-.694-1.259-1.04-2.741-1.04-4.448 0-1.653.314-3.141.944-4.464.629-1.333 1.541-2.384 2.736-3.152 1.205-.779 2.65-1.168 4.336-1.168 1.685 0 3.098.357 4.24 1.072 1.152.704 2.016 1.691 2.592 2.96.586 1.259.88 2.715.88 4.368v1.264zm-.016-2.784h6.752c0-.661-.123-1.269-.368-1.824-.246-.555-.619-.992-1.12-1.312-.491-.32-1.11-.48-1.856-.48-.726 0-1.344.176-1.856.528-.502.341-.886.789-1.152 1.344-.267.555-.4 1.136-.4 1.744zm14.363 9.984v-16.544h4.592v2.336c.256-.405.587-.795.992-1.168.416-.384.939-.699 1.568-.944s1.376-.368 2.24-.368c1.013 0 1.957.197 2.832.592.885.395 1.6 1.019 2.144 1.872.544.843.816 1.947.816 3.312v10.912h-4.672v-10.336c0-.896-.267-1.568-.8-2.016s-1.184-.672-1.952-.672c-.512 0-1.008.091-1.488.272-.469.181-.853.453-1.152.816s-.448.811-.448 1.344v10.592zm28.33-13.296h-3.68l.032 8.816c0 .405.048.709.144.912.107.192.267.32.48.384.224.053.507.08.848.08h2.224v2.88c-.213.096-.549.187-1.008.272-.448.085-1.077.128-1.888.128-1.451 0-2.576-.187-3.376-.56-.789-.373-1.339-.896-1.648-1.568s-.464-1.451-.464-2.336v-9.008h-2.688v-3.248h2.848l1.168-4.992h3.328v4.976h3.68zm9.87 13.616c-1.152 0-2.261-.187-3.328-.56-1.066-.384-1.968-.981-2.704-1.792-.736-.821-1.205-1.883-1.408-3.184h4.048c.139.587.39 1.051.752 1.392.374.341.795.587 1.264.736.47.139.918.208 1.344.208.896 0 1.616-.139 2.16-.416.555-.288.832-.725.832-1.312 0-.448-.165-.805-.496-1.072-.32-.267-.853-.469-1.6-.608l-2.912-.608c-1.461-.309-2.634-.832-3.52-1.568-.885-.747-1.338-1.803-1.36-3.168 0-.992.262-1.883.784-2.672.534-.789 1.318-1.413 2.352-1.872 1.035-.459 2.304-.688 3.808-.688 2.038 0 3.664.448 4.88 1.344 1.227.896 1.851 2.16 1.872 3.792h-3.904c-.117-.64-.437-1.131-.96-1.472-.512-.352-1.157-.528-1.936-.528-.81 0-1.477.144-2 .432-.522.288-.784.725-.784 1.312 0 .437.214.784.64 1.04.427.245 1.088.459 1.984.64l2.688.608c.928.224 1.68.533 2.256.928.587.384 1.04.805 1.36 1.264s.539.923.656 1.392c.128.459.192.875.192 1.248 0 1.099-.293 2.037-.88 2.816-.586.768-1.402 1.355-2.448 1.76-1.045.405-2.256.608-3.632.608z" fill="#475569"/><rect fill="#e2e8f0" height="47" rx="5.01299" transform="matrix(-1 0 0 1 214 168)" width="88"/><path d="m160.276 176.358-34.276 33.642h88v-9.8l-14.398-12.98c-.649-.585-1.629-.602-2.298-.041l-14.139 11.868c-.754.632-1.88.52-2.494-.248l-17.801-22.284c-.647-.811-1.853-.883-2.594-.157z" fill="url(#c)"/><ellipse cx="187" cy="178.5" fill="#cbd5e1" rx="7" ry="6.5"/><rect fill="#e2e8f0" height="47" rx="5.01299" transform="matrix(-1 0 0 1 314 168)" width="88"/><path d="m260.276 176.358-34.276 33.642h88v-9.8l-14.398-12.98c-.649-.585-1.629-.602-2.298-.041l-14.139 11.868c-.754.632-1.88.52-2.494-.248l-17.801-22.284c-.647-.811-1.853-.883-2.594-.157z" fill="url(#d)"/><ellipse cx="287" cy="178.5" fill="#cbd5e1" rx="7" ry="6.5"/><rect fill="#e2e8f0" height="47" rx="5.01299" transform="matrix(-1 0 0 1 414 168)" width="88"/><path d="m360.276 176.358-34.276 33.642h88v-9.8l-14.398-12.98c-.649-.585-1.629-.602-2.298-.041l-14.139 11.868c-.754.632-1.88.52-2.494-.248l-17.801-22.284c-.647-.811-1.853-.883-2.594-.157z" fill="url(#e)"/><ellipse cx="387" cy="178.5" fill="#cbd5e1" rx="7" ry="6.5"/><rect fill="#e2e8f0" height="47" rx="5.01299" transform="matrix(-1 0 0 1 514 168)" width="88"/><path d="m460.276 176.358-34.276 33.642h88v-9.8l-14.398-12.98c-.649-.585-1.629-.602-2.298-.041l-14.139 11.868c-.754.632-1.88.52-2.494-.248l-17.801-22.284c-.647-.811-1.853-.883-2.594-.157z" fill="url(#f)"/><ellipse cx="487" cy="178.5" fill="#cbd5e1" rx="7" ry="6.5"/></svg>