<svg width="40" height="40" viewBox="0 0 40 40" fill="none" xmlns="http://www.w3.org/2000/svg">
<path opacity="0.2" d="M36.25 15H3.75L20 5L36.25 15Z" fill="#0677AC"/>
<path d="M3.75 16.2502H7.5V26.2502H5C4.66848 26.2502 4.35054 26.3819 4.11612 26.6163C3.8817 26.8507 3.75 27.1687 3.75 27.5002C3.75 27.8317 3.8817 28.1497 4.11612 28.3841C4.35054 28.6185 4.66848 28.7502 5 28.7502H35C35.3315 28.7502 35.6495 28.6185 35.8839 28.3841C36.1183 28.1497 36.25 27.8317 36.25 27.5002C36.25 27.1687 36.1183 26.8507 35.8839 26.6163C35.6495 26.3819 35.3315 26.2502 35 26.2502H32.5V16.2502H36.25C36.522 16.2499 36.7864 16.161 37.0033 15.9968C37.2201 15.8326 37.3775 15.6022 37.4515 15.3405C37.5256 15.0788 37.5122 14.8001 37.4135 14.5466C37.3149 14.2932 37.1362 14.0789 36.9047 13.9361L20.6547 3.93614C20.4578 3.81507 20.2312 3.75098 20 3.75098C19.7688 3.75098 19.5422 3.81507 19.3453 3.93614L3.09531 13.9361C2.86379 14.0789 2.68514 14.2932 2.58645 14.5466C2.48777 14.8001 2.47443 15.0788 2.54847 15.3405C2.62251 15.6022 2.77989 15.8326 2.99672 15.9968C3.21356 16.161 3.47802 16.2499 3.75 16.2502ZM10 16.2502H15V26.2502H10V16.2502ZM22.5 16.2502V26.2502H17.5V16.2502H22.5ZM30 26.2502H25V16.2502H30V26.2502ZM20 6.46739L31.8344 13.7502H8.16562L20 6.46739ZM38.75 32.5002C38.75 32.8317 38.6183 33.1497 38.3839 33.3841C38.1495 33.6185 37.8315 33.7502 37.5 33.7502H2.5C2.16848 33.7502 1.85054 33.6185 1.61612 33.3841C1.3817 33.1497 1.25 32.8317 1.25 32.5002C1.25 32.1687 1.3817 31.8507 1.61612 31.6163C1.85054 31.3819 2.16848 31.2502 2.5 31.2502H37.5C37.8315 31.2502 38.1495 31.3819 38.3839 31.6163C38.6183 31.8507 38.75 32.1687 38.75 32.5002Z" fill="#0677AC"/>
</svg>
