<svg width="40" height="40" viewBox="0 0 40 40" fill="none" xmlns="http://www.w3.org/2000/svg">
<path opacity="0.2" d="M20.0001 5.00002C20.0001 5.00002 13.7501 10 13.7501 21.25H5.00005C4.82613 21.2507 4.65398 21.2151 4.49461 21.1455C4.33524 21.0758 4.19216 20.9737 4.07451 20.8456C3.95686 20.7175 3.86724 20.5663 3.81137 20.4016C3.7555 20.2369 3.73461 20.0623 3.75005 19.8891C4.09944 15.8222 5.96355 12.0349 8.97313 9.27738C11.9827 6.51985 15.9182 4.99327 20.0001 5.00002ZM36.2501 19.8891C35.9007 15.8222 34.0366 12.0349 31.027 9.27738C28.0174 6.51985 24.0819 4.99327 20.0001 5.00002C20.0001 5.00002 26.2501 10 26.2501 21.25H35.0001C35.174 21.2507 35.3461 21.2151 35.5055 21.1455C35.6649 21.0758 35.8079 20.9737 35.9256 20.8456C36.0432 20.7175 36.1329 20.5663 36.1887 20.4016C36.2446 20.2369 36.2655 20.0623 36.2501 19.8891Z" fill="#198754"/>
<path d="M37.4999 19.7864C37.2145 16.5144 36.0177 13.3879 34.0451 10.7617C32.0726 8.13554 29.4034 6.1149 26.3405 4.9291C23.2776 3.74331 19.9436 3.43985 16.7169 4.05317C13.4902 4.66649 10.5001 6.17203 8.08584 8.39891C4.86281 11.3599 2.87156 15.4249 2.50772 19.7864C2.47805 20.1316 2.52046 20.4792 2.63225 20.8071C2.74404 21.1351 2.92277 21.4362 3.1571 21.6914C3.39144 21.9466 3.67626 22.1503 3.99349 22.2895C4.31072 22.4288 4.65344 22.5007 4.9999 22.5005H18.7499V31.2505C18.7499 32.5766 19.2767 33.8483 20.2144 34.786C21.1521 35.7237 22.4238 36.2505 23.7499 36.2505C25.076 36.2505 26.3478 35.7237 27.2854 34.786C28.2231 33.8483 28.7499 32.5766 28.7499 31.2505C28.7499 30.919 28.6182 30.601 28.3838 30.3666C28.1494 30.1322 27.8314 30.0005 27.4999 30.0005C27.1684 30.0005 26.8504 30.1322 26.616 30.3666C26.3816 30.601 26.2499 30.919 26.2499 31.2505C26.2499 31.9135 25.9865 32.5494 25.5177 33.0182C25.0488 33.4871 24.4129 33.7505 23.7499 33.7505C23.0869 33.7505 22.451 33.4871 21.9821 33.0182C21.5133 32.5494 21.2499 31.9135 21.2499 31.2505V22.5005H34.9999C35.347 22.5017 35.6906 22.4307 36.0088 22.2919C36.3269 22.1531 36.6127 21.9496 36.8479 21.6943C37.0831 21.4389 37.2625 21.1374 37.3747 20.809C37.487 20.4805 37.5296 20.1323 37.4999 19.7864ZM4.9999 20.0005C5.27694 16.7804 6.585 13.7356 8.72986 11.318C10.8747 8.90034 13.7421 7.23885 16.9062 6.58016C15.0749 9.06297 12.789 13.4552 12.5265 20.0005H4.9999ZM15.0233 20.0005C15.2405 15.1927 16.6687 11.7489 17.8827 9.65047C18.4813 8.60805 19.1912 7.63361 19.9999 6.74422C20.8071 7.63374 21.5154 8.60819 22.1124 9.65047C24.1874 13.2348 24.8437 17.0755 24.9718 20.0005H15.0233ZM27.4687 20.0005C27.2062 13.4552 24.9202 9.06297 23.0937 6.57235C26.2598 7.22957 29.1291 8.89166 31.2745 11.3112C33.4198 13.7308 34.7264 16.7784 34.9999 20.0005H27.4687Z" fill="#198754"/>
</svg>
