<svg width="16" height="16" viewBox="0 0 16 16" fill="none" xmlns="http://www.w3.org/2000/svg">
<path opacity="0.2" d="M13.9963 10.8797C13.8991 11.6054 13.5418 12.2711 12.9907 12.753C12.4395 13.2349 11.7321 13.5003 11 13.4997C8.74566 13.4997 6.58365 12.6042 4.98959 11.0101C3.39553 9.41609 2.5 7.25408 2.5 4.99974C2.49944 4.26762 2.7648 3.56021 3.24673 3.00908C3.72865 2.45794 4.39435 2.10059 5.12 2.00349C5.22727 1.99075 5.33578 2.01309 5.4293 2.06717C5.52281 2.12125 5.5963 2.20416 5.63875 2.30349L6.95938 5.25349C6.99182 5.32926 7.00504 5.41187 6.99784 5.49398C6.99064 5.57609 6.96326 5.65515 6.91813 5.72412L5.5825 7.31224C5.53512 7.38373 5.50711 7.46629 5.50119 7.55185C5.49528 7.63741 5.51166 7.72304 5.54875 7.80037C6.06563 8.85849 7.15938 9.93912 8.22063 10.451C8.29836 10.4879 8.38439 10.5039 8.47021 10.4975C8.55602 10.491 8.63867 10.4623 8.71 10.4141L10.2725 9.08287C10.3417 9.03679 10.4214 9.00872 10.5042 9.00118C10.5871 8.99365 10.6705 9.00691 10.7469 9.03974L13.6944 10.3604C13.7942 10.4025 13.8776 10.476 13.932 10.5697C13.9865 10.6633 14.009 10.7722 13.9963 10.8797Z" fill="#8B3DFF"/>
<path d="M9.51688 2.3705C9.53385 2.30704 9.56316 2.24755 9.60313 2.19543C9.64311 2.14331 9.69296 2.09957 9.74984 2.06672C9.80672 2.03387 9.86951 2.01254 9.93464 2.00397C9.99976 1.9954 10.0659 1.99974 10.1294 2.01675C11.0563 2.25859 11.902 2.74315 12.5794 3.42052C13.2567 4.09789 13.7413 4.94358 13.9831 5.8705C14.0001 5.93394 14.0045 6.00012 13.9959 6.06524C13.9873 6.13037 13.966 6.19316 13.9332 6.25004C13.9003 6.30692 13.8566 6.35677 13.8044 6.39675C13.7523 6.43672 13.6928 6.46603 13.6294 6.483C13.5871 6.49409 13.5437 6.49976 13.5 6.49987C13.3898 6.49987 13.2827 6.46347 13.1954 6.39634C13.108 6.3292 13.0453 6.23509 13.0169 6.12862C12.8196 5.37195 12.4242 4.68157 11.8712 4.12864C11.3183 3.57571 10.6279 3.18024 9.87126 2.983C9.80774 2.96609 9.74819 2.93683 9.696 2.89689C9.6438 2.85695 9.6 2.80711 9.56708 2.75022C9.53417 2.69333 9.51279 2.63051 9.50418 2.56536C9.49557 2.5002 9.49988 2.43399 9.51688 2.3705ZM9.37126 4.983C10.2331 5.213 10.7869 5.76675 11.0169 6.62862C11.0453 6.73509 11.108 6.8292 11.1954 6.89634C11.2827 6.96347 11.3898 6.99987 11.5 6.99987C11.5437 6.99976 11.5871 6.99409 11.6294 6.983C11.6928 6.96603 11.7523 6.93672 11.8044 6.89675C11.8566 6.85677 11.9003 6.80692 11.9332 6.75004C11.966 6.69316 11.9873 6.63037 11.9959 6.56524C12.0045 6.50012 12.0001 6.43394 11.9831 6.3705C11.6631 5.173 10.8269 4.33675 9.62938 4.01675C9.56594 3.9998 9.49977 3.99551 9.43467 4.00413C9.36957 4.01275 9.3068 4.03411 9.24996 4.06699C9.19311 4.09987 9.1433 4.14362 9.10336 4.19575C9.06342 4.24788 9.03414 4.30737 9.01719 4.37081C9.00024 4.43426 8.99596 4.50042 9.00458 4.56552C9.0132 4.63062 9.03456 4.69339 9.06744 4.75023C9.10031 4.80708 9.14407 4.85689 9.1962 4.89683C9.24833 4.93677 9.30781 4.96605 9.37126 4.983ZM14.4925 10.9424C14.3811 11.7893 13.9652 12.5666 13.3224 13.1293C12.6797 13.6919 11.8542 14.0014 11 13.9999C6.03751 13.9999 2.00001 9.96237 2.00001 4.99987C1.99847 4.14568 2.30794 3.32014 2.87059 2.67743C3.43324 2.03473 4.21061 1.61882 5.05751 1.50737C5.27166 1.48122 5.48854 1.52504 5.67575 1.63227C5.86296 1.73951 6.01047 1.90441 6.09626 2.10237L7.41626 5.04925V5.05675C7.48194 5.20828 7.50906 5.37372 7.49521 5.5383C7.48136 5.70287 7.42696 5.86145 7.33688 5.99987C7.32563 6.01675 7.31376 6.03237 7.30126 6.048L6.00001 7.5905C6.46813 8.54175 7.46313 9.528 8.42688 9.99737L9.94813 8.703C9.96307 8.69044 9.97872 8.67875 9.99501 8.668C10.1333 8.57575 10.2924 8.51944 10.458 8.50416C10.6235 8.48888 10.7903 8.51512 10.9431 8.5805L10.9513 8.58425L13.8956 9.90362C14.0939 9.98911 14.2592 10.1365 14.3668 10.3237C14.4744 10.511 14.5185 10.728 14.4925 10.9424ZM13.5 10.8174C13.5 10.8174 13.4956 10.8174 13.4931 10.8174L10.5556 9.50175L9.03376 10.7961C9.01899 10.8086 9.00355 10.8203 8.98751 10.8311C8.8436 10.9271 8.67726 10.9842 8.50472 10.9966C8.33218 11.0091 8.15936 10.9767 8.00313 10.9024C6.83251 10.3367 5.66563 9.17862 5.09938 8.0205C5.0244 7.86541 4.99075 7.69358 5.0017 7.52166C5.01265 7.34975 5.06783 7.18357 5.16188 7.03925C5.17248 7.0223 5.18439 7.00621 5.19751 6.99112L6.50001 5.44675L5.18751 2.50925C5.18726 2.50675 5.18726 2.50424 5.18751 2.50175C4.58141 2.58081 4.02493 2.8781 3.62226 3.33795C3.2196 3.79779 2.99837 4.38865 3.00001 4.99987C3.00232 7.12089 3.84592 9.15438 5.34571 10.6542C6.8455 12.154 8.87898 12.9976 11 12.9999C11.6109 13.002 12.2016 12.7815 12.6617 12.3797C13.1218 11.9779 13.4198 11.4223 13.5 10.8167V10.8174Z" fill="#8B3DFF"/>
</svg>
