<svg width="24" height="24" viewBox="0 0 24 24" fill="none" xmlns="http://www.w3.org/2000/svg">
<path opacity="0.2" d="M6.75 15L9 17.25C9 17.25 8.25 20.25 3.75 20.25C3.75 15.75 6.75 15 6.75 15ZM12.75 6.75H6.97031C6.77166 6.75009 6.58116 6.82899 6.44062 6.96937L3.22031 10.1897C3.12199 10.2882 3.05303 10.4122 3.02115 10.5477C2.98927 10.6832 2.99574 10.8249 3.03981 10.9569C3.08389 11.089 3.16384 11.2061 3.27073 11.2953C3.37761 11.3845 3.5072 11.4422 3.645 11.4619L7.5 12L12.75 6.75ZM12 16.5L12.5381 20.355C12.5578 20.4928 12.6155 20.6224 12.7047 20.7293C12.7939 20.8362 12.911 20.9161 13.0431 20.9602C13.1751 21.0043 13.3168 21.0107 13.4523 20.9788C13.5878 20.947 13.7118 20.878 13.8103 20.7797L17.0306 17.5594C17.171 17.4188 17.2499 17.2283 17.25 17.0297V11.25L12 16.5Z" fill="#198754"/>
<path d="M9.72843 17.4317C9.69186 17.577 8.7778 20.9998 3.74999 20.9998C3.55108 20.9998 3.36031 20.9208 3.21966 20.7801C3.07901 20.6395 2.99999 20.4487 2.99999 20.2498C2.99999 15.222 6.4228 14.3079 6.56812 14.2714C6.76118 14.2231 6.96551 14.2536 7.13614 14.356C7.30677 14.4584 7.42972 14.6244 7.47796 14.8175C7.5262 15.0105 7.49576 15.2148 7.39335 15.3855C7.29093 15.5561 7.12493 15.6791 6.93187 15.7273C6.84749 15.7507 4.82999 16.3404 4.53562 19.4642C7.65937 19.1698 8.24999 17.156 8.27437 17.0623C8.32409 16.8695 8.44838 16.7043 8.61989 16.6031C8.7914 16.5019 8.99608 16.473 9.1889 16.5228C9.38172 16.5725 9.54689 16.6968 9.64807 16.8683C9.74925 17.0398 9.77816 17.2445 9.72843 17.4373V17.4317ZM18.4472 11.1129L18 11.5601V17.0285C18.0011 17.2263 17.9629 17.4223 17.8876 17.6051C17.8122 17.7879 17.7013 17.954 17.5612 18.0935L14.3437 21.3092C14.205 21.4489 14.0399 21.5598 13.8581 21.6354C13.6763 21.7111 13.4813 21.7499 13.2844 21.7498C13.1218 21.7498 12.9604 21.7235 12.8062 21.672C12.5416 21.5844 12.3067 21.4246 12.1281 21.2106C11.9495 20.9965 11.8343 20.7368 11.7956 20.4607L11.2922 16.8523L7.14749 12.7076L3.54093 12.2042C3.2645 12.1654 3.00437 12.0503 2.78981 11.8717C2.57524 11.6932 2.41476 11.4583 2.3264 11.1935C2.23804 10.9287 2.22532 10.6446 2.28966 10.3729C2.35401 10.1013 2.49286 9.85305 2.69062 9.65605L5.90624 6.43855C6.04581 6.29847 6.21185 6.18755 6.39468 6.11222C6.57751 6.0369 6.7735 5.99869 6.97124 5.9998H12.4397L12.8869 5.55261C15.3881 3.0523 18.4022 2.94449 19.5816 3.0148C19.9472 3.03702 20.2922 3.19232 20.5512 3.45138C20.8103 3.71044 20.9656 4.05536 20.9878 4.42105C21.0562 5.59761 20.9484 8.61167 18.4481 11.1129H18.4472ZM3.74999 10.7192L7.2328 11.2048L10.9397 7.4998H6.97124L3.74999 10.7192ZM8.56124 11.9998L12 15.4385L17.3859 10.0526C18.1118 9.33167 18.6749 8.46372 19.0374 7.50708C19.4 6.55044 19.5535 5.52728 19.4878 4.50636C18.4674 4.44303 17.4453 4.59818 16.4896 4.96145C15.534 5.32472 14.6669 5.88775 13.9462 6.61292L8.56124 11.9998ZM16.5 13.0601L12.7941 16.766L13.2816 20.2498L16.5 17.0285V13.0601Z" fill="#198754"/>
</svg>
