<svg width="40" height="40" viewBox="0 0 40 40" fill="none" xmlns="http://www.w3.org/2000/svg">
<path opacity="0.2" d="M20 20.1705V36.2502C19.7901 36.2493 19.5837 36.1956 19.4 36.0939L5.65 28.5658C5.45366 28.4584 5.28977 28.3002 5.17543 28.1078C5.06109 27.9154 5.00051 27.6959 5 27.4721V12.5283C5.0005 12.3533 5.03776 12.1803 5.10938 12.0205L20 20.1705Z" fill="#8B3DFF"/>
<path d="M34.95 10.3358L21.2 2.81241C20.8326 2.60941 20.4197 2.50293 20 2.50293C19.5803 2.50293 19.1674 2.60941 18.8 2.81241L5.05 10.339C4.65733 10.5538 4.32954 10.8702 4.10086 11.2549C3.87219 11.6397 3.75102 12.0789 3.75 12.5265V27.4702C3.75102 27.9178 3.87219 28.357 4.10086 28.7417C4.32954 29.1265 4.65733 29.4429 5.05 29.6577L18.8 37.1843C19.1674 37.3873 19.5803 37.4938 20 37.4938C20.4197 37.4938 20.8326 37.3873 21.2 37.1843L34.95 29.6577C35.3427 29.4429 35.6705 29.1265 35.8991 28.7417C36.1278 28.357 36.249 27.9178 36.25 27.4702V12.528C36.2498 12.0796 36.129 11.6395 35.9003 11.2538C35.6716 10.8681 35.3434 10.5511 34.95 10.3358ZM20 4.99991L32.5531 11.8749L27.9016 14.4218L15.3469 7.54678L20 4.99991ZM20 18.7499L7.44687 11.8749L12.7437 8.97491L25.2969 15.8499L20 18.7499ZM6.25 14.0624L18.75 20.903V34.3077L6.25 27.4718V14.0624ZM33.75 27.4655L21.25 34.3077V20.9093L26.25 18.1733V23.7499C26.25 24.0814 26.3817 24.3994 26.6161 24.6338C26.8505 24.8682 27.1685 24.9999 27.5 24.9999C27.8315 24.9999 28.1495 24.8682 28.3839 24.6338C28.6183 24.3994 28.75 24.0814 28.75 23.7499V16.8046L33.75 14.0624V27.464V27.4655Z" fill="#8B3DFF"/>
</svg>
