<svg width="56" height="56" viewBox="0 0 56 56" fill="none" xmlns="http://www.w3.org/2000/svg">
<path d="M0 16C0 7.16344 7.16344 0 16 0H32C40.8366 0 48 7.16344 48 16V32C48 40.8366 40.8366 48 32 48H16C7.16344 48 0 40.8366 0 32V16Z" fill="#FFC107" fill-opacity="0.25"/>
<path opacity="0.2" d="M49.75 26L47.85 36.4469C47.7453 37.0229 47.4418 37.544 46.9924 37.9192C46.543 38.2944 45.9761 38.4999 45.3906 38.5H25.7734L23.5 26H49.75Z" fill="#8B3DFF"/>
<path d="M50.7094 25.1984C50.592 25.058 50.4453 24.9451 50.2795 24.8676C50.1137 24.7901 49.933 24.75 49.75 24.75H24.5437L23.7797 20.5531C23.675 19.9771 23.3715 19.456 22.9221 19.0808C22.4726 18.7056 21.9058 18.5001 21.3203 18.5H18.5C18.1685 18.5 17.8505 18.6317 17.6161 18.8661C17.3817 19.1005 17.25 19.4185 17.25 19.75C17.25 20.0815 17.3817 20.3995 17.6161 20.6339C17.8505 20.8683 18.1685 21 18.5 21H21.3125L25.3062 42.9203C25.4239 43.5704 25.7112 44.1779 26.1391 44.6812C25.5485 45.2328 25.1223 45.9372 24.9076 46.7163C24.6929 47.4953 24.6982 48.3186 24.9229 49.0948C25.1475 49.871 25.5828 50.5699 26.1804 51.1139C26.7779 51.6578 27.5145 52.0256 28.3084 52.1766C29.1022 52.3275 29.9224 52.2555 30.6779 51.9688C31.4334 51.682 32.0947 51.1916 32.5885 50.552C33.0823 49.9123 33.3893 49.1484 33.4755 48.3449C33.5616 47.5414 33.4235 46.7298 33.0766 46H40.1734C39.8938 46.5854 39.7491 47.2262 39.75 47.875C39.75 48.7403 40.0066 49.5862 40.4873 50.3056C40.9681 51.0251 41.6513 51.5858 42.4508 51.917C43.2502 52.2481 44.1298 52.3347 44.9785 52.1659C45.8272 51.9971 46.6067 51.5804 47.2186 50.9686C47.8304 50.3567 48.2471 49.5772 48.4159 48.7285C48.5847 47.8799 48.4981 47.0002 48.167 46.2008C47.8358 45.4013 47.2751 44.7181 46.5556 44.2373C45.8362 43.7566 44.9903 43.5 44.125 43.5H28.9953C28.7026 43.5 28.4191 43.3972 28.1944 43.2096C27.9697 43.022 27.818 42.7615 27.7656 42.4734L27.2703 39.75H45.3953C46.2735 39.7499 47.1238 39.4415 47.798 38.8787C48.4721 38.3159 48.9274 37.5344 49.0844 36.6703L50.9844 26.2234C51.0165 26.0429 51.0086 25.8574 50.961 25.6803C50.9135 25.5032 50.8276 25.3387 50.7094 25.1984ZM31 47.875C31 48.2458 30.89 48.6084 30.684 48.9167C30.478 49.225 30.1851 49.4654 29.8425 49.6073C29.4999 49.7492 29.1229 49.7863 28.7592 49.714C28.3955 49.6416 28.0614 49.463 27.7992 49.2008C27.537 48.9386 27.3584 48.6045 27.286 48.2408C27.2137 47.8771 27.2508 47.5001 27.3927 47.1575C27.5346 46.8149 27.775 46.522 28.0833 46.316C28.3916 46.11 28.7542 46 29.125 46C29.6223 46 30.0992 46.1975 30.4508 46.5492C30.8025 46.9008 31 47.3777 31 47.875ZM46 47.875C46 48.2458 45.89 48.6084 45.684 48.9167C45.478 49.225 45.1851 49.4654 44.8425 49.6073C44.4999 49.7492 44.1229 49.7863 43.7592 49.714C43.3955 49.6416 43.0614 49.463 42.7992 49.2008C42.5369 48.9386 42.3584 48.6045 42.286 48.2408C42.2137 47.8771 42.2508 47.5001 42.3927 47.1575C42.5346 46.8149 42.775 46.522 43.0833 46.316C43.3916 46.11 43.7542 46 44.125 46C44.6223 46 45.0992 46.1975 45.4508 46.5492C45.8025 46.9008 46 47.3777 46 47.875ZM46.625 36.2234C46.5725 36.5122 46.4201 36.7734 46.1944 36.9611C45.9687 37.1488 45.6842 37.2511 45.3906 37.25H26.8156L24.9984 27.25H48.2516L46.625 36.2234Z" fill="#8B3DFF"/>
</svg>
