<svg width="84" height="33" viewBox="0 0 84 33" fill="none" xmlns="http://www.w3.org/2000/svg">
<path d="M4.52905 4.89074L0.529054 7.02616C0.203389 7.20001 0 7.53915 0 7.90832V23.457C0 23.8105 0.186644 24.1377 0.490914 24.3177L8.04595 28.7863C8.37599 28.9815 8.78858 28.9708 9.10805 28.7587L12.7165 26.3636C13.3198 25.9632 13.3108 25.0742 12.6994 24.6862L6.46409 20.7282C6.17509 20.5447 6 20.2262 6 19.8839V5.7729C6 5.0178 5.19517 4.53513 4.52905 4.89074Z" fill="#8B3DFF"/>
<path d="M15.53 13.8117L9.53 10.0617C8.86395 9.64544 8 10.1243 8 10.9097V15.2149C8 15.5758 8.19443 15.9087 8.50875 16.0859L10.3511 17.125C10.6654 17.3023 10.8598 17.6351 10.8598 17.996V20.0323C10.8598 20.3609 11.0213 20.6685 11.2917 20.8552L14.4319 23.023C15.0952 23.4809 16 23.0061 16 22.2V14.6597C16 14.3149 15.8224 13.9945 15.53 13.8117Z" fill="#8B3DFF"/>
<path d="M22.776 25.6055V8.25347H29.388C31.74 8.25347 33.468 8.64547 34.572 9.42947C35.676 10.2135 36.228 11.3455 36.228 12.8255C36.228 13.6495 36.016 14.3775 35.592 15.0095C35.176 15.6335 34.42 16.1975 33.324 16.7015C34.06 16.9015 34.648 17.1655 35.088 17.4935C35.536 17.8215 35.868 18.1775 36.084 18.5615C36.308 18.9455 36.456 19.3375 36.528 19.7375C36.6 20.1375 36.636 20.5215 36.636 20.8895C36.636 22.4975 36.096 23.6855 35.016 24.4535C33.936 25.2215 32.172 25.6055 29.724 25.6055H22.776ZM26.868 22.4975H29.856C30.72 22.4975 31.372 22.3015 31.812 21.9095C32.26 21.5095 32.484 21.0175 32.484 20.4335C32.484 20.0175 32.376 19.6615 32.16 19.3655C31.952 19.0615 31.66 18.8295 31.284 18.6695C30.916 18.5015 30.488 18.4175 30 18.4175H26.868V22.4975ZM26.868 15.2255H30C30.328 15.2255 30.628 15.1855 30.9 15.1055C31.172 15.0255 31.412 14.9055 31.62 14.7455C31.828 14.5855 31.992 14.3895 32.112 14.1575C32.232 13.9175 32.292 13.6455 32.292 13.3415C32.292 12.7095 32.056 12.2215 31.584 11.8775C31.112 11.5335 30.52 11.3615 29.808 11.3615H26.868V15.2255ZM42.5618 25.8455C41.5298 25.8455 40.7178 25.7295 40.1258 25.4975C39.5417 25.2655 39.1137 24.9655 38.8417 24.5975C38.5697 24.2215 38.3977 23.8055 38.3257 23.3495C38.2617 22.8935 38.2297 22.4415 38.2297 21.9935V7.77347H42.2257V21.4655C42.2257 21.8415 42.3137 22.1695 42.4898 22.4495C42.6657 22.7215 43.0457 22.8935 43.6298 22.9655L44.1698 23.0015V25.5095C43.9138 25.5975 43.6498 25.6735 43.3778 25.7375C43.1058 25.8095 42.8338 25.8455 42.5618 25.8455ZM50.9631 25.8455C49.7151 25.8455 48.6311 25.5815 47.7111 25.0535C46.7911 24.5175 46.0751 23.7735 45.5631 22.8215C45.0591 21.8615 44.8071 20.7455 44.8071 19.4735C44.8071 18.1775 45.0631 17.0415 45.5751 16.0655C46.0951 15.0815 46.8191 14.3175 47.7471 13.7735C48.6751 13.2295 49.7511 12.9575 50.9751 12.9575C52.2391 12.9575 53.3271 13.2335 54.2391 13.7855C55.1591 14.3295 55.8671 15.0935 56.3631 16.0775C56.8591 17.0535 57.1071 18.1855 57.1071 19.4735C57.1071 20.7135 56.8591 21.8135 56.3631 22.7735C55.8751 23.7255 55.1711 24.4775 54.2511 25.0295C53.3311 25.5735 52.2351 25.8455 50.9631 25.8455ZM50.9751 22.8455C51.5351 22.8455 51.9711 22.6735 52.2831 22.3295C52.5951 21.9775 52.8151 21.5335 52.9431 20.9975C53.0711 20.4535 53.1351 19.9015 53.1351 19.3415C53.1351 18.7895 53.0751 18.2495 52.9551 17.7215C52.8351 17.1935 52.6191 16.7615 52.3071 16.4255C51.9951 16.0815 51.5511 15.9095 50.9751 15.9095C50.4151 15.9095 49.9751 16.0775 49.6551 16.4135C49.3431 16.7415 49.1191 17.1695 48.9831 17.6975C48.8551 18.2175 48.7911 18.7655 48.7911 19.3415C48.7911 19.8855 48.8511 20.4295 48.9711 20.9735C49.0991 21.5095 49.3191 21.9575 49.6311 22.3175C49.9511 22.6695 50.3991 22.8455 50.9751 22.8455ZM63.9534 12.9575C65.0494 12.9575 65.9894 13.1895 66.7734 13.6535C67.5574 14.1095 68.1614 14.7215 68.5854 15.4895C69.0174 16.2495 69.2534 17.0815 69.2934 17.9855H65.9334C65.8934 17.7055 65.8014 17.4135 65.6574 17.1095C65.5214 16.8055 65.3174 16.5495 65.0454 16.3415C64.7734 16.1255 64.4174 16.0175 63.9774 16.0175C63.2654 16.0175 62.6894 16.3015 62.2494 16.8695C61.8174 17.4295 61.6014 18.2775 61.6014 19.4135C61.6014 20.5335 61.8254 21.4095 62.2734 22.0415C62.7214 22.6735 63.3174 22.9895 64.0614 22.9895C64.4934 22.9895 64.8414 22.8735 65.1054 22.6415C65.3774 22.4095 65.5814 22.1415 65.7174 21.8375C65.8534 21.5335 65.9414 21.2655 65.9814 21.0335H69.2334C69.2094 21.9055 68.9774 22.7055 68.5374 23.4335C68.1054 24.1615 67.5014 24.7455 66.7254 25.1855C65.9494 25.6255 65.0254 25.8455 63.9534 25.8455C62.7854 25.8455 61.7374 25.5855 60.8094 25.0655C59.8894 24.5375 59.1614 23.7935 58.6254 22.8335C58.0894 21.8735 57.8214 20.7495 57.8214 19.4615C57.8214 18.1735 58.0814 17.0455 58.6014 16.0775C59.1214 15.1015 59.8414 14.3375 60.7614 13.7855C61.6894 13.2335 62.7534 12.9575 63.9534 12.9575ZM83.1904 25.6055H79.1824L76.0624 20.6495L74.7904 22.0535V25.6055H70.7104V7.77347H74.7904V17.8535L78.7744 13.1975H83.0944L78.5824 18.2375L83.1904 25.6055Z" fill="white"/>
</svg>
