<svg width="119" height="64" viewBox="0 0 119 64" fill="none" xmlns="http://www.w3.org/2000/svg">
<path d="M18.5191 30.7786L1.05347 63.7252L116.182 61.7405L114.656 4.58008L90.4425 23.6335L62.5803 15.6946L42.015 36.7328L18.5191 30.7786Z" fill="url(#paint0_linear_2198_942)"/>
<path d="M0.317742 61.1917C0.0145032 61.7753 0.241784 62.4942 0.825388 62.7974C1.40899 63.1007 2.12792 62.8734 2.43116 62.2898L0.317742 61.1917ZM18.1408 29.4728L18.4351 28.3189L17.5196 28.0854L17.0841 28.9237L18.1408 29.4728ZM41.939 35.5422L41.6447 36.6961L42.3069 36.8649L42.7868 36.3785L41.939 35.5422ZM62.4784 14.7217L62.7961 13.5741L62.1219 13.3874L61.6306 13.8854L62.4784 14.7217ZM90.3666 22.4429L90.0488 23.5906L90.628 23.7509L91.101 23.3803L90.3666 22.4429ZM118.739 0.213867L105.125 2.14612L113.605 12.9702L118.739 0.213867ZM2.43116 62.2898L19.1975 30.0218L17.0841 28.9237L0.317742 61.1917L2.43116 62.2898ZM17.8465 30.6267L41.6447 36.6961L42.2333 34.3883L18.4351 28.3189L17.8465 30.6267ZM42.7868 36.3785L63.3262 15.558L61.6306 13.8854L41.0913 34.7058L42.7868 36.3785ZM62.1607 15.8694L90.0488 23.5906L90.6843 21.2952L62.7961 13.5741L62.1607 15.8694ZM91.101 23.3803L111.037 7.76115L109.568 5.88636L89.6321 21.5055L91.101 23.3803Z" fill="#198754"/>
<defs>
<linearGradient id="paint0_linear_2198_942" x1="56.3051" y1="4.97703" x2="64.641" y2="49.0381" gradientUnits="userSpaceOnUse">
<stop stop-color="#198754"/>
<stop offset="0.963056" stop-color="white" stop-opacity="0.3"/>
</linearGradient>
</defs>
</svg>
