<svg width="40" height="40" viewBox="0 0 40 40" fill="none" xmlns="http://www.w3.org/2000/svg">
<path opacity="0.2" d="M38.611 12.3078L35.6001 18.0594C35.486 18.2701 35.3165 18.4458 35.1101 18.5674C34.9036 18.6891 34.6679 18.7522 34.4282 18.75H30.0001V6.25L38.0907 10.6641C38.3775 10.8133 38.5933 11.0702 38.6908 11.3783C38.7884 11.6865 38.7597 12.0208 38.611 12.3078ZM1.38915 12.3078L4.40009 18.0594C4.51423 18.2701 4.68364 18.4458 4.89012 18.5674C5.09659 18.6891 5.33232 18.7522 5.57197 18.75H10.0001V6.25L1.90947 10.6641C1.62272 10.8133 1.40689 11.0702 1.30934 11.3783C1.21179 11.6865 1.24049 12.0208 1.38915 12.3078Z" fill="#9E1A3F"/>
<path d="M38.686 9.56563L30.5985 5.15625C30.4153 5.05486 30.2095 5.00113 30.0001 5H25.0001C24.6685 5 24.3506 5.1317 24.1162 5.36612C23.8818 5.60054 23.7501 5.91848 23.7501 6.25C23.7501 7.24456 23.355 8.19839 22.6517 8.90165C21.9484 9.60491 20.9946 10 20.0001 10C19.0055 10 18.0517 9.60491 17.3484 8.90165C16.6451 8.19839 16.2501 7.24456 16.2501 6.25C16.2501 5.91848 16.1184 5.60054 15.8839 5.36612C15.6495 5.1317 15.3316 5 15.0001 5H10.0001C9.79011 5.00087 9.58376 5.05461 9.40006 5.15625L1.31412 9.56563C0.737718 9.87024 0.305631 10.391 0.112607 11.0137C-0.0804171 11.6364 -0.0186248 12.3103 0.284435 12.8875L3.29537 18.6391C3.5143 19.0526 3.84246 19.3981 4.24414 19.6381C4.64581 19.878 5.10562 20.0032 5.5735 20H8.75006V32.5C8.75006 33.163 9.01345 33.7989 9.48229 34.2678C9.95113 34.7366 10.587 35 11.2501 35H28.7501C29.4131 35 30.049 34.7366 30.5178 34.2678C30.9867 33.7989 31.2501 33.163 31.2501 32.5V20H34.4282C34.8961 20.0032 35.3559 19.878 35.7575 19.6381C36.1592 19.3981 36.4874 19.0526 36.7063 18.6391L39.7172 12.8875C40.0202 12.3101 40.0817 11.6361 39.8884 11.0134C39.6951 10.3906 39.2627 9.86997 38.686 9.56563ZM5.5735 17.5C5.5504 17.5011 5.52768 17.4939 5.50943 17.4797L2.51412 11.7594L8.75006 8.35625V17.5H5.5735ZM28.7501 32.5H11.2501V7.5H13.8751C14.1635 8.91118 14.9304 10.1794 16.0462 11.0903C17.162 12.0011 18.5581 12.4986 19.9985 12.4986C21.4388 12.4986 22.835 12.0011 23.9508 11.0903C25.0666 10.1794 25.8335 8.91118 26.1219 7.5H28.7501V32.5ZM34.4922 17.4781C34.4836 17.4859 34.4735 17.4919 34.4625 17.4956C34.4514 17.4994 34.4398 17.5009 34.4282 17.5H31.2501V8.35625L37.4876 11.7594L34.4922 17.4781Z" fill="#9E1A3F"/>
</svg>
