<svg width="56" height="56" viewBox="0 0 56 56" fill="none" xmlns="http://www.w3.org/2000/svg">
<path d="M0 16C0 7.16344 7.16344 0 16 0H32C40.8366 0 48 7.16344 48 16V32C48 40.8366 40.8366 48 32 48H16C7.16344 48 0 40.8366 0 32V16Z" fill="#FFC107" fill-opacity="0.25"/>
<path opacity="0.2" d="M50 18.5V47H14V17H48.5C48.8978 17 49.2794 17.158 49.5607 17.4393C49.842 17.7206 50 18.1022 50 18.5Z" fill="#8B3DFF"/>
<path d="M51.5 47C51.5 47.3978 51.342 47.7794 51.0607 48.0607C50.7794 48.342 50.3978 48.5 50 48.5H14C13.6022 48.5 13.2206 48.342 12.9393 48.0607C12.658 47.7794 12.5 47.3978 12.5 47V17C12.5 16.6022 12.658 16.2206 12.9393 15.9393C13.2206 15.658 13.6022 15.5 14 15.5C14.3978 15.5 14.7794 15.658 15.0607 15.9393C15.342 16.2206 15.5 16.6022 15.5 17V37.3794L24.9387 27.9387C25.0781 27.7993 25.2435 27.6886 25.4256 27.6132C25.6077 27.5377 25.8029 27.4988 26 27.4988C26.1971 27.4988 26.3923 27.5377 26.5744 27.6132C26.7565 27.6886 26.9219 27.7993 27.0613 27.9387L32 32.8794L41.8794 23H38C37.6022 23 37.2206 22.842 36.9393 22.5607C36.658 22.2794 36.5 21.8978 36.5 21.5C36.5 21.1022 36.658 20.7206 36.9393 20.4393C37.2206 20.158 37.6022 20 38 20H45.5C45.8978 20 46.2794 20.158 46.5607 20.4393C46.842 20.7206 47 21.1022 47 21.5V29C47 29.3978 46.842 29.7794 46.5607 30.0607C46.2794 30.342 45.8978 30.5 45.5 30.5C45.1022 30.5 44.7206 30.342 44.4393 30.0607C44.158 29.7794 44 29.3978 44 29V25.1206L33.0613 36.0613C32.9219 36.2007 32.7565 36.3114 32.5744 36.3868C32.3923 36.4623 32.1971 36.5012 32 36.5012C31.8029 36.5012 31.6077 36.4623 31.4256 36.3868C31.2435 36.3114 31.0781 36.2007 30.9387 36.0613L26 31.1206L15.5 41.6206V45.5H50C50.3978 45.5 50.7794 45.658 51.0607 45.9393C51.342 46.2206 51.5 46.6022 51.5 47Z" fill="#8B3DFF"/>
</svg>
