<svg width="56" height="56" viewBox="0 0 56 56" fill="none" xmlns="http://www.w3.org/2000/svg">
<path d="M0 16C0 7.16344 7.16344 0 16 0H32C40.8366 0 48 7.16344 48 16V32C48 40.8366 40.8366 48 32 48H16C7.16344 48 0 40.8366 0 32V16Z" fill="#FFC107" fill-opacity="0.25"/>
<path opacity="0.2" d="M48.8031 33.8029L33.8031 48.8029C32.3928 50.1905 30.4912 50.9646 28.5127 50.9565C26.5341 50.9485 24.639 50.1589 23.2399 48.7599C21.8409 47.3608 21.0513 45.4657 21.0433 43.4871C21.0352 41.5086 21.8093 39.607 23.1969 38.1967L38.1969 23.1967C39.6073 21.8091 41.5088 21.035 43.4874 21.043C45.4659 21.0511 47.3611 21.8406 48.7601 23.2397C50.1592 24.6387 50.9487 26.5339 50.9568 28.5124C50.9648 30.491 50.1907 32.3925 48.8031 33.8029Z" fill="#8B3DFF"/>
<path d="M41.8843 30.1153C42.0006 30.2314 42.0928 30.3692 42.1557 30.521C42.2186 30.6727 42.2509 30.8354 42.2509 30.9997C42.2509 31.1639 42.2186 31.3266 42.1557 31.4783C42.0928 31.6301 42.0006 31.7679 41.8843 31.884L31.8843 41.884C31.7682 42.0002 31.6303 42.0923 31.4786 42.1551C31.3268 42.218 31.1642 42.2503 31 42.2503C30.8357 42.2503 30.6731 42.218 30.5213 42.1551C30.3696 42.0923 30.2317 42.0002 30.1156 41.884C29.9994 41.7679 29.9073 41.63 29.8445 41.4783C29.7816 41.3265 29.7493 41.1639 29.7493 40.9997C29.7493 40.8354 29.7816 40.6728 29.8445 40.521C29.9073 40.3693 29.9994 40.2314 30.1156 40.1153L40.1156 30.1153C40.2317 29.9991 40.3695 29.9069 40.5213 29.844C40.673 29.781 40.8357 29.7487 41 29.7487C41.1642 29.7487 41.3269 29.781 41.4786 29.844C41.6304 29.9069 41.7682 29.9991 41.8843 30.1153ZM49.6875 22.3122C48.8749 21.4995 47.9103 20.8549 46.8486 20.4152C45.787 19.9754 44.6491 19.749 43.5 19.749C42.3508 19.749 41.2129 19.9754 40.1513 20.4152C39.0896 20.8549 38.125 21.4995 37.3125 22.3122L32.6156 27.0075C32.381 27.242 32.2493 27.5601 32.2493 27.8918C32.2493 28.2235 32.381 28.5417 32.6156 28.7762C32.8501 29.0108 33.1683 29.1425 33.5 29.1425C33.8317 29.1425 34.1498 29.0108 34.3843 28.7762L39.0812 24.0887C40.2576 22.9382 41.8402 22.298 43.4857 22.307C45.1312 22.3161 46.7067 22.9737 47.8703 24.1371C49.0339 25.3006 49.6918 26.8759 49.7012 28.5214C49.7105 30.1669 49.0706 31.7496 47.9203 32.9262L43.2218 37.6231C42.9873 37.8574 42.8554 38.1754 42.8553 38.5069C42.8551 38.8385 42.9867 39.1565 43.221 39.3911C43.4554 39.6256 43.7733 39.7575 44.1049 39.7576C44.4364 39.7578 44.7545 39.6262 44.989 39.3918L49.6875 34.6872C50.5001 33.8746 51.1447 32.91 51.5844 31.8483C52.0242 30.7867 52.2506 29.6488 52.2506 28.4997C52.2506 27.3505 52.0242 26.2126 51.5844 25.151C51.1447 24.0893 50.5001 23.1247 49.6875 22.3122ZM37.6156 43.2215L32.9187 47.9184C32.3407 48.5094 31.6512 48.9798 30.8901 49.3025C30.1291 49.6252 29.3116 49.7937 28.4849 49.7982C27.6583 49.8028 26.839 49.6433 26.0744 49.329C25.3098 49.0148 24.6152 48.5519 24.0307 47.9673C23.4462 47.3828 22.9835 46.6881 22.6694 45.9234C22.3552 45.1588 22.1959 44.3394 22.2006 43.5128C22.2053 42.6862 22.3739 41.8687 22.6967 41.1077C23.0196 40.3467 23.4901 39.6572 24.0812 39.0793L28.7765 34.384C29.0111 34.1495 29.1428 33.8314 29.1428 33.4997C29.1428 33.1679 29.0111 32.8498 28.7765 32.6153C28.542 32.3807 28.2238 32.249 27.8921 32.249C27.5604 32.249 27.2423 32.3807 27.0078 32.6153L22.3125 37.3122C20.6714 38.9532 19.7495 41.1789 19.7495 43.4997C19.7495 45.8204 20.6714 48.0461 22.3125 49.6872C23.9535 51.3282 26.1792 52.2501 28.5 52.2501C30.8207 52.2501 33.0464 51.3282 34.6875 49.6872L39.3843 44.9887C39.6187 44.7542 39.7502 44.4361 39.7501 44.1046C39.75 43.773 39.6181 43.4551 39.3835 43.2207C39.149 42.9864 38.831 42.8548 38.4994 42.855C38.1678 42.8551 37.8499 42.987 37.6156 43.2215Z" fill="#8B3DFF"/>
</svg>
