<svg width="56" height="56" viewBox="0 0 56 56" fill="none" xmlns="http://www.w3.org/2000/svg">
<path d="M0 16C0 7.16344 7.16344 0 16 0H32C40.8366 0 48 7.16344 48 16V32C48 40.8366 40.8366 48 32 48H16C7.16344 48 0 40.8366 0 32V16Z" fill="#FFC107" fill-opacity="0.25"/>
<path opacity="0.2" d="M48.5 34.125V39.75C48.5 41.3915 48.1767 43.017 47.5485 44.5335C46.9203 46.0501 45.9996 47.4281 44.8389 48.5888C43.6781 49.7496 42.3001 50.6703 40.7836 51.2985C39.267 51.9267 37.6415 52.25 36 52.25C29.0969 52.25 27.2797 48.5 21.4188 38.1875C21.0109 37.4701 20.9033 36.6206 21.1196 35.8242C21.3358 35.0278 21.8582 34.3493 22.5728 33.9366C23.2875 33.524 24.1363 33.4108 24.9341 33.6218C25.7319 33.8327 26.4139 34.3506 26.8313 35.0625L29.75 39.75V22.875C29.75 22.0462 30.0793 21.2513 30.6653 20.6653C31.2514 20.0792 32.0462 19.75 32.875 19.75C33.7038 19.75 34.4987 20.0792 35.0847 20.6653C35.6708 21.2513 36 22.0462 36 22.875V31.625C36 30.7962 36.3293 30.0013 36.9153 29.4153C37.5014 28.8292 38.2962 28.5 39.125 28.5C39.9538 28.5 40.7487 28.8292 41.3347 29.4153C41.9208 30.0013 42.25 30.7962 42.25 31.625V34.125C42.25 33.2962 42.5793 32.5013 43.1653 31.9153C43.7514 31.3292 44.5462 31 45.375 31C46.2038 31 46.9987 31.3292 47.5847 31.9153C48.1708 32.5013 48.5 33.2962 48.5 34.125Z" fill="#8B3DFF"/>
<path d="M45.375 29.75C44.6463 29.7492 43.9291 29.9313 43.2891 30.2797C43.0977 29.6871 42.782 29.1423 42.3632 28.6815C41.9443 28.2207 41.4319 27.8547 40.8603 27.6078C40.2886 27.361 39.6708 27.239 39.0482 27.25C38.4256 27.2611 37.8126 27.4049 37.25 27.6719V22.875C37.25 21.7147 36.7891 20.6019 35.9686 19.7814C35.1481 18.9609 34.0353 18.5 32.875 18.5C31.7147 18.5 30.6019 18.9609 29.7814 19.7814C28.9609 20.6019 28.5 21.7147 28.5 22.875V35.375L27.9031 34.4172C27.6145 33.9201 27.2309 33.4848 26.774 33.136C26.3171 32.7872 25.7961 32.5318 25.2405 32.3844C24.1185 32.0866 22.9242 32.2468 21.9203 32.8297C20.9164 33.4125 20.1852 34.3703 19.8875 35.4923C19.5898 36.6143 19.75 37.8086 20.3328 38.8125L21.0625 40.0984C26.4391 49.5766 28.6641 53.5 36 53.5C39.6455 53.4959 43.1404 52.0459 45.7182 49.4682C48.2959 46.8904 49.7459 43.3955 49.75 39.75V34.125C49.75 32.9647 49.2891 31.8519 48.4686 31.0314C47.6481 30.2109 46.5353 29.75 45.375 29.75ZM47.25 39.75C47.2467 42.7327 46.0604 45.5922 43.9513 47.7013C41.8422 49.8104 38.9827 50.9967 36 51C30.1203 51 28.525 48.1875 23.2375 38.8625L22.5047 37.5703V37.5625C22.2559 37.1323 22.188 36.6209 22.3161 36.1407C22.4441 35.6605 22.7575 35.2508 23.1875 35.0016C23.4723 34.8366 23.7959 34.7503 24.125 34.7516C24.4546 34.7511 24.7785 34.8375 25.0641 35.0021C25.3496 35.1667 25.5868 35.4036 25.7516 35.6891C25.7579 35.7016 25.7653 35.7136 25.7735 35.725L28.6906 40.4125C28.8346 40.6424 29.0494 40.8192 29.3027 40.9162C29.556 41.0133 29.834 41.0253 30.0947 40.9505C30.3554 40.8757 30.5847 40.7182 30.7481 40.5016C30.9114 40.285 30.9998 40.0212 31 39.75V22.875C31 22.3777 31.1976 21.9008 31.5492 21.5492C31.9008 21.1975 32.3777 21 32.875 21C33.3723 21 33.8492 21.1975 34.2008 21.5492C34.5525 21.9008 34.75 22.3777 34.75 22.875V33.5C34.75 33.8315 34.8817 34.1495 35.1161 34.3839C35.3505 34.6183 35.6685 34.75 36 34.75C36.3315 34.75 36.6495 34.6183 36.8839 34.3839C37.1183 34.1495 37.25 33.8315 37.25 33.5V31.625C37.25 31.1277 37.4476 30.6508 37.7992 30.2992C38.1508 29.9475 38.6277 29.75 39.125 29.75C39.6223 29.75 40.0992 29.9475 40.4508 30.2992C40.8025 30.6508 41 31.1277 41 31.625V34.75C41 35.0815 41.1317 35.3995 41.3661 35.6339C41.6005 35.8683 41.9185 36 42.25 36C42.5815 36 42.8995 35.8683 43.1339 35.6339C43.3683 35.3995 43.5 35.0815 43.5 34.75V34.125C43.5 33.6277 43.6976 33.1508 44.0492 32.7992C44.4008 32.4475 44.8777 32.25 45.375 32.25C45.8723 32.25 46.3492 32.4475 46.7008 32.7992C47.0525 33.1508 47.25 33.6277 47.25 34.125V39.75Z" fill="#8B3DFF"/>
</svg>
