<svg width="56" height="56" viewBox="0 0 56 56" fill="none" xmlns="http://www.w3.org/2000/svg">
<path d="M0 16C0 7.16344 7.16344 0 16 0H32C40.8366 0 48 7.16344 48 16V32C48 40.8366 40.8366 48 32 48H16C7.16344 48 0 40.8366 0 32V16Z" fill="#FFC107" fill-opacity="0.25"/>
<path opacity="0.2" d="M44 29C44 31.9667 43.1203 34.8668 41.4721 37.3336C39.8238 39.8003 37.4812 41.7229 34.7403 42.8582C31.9994 43.9935 28.9834 44.2906 26.0737 43.7118C23.1639 43.133 20.4912 41.7044 18.3934 39.6066C16.2956 37.5088 14.867 34.8361 14.2882 31.9264C13.7094 29.0166 14.0065 26.0006 15.1418 23.2597C16.2771 20.5189 18.1997 18.1762 20.6665 16.528C23.1332 14.8797 26.0333 14 29 14C30.9698 14 32.9204 14.388 34.7403 15.1418C36.5601 15.8956 38.2137 17.0005 39.6066 18.3934C40.9995 19.7863 42.1044 21.4399 42.8582 23.2597C43.612 25.0796 44 27.0302 44 29Z" fill="#8B3DFF"/>
<path d="M51.0612 48.9392L41.675 39.553C44.4009 36.2838 45.7614 32.0895 45.4735 27.8427C45.1857 23.596 43.2716 19.6237 40.1295 16.7522C36.9874 13.8807 32.8592 12.3312 28.6038 12.426C24.3483 12.5207 20.2932 14.2525 17.2821 17.261C14.2709 20.2695 12.5356 24.323 12.4371 28.5784C12.3385 32.8338 13.8844 36.9633 16.7531 40.108C19.6218 43.2526 23.5924 45.1702 27.8389 45.4618C32.0854 45.7534 36.2809 44.3966 39.5525 41.6736L48.9387 51.0617C49.0781 51.2011 49.2436 51.3116 49.4257 51.3871C49.6077 51.4625 49.8029 51.5013 50 51.5013C50.1971 51.5013 50.3923 51.4625 50.5743 51.3871C50.7564 51.3116 50.9219 51.2011 51.0612 51.0617C51.2006 50.9224 51.3112 50.7569 51.3866 50.5748C51.462 50.3927 51.5008 50.1976 51.5008 50.0005C51.5008 49.8034 51.462 49.6082 51.3866 49.4261C51.3112 49.244 51.2006 49.0786 51.0612 48.9392ZM15.5 29.0005C15.5 26.3304 16.2918 23.7203 17.7752 21.5003C19.2586 19.2802 21.367 17.5499 23.8338 16.5281C26.3006 15.5063 29.015 15.239 31.6337 15.7599C34.2525 16.2808 36.6579 17.5665 38.5459 19.4545C40.4339 21.3426 41.7197 23.748 42.2406 26.3668C42.7615 28.9855 42.4942 31.6999 41.4724 34.1667C40.4506 36.6335 38.7203 38.7419 36.5002 40.2253C34.2801 41.7087 31.67 42.5005 29 42.5005C25.4208 42.4965 21.9893 41.0729 19.4584 38.542C16.9276 36.0112 15.504 32.5797 15.5 29.0005Z" fill="#8B3DFF"/>
</svg>
