<svg width="56" height="56" viewBox="0 0 56 56" fill="none" xmlns="http://www.w3.org/2000/svg">
<path d="M0 16C0 7.16344 7.16344 0 16 0H32C40.8366 0 48 7.16344 48 16V32C48 40.8366 40.8366 48 32 48H16C7.16344 48 0 40.8366 0 32V16Z" fill="#FFC107" fill-opacity="0.25"/>
<path opacity="0.2" d="M36 19.75C32.6848 19.75 29.5054 21.067 27.1612 23.4112C24.817 25.7554 23.5 28.9348 23.5 32.25C23.5 43.5 36 52.25 36 52.25C36 52.25 48.5 43.5 48.5 32.25C48.5 28.9348 47.183 25.7554 44.8388 23.4112C42.4946 21.067 39.3152 19.75 36 19.75ZM36 37.25C35.0111 37.25 34.0444 36.9568 33.2221 36.4073C32.3999 35.8579 31.759 35.077 31.3806 34.1634C31.0022 33.2498 30.9031 32.2445 31.0961 31.2745C31.289 30.3046 31.7652 29.4137 32.4645 28.7145C33.1637 28.0152 34.0546 27.539 35.0245 27.3461C35.9945 27.1531 36.9998 27.2522 37.9134 27.6306C38.827 28.009 39.6079 28.6499 40.1573 29.4721C40.7068 30.2944 41 31.2611 41 32.25C41 33.5761 40.4732 34.8479 39.5355 35.7855C38.5979 36.7232 37.3261 37.25 36 37.25Z" fill="#8B3DFF"/>
<path d="M36 26C34.7639 26 33.5555 26.3666 32.5277 27.0533C31.4999 27.7401 30.6988 28.7162 30.2258 29.8582C29.7527 31.0003 29.6289 32.2569 29.8701 33.4693C30.1112 34.6817 30.7065 35.7953 31.5806 36.6694C32.4547 37.5435 33.5683 38.1388 34.7807 38.3799C35.9931 38.6211 37.2497 38.4973 38.3918 38.0242C39.5338 37.5512 40.5099 36.7501 41.1967 35.7223C41.8834 34.6945 42.25 33.4861 42.25 32.25C42.25 30.5924 41.5915 29.0027 40.4194 27.8306C39.2473 26.6585 37.6576 26 36 26ZM36 36C35.2583 36 34.5333 35.7801 33.9166 35.368C33.2999 34.956 32.8193 34.3703 32.5355 33.6851C32.2516 32.9998 32.1774 32.2458 32.3221 31.5184C32.4667 30.791 32.8239 30.1228 33.3483 29.5983C33.8728 29.0739 34.541 28.7167 35.2684 28.5721C35.9958 28.4274 36.7498 28.5016 37.4351 28.7855C38.1203 29.0693 38.706 29.5499 39.118 30.1666C39.5301 30.7833 39.75 31.5083 39.75 32.25C39.75 33.2446 39.3549 34.1984 38.6517 34.9017C37.9484 35.6049 36.9946 36 36 36ZM36 18.5C32.3545 18.5041 28.8596 19.9541 26.2818 22.5318C23.7041 25.1096 22.2541 28.6045 22.25 32.25C22.25 37.1562 24.5172 42.3563 28.8125 47.2891C30.7425 49.5181 32.9148 51.5252 35.2891 53.2734C35.4992 53.4207 35.7496 53.4996 36.0062 53.4996C36.2629 53.4996 36.5133 53.4207 36.7234 53.2734C39.0934 51.5245 41.2614 49.5174 43.1875 47.2891C47.4766 42.3563 49.75 37.1562 49.75 32.25C49.7459 28.6045 48.2959 25.1096 45.7182 22.5318C43.1404 19.9541 39.6455 18.5041 36 18.5ZM36 50.6875C33.4172 48.6562 24.75 41.1953 24.75 32.25C24.75 29.2663 25.9353 26.4048 28.045 24.295C30.1548 22.1853 33.0163 21 36 21C38.9837 21 41.8452 22.1853 43.955 24.295C46.0647 26.4048 47.25 29.2663 47.25 32.25C47.25 41.1922 38.5828 48.6562 36 50.6875Z" fill="#8B3DFF"/>
</svg>
