<svg width="800" height="800" viewBox="0 0 800 800" fill="none" xmlns="http://www.w3.org/2000/svg">
<path d="M0 16C0 7.16343 7.16344 0 16 0H800V800H0V16Z" fill="#F1F5F9"/>
<path d="M57.944 97V79.648H64.328C65.592 79.648 66.724 79.868 67.724 80.308C68.724 80.74 69.512 81.38 70.088 82.228C70.672 83.076 70.964 84.112 70.964 85.336C70.964 86.488 70.708 87.472 70.196 88.288C69.684 89.104 68.964 89.728 68.036 90.16C67.116 90.592 66.032 90.808 64.784 90.808H61.472V97H57.944ZM61.436 88.096H64.688C65.568 88.096 66.288 87.816 66.848 87.256C67.408 86.688 67.688 85.988 67.688 85.156C67.688 84.292 67.392 83.608 66.8 83.104C66.208 82.592 65.488 82.336 64.64 82.336H61.436V88.096ZM72.6763 97V84.592H76.0483V87.532C76.2483 86.9 76.5283 86.348 76.8883 85.876C77.2563 85.396 77.7003 85.024 78.2203 84.76C78.7403 84.488 79.3283 84.352 79.9843 84.352C80.0963 84.352 80.2003 84.36 80.2963 84.376C80.4003 84.384 80.4763 84.4 80.5243 84.424V87.76C80.4523 87.728 80.3643 87.708 80.2603 87.7C80.1643 87.692 80.0763 87.684 79.9963 87.676C79.3083 87.62 78.7203 87.64 78.2323 87.736C77.7443 87.832 77.3483 87.996 77.0443 88.228C76.7403 88.46 76.5203 88.744 76.3843 89.08C76.2483 89.416 76.1803 89.792 76.1803 90.208V97H72.6763ZM87.2274 97.24C86.0114 97.24 84.9514 96.98 84.0474 96.46C83.1514 95.94 82.4554 95.204 81.9594 94.252C81.4714 93.3 81.2274 92.172 81.2274 90.868C81.2274 89.564 81.4714 88.424 81.9594 87.448C82.4554 86.472 83.1514 85.712 84.0474 85.168C84.9514 84.624 86.0154 84.352 87.2394 84.352C88.4634 84.352 89.5234 84.62 90.4194 85.156C91.3154 85.684 92.0074 86.436 92.4954 87.412C92.9834 88.388 93.2274 89.54 93.2274 90.868C93.2274 92.116 92.9874 93.22 92.5074 94.18C92.0354 95.132 91.3514 95.88 90.4554 96.424C89.5674 96.968 88.4914 97.24 87.2274 97.24ZM87.2394 94.636C87.8554 94.636 88.3514 94.456 88.7274 94.096C89.1034 93.736 89.3754 93.264 89.5434 92.68C89.7194 92.088 89.8074 91.444 89.8074 90.748C89.8074 90.092 89.7274 89.472 89.5674 88.888C89.4154 88.304 89.1514 87.832 88.7754 87.472C88.3994 87.112 87.8874 86.932 87.2394 86.932C86.6234 86.932 86.1234 87.104 85.7394 87.448C85.3634 87.784 85.0874 88.244 84.9114 88.828C84.7354 89.404 84.6474 90.044 84.6474 90.748C84.6474 91.396 84.7274 92.02 84.8874 92.62C85.0474 93.212 85.3154 93.696 85.6914 94.072C86.0674 94.448 86.5834 94.636 87.2394 94.636ZM99.6914 97.24C98.0274 97.24 96.7314 96.668 95.8034 95.524C94.8754 94.372 94.4114 92.772 94.4114 90.724C94.4114 89.428 94.5994 88.304 94.9754 87.352C95.3514 86.4 95.9074 85.664 96.6434 85.144C97.3794 84.616 98.2794 84.352 99.3434 84.352C99.7914 84.352 100.207 84.404 100.591 84.508C100.983 84.604 101.339 84.74 101.659 84.916C101.979 85.092 102.259 85.296 102.499 85.528C102.739 85.76 102.935 86.008 103.087 86.272V79.168H106.603V97H104.059L103.663 94.456C103.551 94.8 103.395 95.136 103.195 95.464C102.995 95.792 102.739 96.092 102.427 96.364C102.115 96.628 101.731 96.84 101.275 97C100.827 97.16 100.299 97.24 99.6914 97.24ZM100.459 94.72C101.339 94.72 101.995 94.412 102.427 93.796C102.867 93.18 103.087 92.14 103.087 90.676C103.079 89.828 102.979 89.124 102.787 88.564C102.595 88.004 102.307 87.588 101.923 87.316C101.547 87.036 101.067 86.896 100.483 86.896C99.7234 86.896 99.0914 87.188 98.5874 87.772C98.0834 88.348 97.8314 89.316 97.8314 90.676C97.8314 92.06 98.0674 93.08 98.5394 93.736C99.0114 94.392 99.6514 94.72 100.459 94.72ZM113.707 97.24C113.131 97.24 112.563 97.152 112.003 96.976C111.451 96.8 110.947 96.54 110.491 96.196C110.035 95.852 109.667 95.428 109.387 94.924C109.115 94.42 108.979 93.836 108.979 93.172V84.592H112.483V92.728C112.483 93.304 112.671 93.776 113.047 94.144C113.423 94.512 113.975 94.696 114.703 94.696C115.391 94.696 115.935 94.52 116.335 94.168C116.743 93.808 116.947 93.308 116.947 92.668V84.592H120.415V97H117.775L117.367 94.54C117.223 95.268 116.951 95.828 116.551 96.22C116.159 96.604 115.707 96.868 115.195 97.012C114.691 97.164 114.195 97.24 113.707 97.24ZM128.103 84.352C129.143 84.352 130.039 84.564 130.791 84.988C131.551 85.412 132.147 85.984 132.579 86.704C133.019 87.424 133.271 88.228 133.335 89.116H130.419C130.363 88.788 130.247 88.464 130.071 88.144C129.895 87.816 129.647 87.548 129.327 87.34C129.007 87.124 128.607 87.016 128.127 87.016C127.311 87.016 126.647 87.332 126.135 87.964C125.631 88.588 125.379 89.54 125.379 90.82C125.379 92.028 125.627 92.988 126.123 93.7C126.619 94.404 127.311 94.756 128.199 94.756C128.671 94.756 129.063 94.64 129.375 94.408C129.695 94.176 129.943 93.9 130.119 93.58C130.295 93.252 130.407 92.948 130.455 92.668H133.299C133.243 93.524 132.995 94.3 132.555 94.996C132.115 95.684 131.515 96.232 130.755 96.64C130.003 97.04 129.119 97.24 128.103 97.24C126.951 97.24 125.923 96.984 125.019 96.472C124.115 95.96 123.403 95.228 122.883 94.276C122.371 93.316 122.115 92.172 122.115 90.844C122.115 89.564 122.363 88.436 122.859 87.46C123.355 86.484 124.051 85.724 124.947 85.18C125.851 84.628 126.903 84.352 128.103 84.352ZM142.43 87.028H139.67L139.694 93.64C139.694 93.944 139.73 94.172 139.802 94.324C139.882 94.468 140.002 94.564 140.162 94.612C140.33 94.652 140.542 94.672 140.798 94.672H142.466V96.832C142.306 96.904 142.054 96.972 141.71 97.036C141.374 97.1 140.902 97.132 140.294 97.132C139.206 97.132 138.362 96.992 137.762 96.712C137.17 96.432 136.758 96.04 136.526 95.536C136.294 95.032 136.178 94.448 136.178 93.784V87.028H134.162V84.592H136.298L137.174 80.848H139.67V84.58H142.43V87.028ZM163.052 97H159.416L156.596 90.316H153.08V97H149.588V79.648H156.908C158.292 79.648 159.424 79.868 160.304 80.308C161.184 80.748 161.832 81.36 162.248 82.144C162.664 82.92 162.872 83.816 162.872 84.832C162.872 85.744 162.728 86.516 162.44 87.148C162.16 87.772 161.788 88.292 161.324 88.708C160.868 89.124 160.368 89.464 159.824 89.728L163.052 97ZM156.284 87.616C157.22 87.616 157.96 87.364 158.504 86.86C159.056 86.356 159.332 85.708 159.332 84.916C159.332 84.116 159.068 83.484 158.54 83.02C158.012 82.556 157.344 82.324 156.536 82.324H153.08V87.616H156.284ZM170.258 97.24C169.042 97.24 167.982 96.98 167.078 96.46C166.182 95.94 165.486 95.204 164.99 94.252C164.502 93.3 164.258 92.172 164.258 90.868C164.258 89.564 164.502 88.424 164.99 87.448C165.486 86.472 166.182 85.712 167.078 85.168C167.982 84.624 169.046 84.352 170.27 84.352C171.494 84.352 172.554 84.62 173.45 85.156C174.346 85.684 175.038 86.436 175.526 87.412C176.014 88.388 176.258 89.54 176.258 90.868C176.258 92.116 176.018 93.22 175.538 94.18C175.066 95.132 174.382 95.88 173.486 96.424C172.598 96.968 171.522 97.24 170.258 97.24ZM170.27 94.636C170.886 94.636 171.382 94.456 171.758 94.096C172.134 93.736 172.406 93.264 172.574 92.68C172.75 92.088 172.838 91.444 172.838 90.748C172.838 90.092 172.758 89.472 172.598 88.888C172.446 88.304 172.182 87.832 171.806 87.472C171.43 87.112 170.918 86.932 170.27 86.932C169.654 86.932 169.154 87.104 168.77 87.448C168.394 87.784 168.118 88.244 167.942 88.828C167.766 89.404 167.678 90.044 167.678 90.748C167.678 91.396 167.758 92.02 167.918 92.62C168.078 93.212 168.346 93.696 168.722 94.072C169.098 94.448 169.614 94.636 170.27 94.636ZM181.644 97.24C180.852 97.24 180.14 97.092 179.508 96.796C178.876 96.5 178.376 96.072 178.008 95.512C177.64 94.944 177.456 94.256 177.456 93.448C177.456 92.088 177.964 91.056 178.98 90.352C179.996 89.64 181.6 89.272 183.792 89.248L185.34 89.224V88.48C185.34 87.912 185.172 87.476 184.836 87.172C184.508 86.86 183.996 86.708 183.3 86.716C182.788 86.724 182.3 86.844 181.836 87.076C181.38 87.308 181.068 87.712 180.9 88.288H177.984C178.032 87.392 178.292 86.656 178.764 86.08C179.236 85.496 179.876 85.064 180.684 84.784C181.5 84.496 182.424 84.352 183.456 84.352C184.728 84.352 185.748 84.512 186.516 84.832C187.284 85.144 187.84 85.596 188.184 86.188C188.528 86.772 188.7 87.468 188.7 88.276V97H185.772L185.484 94.864C185.06 95.76 184.528 96.38 183.888 96.724C183.256 97.068 182.508 97.24 181.644 97.24ZM182.82 94.936C183.14 94.936 183.448 94.88 183.744 94.768C184.048 94.648 184.316 94.492 184.548 94.3C184.788 94.1 184.98 93.876 185.124 93.628C185.268 93.38 185.34 93.124 185.34 92.86V91.024L184.08 91.048C183.496 91.056 182.952 91.128 182.448 91.264C181.944 91.392 181.536 91.604 181.224 91.9C180.92 92.196 180.768 92.596 180.768 93.1C180.768 93.676 180.968 94.128 181.368 94.456C181.768 94.776 182.252 94.936 182.82 94.936ZM195.93 97.24C194.266 97.24 192.97 96.668 192.042 95.524C191.114 94.372 190.65 92.772 190.65 90.724C190.65 89.428 190.838 88.304 191.214 87.352C191.59 86.4 192.146 85.664 192.882 85.144C193.618 84.616 194.518 84.352 195.582 84.352C196.03 84.352 196.446 84.404 196.83 84.508C197.222 84.604 197.578 84.74 197.898 84.916C198.218 85.092 198.498 85.296 198.738 85.528C198.978 85.76 199.174 86.008 199.326 86.272V79.168H202.842V97H200.298L199.902 94.456C199.79 94.8 199.634 95.136 199.434 95.464C199.234 95.792 198.978 96.092 198.666 96.364C198.354 96.628 197.97 96.84 197.514 97C197.066 97.16 196.538 97.24 195.93 97.24ZM196.698 94.72C197.578 94.72 198.234 94.412 198.666 93.796C199.106 93.18 199.326 92.14 199.326 90.676C199.318 89.828 199.218 89.124 199.026 88.564C198.834 88.004 198.546 87.588 198.162 87.316C197.786 87.036 197.306 86.896 196.722 86.896C195.962 86.896 195.33 87.188 194.826 87.772C194.322 88.348 194.07 89.316 194.07 90.676C194.07 92.06 194.306 93.08 194.778 93.736C195.25 94.392 195.89 94.72 196.698 94.72ZM205.443 97V84.592H208.875V86.344C209.251 85.8 209.755 85.332 210.387 84.94C211.027 84.548 211.831 84.352 212.799 84.352C213.223 84.352 213.655 84.428 214.095 84.58C214.535 84.732 214.947 84.956 215.331 85.252C215.723 85.54 216.039 85.904 216.279 86.344C216.679 85.776 217.203 85.304 217.851 84.928C218.507 84.544 219.235 84.352 220.035 84.352C220.499 84.352 220.967 84.428 221.439 84.58C221.919 84.732 222.359 84.98 222.759 85.324C223.159 85.668 223.479 86.128 223.719 86.704C223.967 87.272 224.091 87.976 224.091 88.816V97H220.587V89.248C220.587 88.752 220.487 88.356 220.287 88.06C220.095 87.756 219.847 87.54 219.543 87.412C219.247 87.276 218.931 87.208 218.595 87.208C218.283 87.208 217.967 87.272 217.647 87.4C217.327 87.52 217.055 87.716 216.831 87.988C216.607 88.26 216.495 88.616 216.495 89.056V97H213.003V88.936C213.003 88.56 212.903 88.244 212.703 87.988C212.503 87.732 212.251 87.54 211.947 87.412C211.651 87.276 211.347 87.208 211.035 87.208C210.715 87.208 210.395 87.276 210.075 87.412C209.755 87.54 209.487 87.744 209.271 88.024C209.055 88.296 208.947 88.64 208.947 89.056V97H205.443ZM229.962 97.24C229.17 97.24 228.458 97.092 227.826 96.796C227.194 96.5 226.694 96.072 226.326 95.512C225.958 94.944 225.774 94.256 225.774 93.448C225.774 92.088 226.282 91.056 227.298 90.352C228.314 89.64 229.918 89.272 232.11 89.248L233.658 89.224V88.48C233.658 87.912 233.49 87.476 233.154 87.172C232.826 86.86 232.314 86.708 231.618 86.716C231.106 86.724 230.618 86.844 230.154 87.076C229.698 87.308 229.386 87.712 229.218 88.288H226.302C226.35 87.392 226.61 86.656 227.082 86.08C227.554 85.496 228.194 85.064 229.002 84.784C229.818 84.496 230.742 84.352 231.774 84.352C233.046 84.352 234.066 84.512 234.834 84.832C235.602 85.144 236.158 85.596 236.502 86.188C236.846 86.772 237.018 87.468 237.018 88.276V97H234.09L233.802 94.864C233.378 95.76 232.846 96.38 232.206 96.724C231.574 97.068 230.826 97.24 229.962 97.24ZM231.138 94.936C231.458 94.936 231.766 94.88 232.062 94.768C232.366 94.648 232.634 94.492 232.866 94.3C233.106 94.1 233.298 93.876 233.442 93.628C233.586 93.38 233.658 93.124 233.658 92.86V91.024L232.398 91.048C231.814 91.056 231.27 91.128 230.766 91.264C230.262 91.392 229.854 91.604 229.542 91.9C229.238 92.196 229.086 92.596 229.086 93.1C229.086 93.676 229.286 94.128 229.686 94.456C230.086 94.776 230.57 94.936 231.138 94.936ZM239.639 100.864V84.592H243.155L243.167 86.38C243.351 86.084 243.575 85.816 243.839 85.576C244.111 85.328 244.411 85.112 244.739 84.928C245.067 84.744 245.423 84.604 245.807 84.508C246.191 84.404 246.595 84.352 247.019 84.352C247.939 84.352 248.759 84.58 249.479 85.036C250.199 85.484 250.763 86.18 251.171 87.124C251.587 88.06 251.795 89.252 251.795 90.7C251.795 92.204 251.571 93.44 251.123 94.408C250.683 95.368 250.075 96.08 249.299 96.544C248.523 97.008 247.647 97.24 246.671 97.24C246.271 97.24 245.895 97.184 245.543 97.072C245.191 96.968 244.863 96.82 244.559 96.628C244.263 96.436 243.995 96.216 243.755 95.968C243.523 95.712 243.319 95.436 243.143 95.14V100.864H239.639ZM245.831 94.672C246.591 94.672 247.227 94.356 247.739 93.724C248.259 93.092 248.519 92.092 248.519 90.724C248.519 89.524 248.271 88.588 247.775 87.916C247.287 87.236 246.639 86.896 245.831 86.896C244.927 86.896 244.251 87.264 243.803 88C243.363 88.728 243.143 89.636 243.143 90.724C243.143 91.42 243.239 92.068 243.431 92.668C243.631 93.268 243.927 93.752 244.319 94.12C244.719 94.488 245.223 94.672 245.831 94.672Z" fill="#334155"/>
<rect x="633" y="56" width="111" height="64" rx="8" fill="#E2E8F0"/>
<path d="M660.38 80.34C661.44 80.34 662.38 80.5567 663.2 80.99C664.02 81.4167 664.68 81.9967 665.18 82.73C665.687 83.4633 665.987 84.28 666.08 85.18H663.51C663.41 84.6467 663.223 84.17 662.95 83.75C662.683 83.33 662.33 82.9967 661.89 82.75C661.45 82.5033 660.923 82.38 660.31 82.38C659.543 82.38 658.89 82.5633 658.35 82.93C657.817 83.29 657.407 83.8633 657.12 84.65C656.84 85.4367 656.7 86.4567 656.7 87.71C656.7 89.61 657.013 90.9933 657.64 91.86C658.267 92.7267 659.157 93.16 660.31 93.16C660.923 93.16 661.45 93.0267 661.89 92.76C662.33 92.4867 662.683 92.1267 662.95 91.68C663.223 91.2267 663.41 90.7333 663.51 90.2H666.08C666 90.8533 665.833 91.48 665.58 92.08C665.333 92.68 664.983 93.2167 664.53 93.69C664.077 94.1567 663.507 94.5267 662.82 94.8C662.14 95.0667 661.327 95.2 660.38 95.2C659.053 95.2 657.913 94.8967 656.96 94.29C656.013 93.6767 655.283 92.81 654.77 91.69C654.263 90.5633 654.01 89.2267 654.01 87.68C654.01 86.14 654.263 84.8233 654.77 83.73C655.277 82.6367 656.003 81.8 656.95 81.22C657.903 80.6333 659.047 80.34 660.38 80.34ZM668.062 95V80.14H670.462V86.16C670.629 85.9 670.849 85.65 671.122 85.41C671.395 85.1633 671.729 84.9633 672.122 84.81C672.522 84.65 672.999 84.57 673.552 84.57C674.212 84.57 674.815 84.6967 675.362 84.95C675.909 85.2033 676.345 85.57 676.672 86.05C676.999 86.5233 677.162 87.09 677.162 87.75V95H674.722V88.16C674.722 87.6267 674.532 87.2133 674.152 86.92C673.779 86.6267 673.305 86.48 672.732 86.48C672.352 86.48 671.989 86.5467 671.642 86.68C671.295 86.8133 671.015 87.0133 670.802 87.28C670.595 87.54 670.492 87.8667 670.492 88.26V95H668.062ZM682.233 95.2C681.573 95.2 680.979 95.08 680.453 94.84C679.933 94.5933 679.523 94.2433 679.223 93.79C678.929 93.33 678.783 92.7733 678.783 92.12C678.783 90.98 679.193 90.12 680.013 89.54C680.839 88.96 682.156 88.6567 683.963 88.63L685.503 88.59V87.89C685.503 87.3433 685.339 86.9167 685.013 86.61C684.693 86.2967 684.193 86.1433 683.513 86.15C683.013 86.1567 682.553 86.2767 682.133 86.51C681.719 86.7367 681.446 87.12 681.313 87.66H679.243C679.283 86.9533 679.486 86.3633 679.853 85.89C680.226 85.41 680.736 85.0533 681.383 84.82C682.029 84.58 682.776 84.46 683.623 84.46C684.609 84.46 685.413 84.59 686.033 84.85C686.653 85.11 687.109 85.4867 687.403 85.98C687.696 86.4667 687.843 87.0567 687.843 87.75V95H685.793L685.603 93.14C685.229 93.92 684.756 94.46 684.183 94.76C683.616 95.0533 682.966 95.2 682.233 95.2ZM683.023 93.55C683.323 93.55 683.619 93.4967 683.913 93.39C684.206 93.2767 684.473 93.1267 684.713 92.94C684.953 92.7467 685.143 92.5333 685.283 92.3C685.429 92.0667 685.503 91.8233 685.503 91.57V89.94L684.233 89.96C683.606 89.9667 683.059 90.0333 682.593 90.16C682.126 90.2867 681.759 90.49 681.493 90.77C681.233 91.0433 681.103 91.41 681.103 91.87C681.103 92.3967 681.286 92.81 681.653 93.11C682.019 93.4033 682.476 93.55 683.023 93.55ZM690.289 95V84.66H692.669V86.14C692.829 85.8733 693.046 85.6167 693.319 85.37C693.599 85.1233 693.943 84.9233 694.349 84.77C694.756 84.6167 695.233 84.54 695.779 84.54C696.419 84.54 697.013 84.6667 697.559 84.92C698.113 85.1733 698.556 85.57 698.889 86.11C699.229 86.65 699.399 87.3467 699.399 88.2V95H696.959V88.49C696.959 87.81 696.773 87.3067 696.399 86.98C696.026 86.6467 695.556 86.48 694.989 86.48C694.603 86.48 694.236 86.5467 693.889 86.68C693.543 86.8067 693.259 87.0033 693.039 87.27C692.826 87.53 692.719 87.8567 692.719 88.25V95H690.289ZM706.198 98.42C704.458 98.42 703.121 98.1867 702.188 97.72C701.255 97.2533 700.788 96.6133 700.788 95.8C700.788 95.4333 700.878 95.1267 701.058 94.88C701.238 94.6333 701.451 94.43 701.698 94.27C701.945 94.11 702.171 93.9867 702.378 93.9C702.585 93.8133 702.718 93.75 702.778 93.71C702.665 93.6433 702.515 93.5567 702.328 93.45C702.141 93.3433 701.971 93.1967 701.818 93.01C701.671 92.8233 701.598 92.58 701.598 92.28C701.598 91.9333 701.761 91.6133 702.088 91.32C702.421 91.0267 702.918 90.8167 703.578 90.69C702.931 90.3767 702.435 89.9533 702.088 89.42C701.741 88.8867 701.568 88.3333 701.568 87.76C701.568 87.08 701.765 86.4967 702.158 86.01C702.558 85.5233 703.111 85.15 703.818 84.89C704.531 84.63 705.355 84.5 706.288 84.5C706.981 84.5 707.555 84.5767 708.008 84.73C708.461 84.8833 708.885 85.09 709.278 85.35C709.411 85.2967 709.598 85.2233 709.838 85.13C710.085 85.03 710.351 84.9233 710.638 84.81C710.925 84.69 711.198 84.5767 711.458 84.47C711.725 84.3567 711.951 84.2633 712.138 84.19L712.118 86.2L710.328 86.52C710.415 86.7133 710.481 86.9233 710.528 87.15C710.581 87.3767 710.608 87.5767 710.608 87.75C710.608 88.35 710.438 88.9067 710.098 89.42C709.765 89.9267 709.261 90.3333 708.588 90.64C707.921 90.9467 707.088 91.1 706.088 91.1C705.988 91.1 705.851 91.0967 705.678 91.09C705.505 91.0833 705.365 91.0767 705.258 91.07C704.718 91.09 704.348 91.1533 704.148 91.26C703.948 91.3667 703.848 91.4833 703.848 91.61C703.848 91.79 703.998 91.91 704.298 91.97C704.598 92.03 705.078 92.0833 705.738 92.13C705.971 92.1433 706.278 92.16 706.658 92.18C707.038 92.2 707.461 92.2267 707.928 92.26C709.108 92.3333 710.001 92.63 710.608 93.15C711.215 93.6633 711.518 94.33 711.518 95.15C711.518 96.1033 711.078 96.8867 710.198 97.5C709.318 98.1133 707.985 98.42 706.198 98.42ZM706.608 96.99C707.481 96.99 708.128 96.87 708.548 96.63C708.968 96.39 709.178 96.0367 709.178 95.57C709.178 95.21 709.035 94.9167 708.748 94.69C708.461 94.4633 708.035 94.33 707.468 94.29L704.858 94.13C704.571 94.11 704.298 94.1633 704.038 94.29C703.785 94.41 703.578 94.58 703.418 94.8C703.258 95.0133 703.178 95.25 703.178 95.51C703.178 95.9967 703.458 96.3633 704.018 96.61C704.578 96.8633 705.441 96.99 706.608 96.99ZM706.168 89.67C706.801 89.67 707.315 89.51 707.708 89.19C708.101 88.8633 708.298 88.4033 708.298 87.81C708.298 87.1967 708.101 86.72 707.708 86.38C707.315 86.0333 706.801 85.86 706.168 85.86C705.521 85.86 704.998 86.0333 704.598 86.38C704.205 86.7267 704.008 87.2033 704.008 87.81C704.008 88.3833 704.198 88.8367 704.578 89.17C704.958 89.5033 705.488 89.67 706.168 89.67ZM715.306 90.39C715.299 90.9767 715.392 91.4967 715.586 91.95C715.779 92.4033 716.066 92.76 716.446 93.02C716.826 93.2733 717.296 93.4 717.856 93.4C718.429 93.4 718.926 93.2733 719.346 93.02C719.772 92.76 720.056 92.3667 720.196 91.84H722.426C722.306 92.56 722.019 93.17 721.566 93.67C721.112 94.17 720.562 94.55 719.916 94.81C719.276 95.07 718.609 95.2 717.916 95.2C716.916 95.2 716.036 94.99 715.276 94.57C714.522 94.1433 713.932 93.5367 713.506 92.75C713.086 91.9633 712.876 91.0267 712.876 89.94C712.876 88.88 713.069 87.94 713.456 87.12C713.842 86.2933 714.399 85.6433 715.126 85.17C715.859 84.6967 716.739 84.46 717.766 84.46C718.786 84.46 719.642 84.6767 720.336 85.11C721.036 85.5433 721.562 86.15 721.916 86.93C722.276 87.7033 722.456 88.61 722.456 89.65V90.39H715.306ZM715.306 88.88H720.156C720.156 88.38 720.069 87.93 719.896 87.53C719.722 87.1233 719.456 86.8033 719.096 86.57C718.742 86.33 718.296 86.21 717.756 86.21C717.222 86.21 716.772 86.34 716.406 86.6C716.039 86.86 715.762 87.1967 715.576 87.61C715.389 88.0167 715.299 88.44 715.306 88.88Z" fill="#334155"/>
<path d="M60 152C62.2091 152 64 150.209 64 148C64 145.791 62.2091 144 60 144C57.7909 144 56 145.791 56 148C56 150.209 57.7909 152 60 152Z" fill="#CBD5E1"/>
<path d="M213 152C215.209 152 217 150.209 217 148C217 145.791 215.209 144 213 144C210.791 144 209 145.791 209 148C209 150.209 210.791 152 213 152Z" fill="#CBD5E1"/>
<path d="M366 152C368.209 152 370 150.209 370 148C370 145.791 368.209 144 366 144C363.791 144 362 145.791 362 148C362 150.209 363.791 152 366 152Z" fill="#CBD5E1"/>
<path d="M519 152C521.209 152 523 150.209 523 148C523 145.791 521.209 144 519 144C516.791 144 515 145.791 515 148C515 150.209 516.791 152 519 152Z" fill="#CBD5E1"/>
<path d="M672 152C674.209 152 676 150.209 676 148C676 145.791 674.209 144 672 144C669.791 144 668 145.791 668 148C668 150.209 669.791 152 672 152Z" fill="#CBD5E1"/>
<g filter="url(#filter0_d_1714_4206)">
<rect x="56" y="176" width="688" height="136" rx="8" fill="white"/>
<path fill-rule="evenodd" clip-rule="evenodd" d="M65.9226 193.274C65.6213 192.99 65.2177 192.905 64.9186 193.123C64.6243 193.337 64.3515 193.596 64.1304 193.879C63.8896 194.186 63.9944 194.554 64.3458 194.889C65.6712 196.149 66.9977 197.408 68.3241 198.668C68.7906 199.111 69.2266 199.111 69.6937 198.668C70.5072 197.896 71.3202 197.123 72.1333 196.351C72.627 195.882 73.1041 195.396 73.6192 194.949C74.1086 194.524 74.1436 193.974 73.623 193.562C73.5339 193.492 73.4579 193.407 73.3752 193.329C72.923 192.904 72.4885 192.902 72.0396 193.326C71.5009 193.835 69.0001 196.324 69.0001 196.324C69.0001 196.324 66.4769 193.795 65.9226 193.274Z" fill="#CBD5E1"/>
<path d="M90.296 197.776C90.296 198.693 90.1467 199.48 89.848 200.136C89.5493 200.787 89.072 201.288 88.416 201.64C87.7653 201.987 86.9067 202.16 85.84 202.16C84.7733 202.16 83.912 201.984 83.256 201.632C82.6053 201.275 82.1333 200.763 81.84 200.096C81.5467 199.424 81.4 198.613 81.4 197.664V190.432H83.392V197.864C83.392 198.76 83.6107 199.421 84.048 199.848C84.4907 200.275 85.088 200.488 85.84 200.488C86.3467 200.488 86.7867 200.395 87.16 200.208C87.5333 200.021 87.8213 199.736 88.024 199.352C88.2267 198.963 88.328 198.467 88.328 197.864V190.432H90.296V197.776ZM92.5019 190.432H94.4459V202H92.5019V190.432ZM100.143 190.432C100.191 190.432 100.332 190.432 100.567 190.432C100.802 190.432 101.079 190.432 101.399 190.432C101.724 190.432 102.052 190.435 102.383 190.44C102.719 190.44 103.01 190.443 103.255 190.448C104.663 190.475 105.807 190.717 106.687 191.176C107.572 191.629 108.22 192.277 108.631 193.12C109.047 193.957 109.255 194.968 109.255 196.152C109.255 197.389 109.034 198.443 108.591 199.312C108.154 200.181 107.482 200.848 106.575 201.312C105.674 201.771 104.527 202 103.135 202H100.143V190.432ZM102.119 192.04V200.392H103.167C103.962 200.392 104.663 200.256 105.271 199.984C105.879 199.707 106.354 199.259 106.695 198.64C107.042 198.021 107.215 197.195 107.215 196.16C107.215 195.157 107.055 194.355 106.735 193.752C106.415 193.149 105.956 192.715 105.359 192.448C104.762 192.176 104.047 192.04 103.215 192.04H102.119ZM112.383 198.312C112.378 198.781 112.453 199.197 112.607 199.56C112.762 199.923 112.991 200.208 113.295 200.416C113.599 200.619 113.975 200.72 114.423 200.72C114.882 200.72 115.279 200.619 115.615 200.416C115.957 200.208 116.183 199.893 116.295 199.472H118.079C117.983 200.048 117.754 200.536 117.391 200.936C117.029 201.336 116.589 201.64 116.071 201.848C115.559 202.056 115.026 202.16 114.471 202.16C113.671 202.16 112.967 201.992 112.359 201.656C111.757 201.315 111.285 200.829 110.943 200.2C110.607 199.571 110.439 198.821 110.439 197.952C110.439 197.104 110.594 196.352 110.903 195.696C111.213 195.035 111.658 194.515 112.239 194.136C112.826 193.757 113.53 193.568 114.351 193.568C115.167 193.568 115.853 193.741 116.407 194.088C116.967 194.435 117.389 194.92 117.671 195.544C117.959 196.163 118.103 196.888 118.103 197.72V198.312H112.383ZM112.383 197.104H116.263C116.263 196.704 116.194 196.344 116.055 196.024C115.917 195.699 115.703 195.443 115.415 195.256C115.133 195.064 114.775 194.968 114.343 194.968C113.917 194.968 113.557 195.072 113.263 195.28C112.97 195.488 112.749 195.757 112.599 196.088C112.45 196.413 112.378 196.752 112.383 197.104ZM122.679 202.16C122.103 202.16 121.556 202.069 121.039 201.888C120.527 201.701 120.095 201.411 119.743 201.016C119.396 200.621 119.177 200.112 119.087 199.488H120.799C120.873 199.792 121.004 200.04 121.191 200.232C121.383 200.424 121.609 200.565 121.871 200.656C122.132 200.741 122.399 200.784 122.671 200.784C123.167 200.784 123.567 200.699 123.871 200.528C124.18 200.357 124.335 200.093 124.335 199.736C124.335 199.475 124.249 199.267 124.079 199.112C123.908 198.957 123.636 198.84 123.263 198.76L121.687 198.4C120.988 198.245 120.425 197.989 119.999 197.632C119.577 197.275 119.364 196.771 119.359 196.12C119.353 195.629 119.476 195.192 119.727 194.808C119.977 194.424 120.351 194.123 120.847 193.904C121.343 193.68 121.956 193.568 122.687 193.568C123.652 193.568 124.425 193.784 125.007 194.216C125.588 194.643 125.887 195.253 125.903 196.048H124.247C124.188 195.691 124.02 195.413 123.743 195.216C123.465 195.013 123.105 194.912 122.663 194.912C122.204 194.912 121.828 195 121.535 195.176C121.241 195.352 121.095 195.621 121.095 195.984C121.095 196.235 121.207 196.432 121.431 196.576C121.655 196.72 121.991 196.843 122.439 196.944L123.927 197.304C124.353 197.411 124.703 197.555 124.975 197.736C125.247 197.917 125.46 198.117 125.615 198.336C125.769 198.549 125.876 198.771 125.935 199C125.999 199.224 126.031 199.432 126.031 199.624C126.031 200.157 125.892 200.613 125.615 200.992C125.343 201.365 124.956 201.653 124.455 201.856C123.953 202.059 123.361 202.16 122.679 202.16ZM129.551 193.728V202H127.679V193.728H129.551ZM129.575 190.44V192.28H127.647V190.44H129.575ZM135.208 204.736C133.816 204.736 132.747 204.549 132 204.176C131.253 203.803 130.88 203.291 130.88 202.64C130.88 202.347 130.952 202.101 131.096 201.904C131.24 201.707 131.411 201.544 131.608 201.416C131.805 201.288 131.987 201.189 132.152 201.12C132.317 201.051 132.424 201 132.472 200.968C132.381 200.915 132.261 200.845 132.112 200.76C131.963 200.675 131.827 200.557 131.704 200.408C131.587 200.259 131.528 200.064 131.528 199.824C131.528 199.547 131.659 199.291 131.92 199.056C132.187 198.821 132.584 198.653 133.112 198.552C132.595 198.301 132.197 197.963 131.92 197.536C131.643 197.109 131.504 196.667 131.504 196.208C131.504 195.664 131.661 195.197 131.976 194.808C132.296 194.419 132.739 194.12 133.304 193.912C133.875 193.704 134.533 193.6 135.28 193.6C135.835 193.6 136.293 193.661 136.656 193.784C137.019 193.907 137.357 194.072 137.672 194.28C137.779 194.237 137.928 194.179 138.12 194.104C138.317 194.024 138.531 193.939 138.76 193.848C138.989 193.752 139.208 193.661 139.416 193.576C139.629 193.485 139.811 193.411 139.96 193.352L139.944 194.96L138.512 195.216C138.581 195.371 138.635 195.539 138.672 195.72C138.715 195.901 138.736 196.061 138.736 196.2C138.736 196.68 138.6 197.125 138.328 197.536C138.061 197.941 137.659 198.267 137.12 198.512C136.587 198.757 135.92 198.88 135.12 198.88C135.04 198.88 134.931 198.877 134.792 198.872C134.653 198.867 134.541 198.861 134.456 198.856C134.024 198.872 133.728 198.923 133.568 199.008C133.408 199.093 133.328 199.187 133.328 199.288C133.328 199.432 133.448 199.528 133.688 199.576C133.928 199.624 134.312 199.667 134.84 199.704C135.027 199.715 135.272 199.728 135.576 199.744C135.88 199.76 136.219 199.781 136.592 199.808C137.536 199.867 138.251 200.104 138.736 200.52C139.221 200.931 139.464 201.464 139.464 202.12C139.464 202.883 139.112 203.509 138.408 204C137.704 204.491 136.637 204.736 135.208 204.736ZM135.536 203.592C136.235 203.592 136.752 203.496 137.088 203.304C137.424 203.112 137.592 202.829 137.592 202.456C137.592 202.168 137.477 201.933 137.248 201.752C137.019 201.571 136.677 201.464 136.224 201.432L134.136 201.304C133.907 201.288 133.688 201.331 133.48 201.432C133.277 201.528 133.112 201.664 132.984 201.84C132.856 202.011 132.792 202.2 132.792 202.408C132.792 202.797 133.016 203.091 133.464 203.288C133.912 203.491 134.603 203.592 135.536 203.592ZM135.184 197.736C135.691 197.736 136.101 197.608 136.416 197.352C136.731 197.091 136.888 196.723 136.888 196.248C136.888 195.757 136.731 195.376 136.416 195.104C136.101 194.827 135.691 194.688 135.184 194.688C134.667 194.688 134.248 194.827 133.928 195.104C133.613 195.381 133.456 195.763 133.456 196.248C133.456 196.707 133.608 197.069 133.912 197.336C134.216 197.603 134.64 197.736 135.184 197.736ZM141.2 202V193.728H143.104V194.912C143.232 194.699 143.406 194.493 143.624 194.296C143.848 194.099 144.123 193.939 144.448 193.816C144.774 193.693 145.155 193.632 145.592 193.632C146.104 193.632 146.579 193.733 147.016 193.936C147.459 194.139 147.814 194.456 148.08 194.888C148.352 195.32 148.488 195.877 148.488 196.56V202H146.536V196.792C146.536 196.248 146.387 195.845 146.088 195.584C145.79 195.317 145.414 195.184 144.96 195.184C144.651 195.184 144.358 195.237 144.08 195.344C143.803 195.445 143.576 195.603 143.4 195.816C143.23 196.024 143.144 196.285 143.144 196.6V202H141.2Z" fill="#64748B"/>
<path d="M744 215H56V217H744V215Z" fill="#E2E8F0" mask="url(#path-12-inside-1_1714_4206)"/>
<path d="M642.639 240H497.184C495.556 240 494.236 241.343 494.236 243V257C494.236 258.657 495.556 260 497.184 260H642.639C644.267 260 645.587 258.657 645.587 257V243C645.587 241.343 644.267 240 642.639 240Z" fill="#8B3DFF" fill-opacity="0.25"/>
<path d="M716.976 268H352.126C350.456 268 349.102 269.343 349.102 271V285C349.102 286.657 350.456 288 352.126 288H716.976C718.646 288 720 286.657 720 285V271C720 269.343 718.646 268 716.976 268Z" fill="#0DCAF0" fill-opacity="0.25"/>
<path d="M422.911 240H83.0346C81.3586 240 80 241.343 80 243V257C80 258.657 81.3586 260 83.0346 260H422.911C424.587 260 425.946 258.657 425.946 257V243C425.946 241.343 424.587 240 422.911 240Z" fill="#FFC107" fill-opacity="0.25"/>
</g>
<g filter="url(#filter1_d_1714_4206)">
<rect x="56" y="336" width="688" height="136" rx="8" fill="white"/>
<path fill-rule="evenodd" clip-rule="evenodd" d="M65.9226 353.274C65.6213 352.99 65.2177 352.905 64.9186 353.123C64.6243 353.337 64.3515 353.596 64.1304 353.879C63.8896 354.186 63.9944 354.554 64.3458 354.889C65.6712 356.149 66.9977 357.408 68.3241 358.668C68.7906 359.111 69.2266 359.111 69.6937 358.668C70.5072 357.896 71.3202 357.123 72.1333 356.351C72.627 355.882 73.1041 355.396 73.6192 354.949C74.1086 354.524 74.1436 353.974 73.623 353.562C73.5339 353.492 73.4579 353.407 73.3752 353.329C72.923 352.904 72.4885 352.902 72.0396 353.326C71.5009 353.835 69.0001 356.324 69.0001 356.324C69.0001 356.324 66.4769 353.795 65.9226 353.274Z" fill="#CBD5E1"/>
<path d="M81.4 350.432H88.968L88.96 352.08H83.376V355.408H88.304V357.032H83.376V362H81.4V350.432ZM90.4559 362V353.728H92.3199V355.52C92.4532 355.109 92.6425 354.76 92.8879 354.472C93.1385 354.179 93.4319 353.955 93.7679 353.8C94.1039 353.645 94.4692 353.568 94.8639 353.568C94.9599 353.568 95.0532 353.573 95.1439 353.584C95.2345 353.595 95.3012 353.613 95.3439 353.64V355.504C95.2852 355.477 95.2079 355.459 95.1119 355.448C95.0212 355.437 94.9412 355.432 94.8719 355.432C94.4719 355.4 94.1172 355.416 93.8079 355.48C93.5039 355.544 93.2452 355.653 93.0319 355.808C92.8239 355.957 92.6665 356.149 92.5599 356.384C92.4532 356.613 92.3999 356.883 92.3999 357.192V362H90.4559ZM99.8491 362.16C99.0598 362.16 98.3718 361.992 97.7851 361.656C97.1985 361.315 96.7425 360.827 96.4171 360.192C96.0971 359.557 95.9371 358.795 95.9371 357.904C95.9371 357.04 96.0918 356.283 96.4011 355.632C96.7158 354.981 97.1665 354.475 97.7531 354.112C98.3398 353.749 99.0411 353.568 99.8571 353.568C100.646 353.568 101.332 353.741 101.913 354.088C102.494 354.435 102.942 354.931 103.257 355.576C103.577 356.221 103.737 356.997 103.737 357.904C103.737 358.741 103.585 359.48 103.281 360.12C102.982 360.755 102.542 361.253 101.961 361.616C101.385 361.979 100.681 362.16 99.8491 362.16ZM99.8571 360.68C100.305 360.68 100.673 360.557 100.961 360.312C101.254 360.067 101.47 359.731 101.609 359.304C101.753 358.877 101.825 358.392 101.825 357.848C101.825 357.341 101.761 356.875 101.633 356.448C101.51 356.021 101.302 355.68 101.009 355.424C100.721 355.163 100.337 355.032 99.8571 355.032C99.4038 355.032 99.0278 355.152 98.7291 355.392C98.4358 355.627 98.2145 355.957 98.0651 356.384C97.9211 356.805 97.8491 357.293 97.8491 357.848C97.8491 358.349 97.9131 358.816 98.0411 359.248C98.1745 359.675 98.3878 360.021 98.6811 360.288C98.9745 360.549 99.3665 360.68 99.8571 360.68ZM105.144 362V353.728H107.048V354.912C107.176 354.699 107.349 354.493 107.568 354.296C107.792 354.099 108.067 353.939 108.392 353.816C108.717 353.693 109.099 353.632 109.536 353.632C110.048 353.632 110.523 353.733 110.96 353.936C111.403 354.139 111.757 354.456 112.024 354.888C112.296 355.32 112.432 355.877 112.432 356.56V362H110.48V356.792C110.48 356.248 110.331 355.845 110.032 355.584C109.733 355.317 109.357 355.184 108.904 355.184C108.595 355.184 108.301 355.237 108.024 355.344C107.747 355.445 107.52 355.603 107.344 355.816C107.173 356.024 107.088 356.285 107.088 356.6V362H105.144ZM118.481 355.104H116.633L116.641 359.848C116.641 360.093 116.668 360.275 116.721 360.392C116.78 360.504 116.87 360.579 116.993 360.616C117.121 360.648 117.292 360.664 117.505 360.664H118.521V361.896C118.414 361.939 118.252 361.976 118.033 362.008C117.82 362.045 117.532 362.064 117.169 362.064C116.513 362.064 116.004 361.979 115.641 361.808C115.284 361.632 115.036 361.384 114.897 361.064C114.758 360.744 114.689 360.363 114.689 359.92V355.104H113.345V353.728H114.745L115.233 351.272H116.633V353.72H118.481V355.104ZM123.574 362V350.432H131.222L131.214 352.104H125.534V355.344H130.55V356.992H125.518V360.304L131.334 360.312V362H123.574ZM132.88 362V353.728H134.784V354.912C134.912 354.699 135.085 354.493 135.304 354.296C135.528 354.099 135.802 353.939 136.128 353.816C136.453 353.693 136.834 353.632 137.272 353.632C137.784 353.632 138.258 353.733 138.696 353.936C139.138 354.139 139.493 354.456 139.76 354.888C140.032 355.32 140.168 355.877 140.168 356.56V362H138.216V356.792C138.216 356.248 138.066 355.845 137.768 355.584C137.469 355.317 137.093 355.184 136.64 355.184C136.33 355.184 136.037 355.237 135.76 355.344C135.482 355.445 135.256 355.603 135.08 355.816C134.909 356.024 134.824 356.285 134.824 356.6V362H132.88ZM144.967 362.16C143.873 362.16 143.015 361.784 142.391 361.032C141.767 360.28 141.455 359.211 141.455 357.824C141.455 356.96 141.58 356.211 141.831 355.576C142.087 354.936 142.46 354.443 142.951 354.096C143.447 353.744 144.06 353.568 144.791 353.568C145.132 353.568 145.441 353.611 145.719 353.696C146.001 353.776 146.252 353.883 146.471 354.016C146.689 354.149 146.873 354.296 147.023 354.456C147.177 354.616 147.297 354.776 147.383 354.936V350.112H149.335V362H147.895L147.679 360.304C147.615 360.501 147.519 360.709 147.391 360.928C147.268 361.141 147.1 361.341 146.887 361.528C146.679 361.715 146.417 361.867 146.103 361.984C145.788 362.101 145.409 362.16 144.967 362.16ZM145.367 360.728C146.065 360.728 146.575 360.501 146.895 360.048C147.22 359.589 147.383 358.832 147.383 357.776C147.377 357.173 147.303 356.667 147.159 356.256C147.02 355.845 146.804 355.536 146.511 355.328C146.223 355.12 145.849 355.016 145.391 355.016C144.804 355.016 144.321 355.232 143.943 355.664C143.564 356.096 143.375 356.8 143.375 357.776C143.375 358.747 143.548 359.483 143.895 359.984C144.241 360.48 144.732 360.728 145.367 360.728ZM154.731 350.432C154.779 350.432 154.921 350.432 155.155 350.432C155.39 350.432 155.667 350.432 155.987 350.432C156.313 350.432 156.641 350.435 156.971 350.44C157.307 350.44 157.598 350.443 157.843 350.448C159.251 350.475 160.395 350.717 161.275 351.176C162.161 351.629 162.809 352.277 163.219 353.12C163.635 353.957 163.843 354.968 163.843 356.152C163.843 357.389 163.622 358.443 163.179 359.312C162.742 360.181 162.07 360.848 161.163 361.312C160.262 361.771 159.115 362 157.723 362H154.731V350.432ZM156.707 352.04V360.392H157.755C158.55 360.392 159.251 360.256 159.859 359.984C160.467 359.707 160.942 359.259 161.283 358.64C161.63 358.021 161.803 357.195 161.803 356.16C161.803 355.157 161.643 354.355 161.323 353.752C161.003 353.149 160.545 352.715 159.947 352.448C159.35 352.176 158.635 352.04 157.803 352.04H156.707ZM166.971 358.312C166.966 358.781 167.041 359.197 167.195 359.56C167.35 359.923 167.579 360.208 167.883 360.416C168.187 360.619 168.563 360.72 169.011 360.72C169.47 360.72 169.867 360.619 170.203 360.416C170.545 360.208 170.771 359.893 170.883 359.472H172.667C172.571 360.048 172.342 360.536 171.979 360.936C171.617 361.336 171.177 361.64 170.659 361.848C170.147 362.056 169.614 362.16 169.059 362.16C168.259 362.16 167.555 361.992 166.947 361.656C166.345 361.315 165.873 360.829 165.531 360.2C165.195 359.571 165.027 358.821 165.027 357.952C165.027 357.104 165.182 356.352 165.491 355.696C165.801 355.035 166.246 354.515 166.827 354.136C167.414 353.757 168.118 353.568 168.939 353.568C169.755 353.568 170.441 353.741 170.995 354.088C171.555 354.435 171.977 354.92 172.259 355.544C172.547 356.163 172.691 356.888 172.691 357.72V358.312H166.971ZM166.971 357.104H170.851C170.851 356.704 170.782 356.344 170.643 356.024C170.505 355.699 170.291 355.443 170.003 355.256C169.721 355.064 169.363 354.968 168.931 354.968C168.505 354.968 168.145 355.072 167.851 355.28C167.558 355.488 167.337 355.757 167.187 356.088C167.038 356.413 166.966 356.752 166.971 357.104ZM180.721 353.728L177.673 362H176.137L173.081 353.728H174.865L176.849 359.52H176.953L178.929 353.728H180.721ZM183.003 358.312C182.998 358.781 183.073 359.197 183.227 359.56C183.382 359.923 183.611 360.208 183.915 360.416C184.219 360.619 184.595 360.72 185.043 360.72C185.502 360.72 185.899 360.619 186.235 360.416C186.577 360.208 186.803 359.893 186.915 359.472H188.699C188.603 360.048 188.374 360.536 188.011 360.936C187.649 361.336 187.209 361.64 186.691 361.848C186.179 362.056 185.646 362.16 185.091 362.16C184.291 362.16 183.587 361.992 182.979 361.656C182.377 361.315 181.905 360.829 181.563 360.2C181.227 359.571 181.059 358.821 181.059 357.952C181.059 357.104 181.214 356.352 181.523 355.696C181.833 355.035 182.278 354.515 182.859 354.136C183.446 353.757 184.15 353.568 184.971 353.568C185.787 353.568 186.473 353.741 187.027 354.088C187.587 354.435 188.009 354.92 188.291 355.544C188.579 356.163 188.723 356.888 188.723 357.72V358.312H183.003ZM183.003 357.104H186.883C186.883 356.704 186.814 356.344 186.675 356.024C186.537 355.699 186.323 355.443 186.035 355.256C185.753 355.064 185.395 354.968 184.963 354.968C184.537 354.968 184.177 355.072 183.883 355.28C183.59 355.488 183.369 355.757 183.219 356.088C183.07 356.413 182.998 356.752 183.003 357.104ZM192.602 362.12C192.068 362.12 191.642 362.053 191.322 361.92C191.002 361.787 190.762 361.608 190.602 361.384C190.442 361.16 190.338 360.909 190.29 360.632C190.242 360.349 190.218 360.061 190.218 359.768V350.112H192.122V359.544C192.122 359.901 192.194 360.179 192.338 360.376C192.487 360.573 192.727 360.688 193.058 360.72L193.474 360.736V361.96C193.33 362.003 193.183 362.04 193.034 362.072C192.884 362.104 192.74 362.12 192.602 362.12ZM198.22 362.16C197.431 362.16 196.743 361.992 196.156 361.656C195.57 361.315 195.114 360.827 194.788 360.192C194.468 359.557 194.308 358.795 194.308 357.904C194.308 357.04 194.463 356.283 194.772 355.632C195.087 354.981 195.538 354.475 196.124 354.112C196.711 353.749 197.412 353.568 198.228 353.568C199.018 353.568 199.703 353.741 200.284 354.088C200.866 354.435 201.314 354.931 201.628 355.576C201.948 356.221 202.108 356.997 202.108 357.904C202.108 358.741 201.956 359.48 201.652 360.12C201.354 360.755 200.914 361.253 200.332 361.616C199.756 361.979 199.052 362.16 198.22 362.16ZM198.228 360.68C198.676 360.68 199.044 360.557 199.332 360.312C199.626 360.067 199.842 359.731 199.98 359.304C200.124 358.877 200.196 358.392 200.196 357.848C200.196 357.341 200.132 356.875 200.004 356.448C199.882 356.021 199.674 355.68 199.38 355.424C199.092 355.163 198.708 355.032 198.228 355.032C197.775 355.032 197.399 355.152 197.1 355.392C196.807 355.627 196.586 355.957 196.436 356.384C196.292 356.805 196.22 357.293 196.22 357.848C196.22 358.349 196.284 358.816 196.412 359.248C196.546 359.675 196.759 360.021 197.052 360.288C197.346 360.549 197.738 360.68 198.228 360.68ZM203.515 364.576V353.728H205.459L205.475 355.032C205.582 354.851 205.718 354.672 205.883 354.496C206.054 354.32 206.249 354.163 206.467 354.024C206.691 353.885 206.939 353.776 207.211 353.696C207.483 353.611 207.782 353.568 208.107 353.568C208.742 353.568 209.305 353.72 209.795 354.024C210.286 354.323 210.67 354.784 210.947 355.408C211.23 356.032 211.371 356.821 211.371 357.776C211.371 358.752 211.227 359.565 210.939 360.216C210.651 360.867 210.249 361.355 209.731 361.68C209.214 362 208.614 362.16 207.931 362.16C207.617 362.16 207.329 362.117 207.067 362.032C206.811 361.947 206.582 361.829 206.379 361.68C206.177 361.531 205.998 361.368 205.843 361.192C205.694 361.016 205.569 360.832 205.467 360.64V364.576H203.515ZM207.499 360.704C208.086 360.704 208.571 360.472 208.955 360.008C209.339 359.539 209.531 358.805 209.531 357.808C209.531 356.944 209.35 356.264 208.987 355.768C208.63 355.267 208.134 355.016 207.499 355.016C206.817 355.016 206.305 355.28 205.963 355.808C205.622 356.331 205.451 356.997 205.451 357.808C205.451 358.331 205.526 358.813 205.675 359.256C205.83 359.693 206.057 360.045 206.355 360.312C206.659 360.573 207.041 360.704 207.499 360.704ZM212.773 362V353.728H214.669V354.912C214.909 354.549 215.235 354.235 215.645 353.968C216.061 353.701 216.589 353.568 217.229 353.568C217.523 353.568 217.819 353.619 218.117 353.72C218.421 353.821 218.701 353.971 218.957 354.168C219.219 354.365 219.427 354.611 219.581 354.904C219.843 354.515 220.189 354.195 220.621 353.944C221.059 353.693 221.549 353.568 222.093 353.568C222.392 353.568 222.699 353.616 223.013 353.712C223.333 353.808 223.627 353.968 223.893 354.192C224.16 354.416 224.376 354.723 224.541 355.112C224.707 355.496 224.789 355.979 224.789 356.56V362H222.845V356.792C222.845 356.381 222.773 356.059 222.629 355.824C222.485 355.589 222.299 355.424 222.069 355.328C221.845 355.227 221.605 355.176 221.349 355.176C221.12 355.176 220.88 355.221 220.629 355.312C220.384 355.403 220.173 355.552 219.997 355.76C219.827 355.968 219.741 356.248 219.741 356.6V362H217.797V356.48C217.797 356.192 217.723 355.952 217.573 355.76C217.424 355.568 217.235 355.424 217.005 355.328C216.781 355.227 216.552 355.176 216.317 355.176C216.077 355.176 215.832 355.227 215.581 355.328C215.336 355.429 215.131 355.584 214.965 355.792C214.8 356 214.717 356.269 214.717 356.6V362H212.773ZM228.091 358.312C228.085 358.781 228.16 359.197 228.315 359.56C228.469 359.923 228.699 360.208 229.003 360.416C229.307 360.619 229.683 360.72 230.131 360.72C230.589 360.72 230.987 360.619 231.323 360.416C231.664 360.208 231.891 359.893 232.003 359.472H233.787C233.691 360.048 233.461 360.536 233.099 360.936C232.736 361.336 232.296 361.64 231.779 361.848C231.267 362.056 230.733 362.16 230.179 362.16C229.379 362.16 228.675 361.992 228.067 361.656C227.464 361.315 226.992 360.829 226.651 360.2C226.315 359.571 226.147 358.821 226.147 357.952C226.147 357.104 226.301 356.352 226.611 355.696C226.92 355.035 227.365 354.515 227.947 354.136C228.533 353.757 229.237 353.568 230.059 353.568C230.875 353.568 231.56 353.741 232.115 354.088C232.675 354.435 233.096 354.92 233.379 355.544C233.667 356.163 233.811 356.888 233.811 357.72V358.312H228.091ZM228.091 357.104H231.971C231.971 356.704 231.901 356.344 231.763 356.024C231.624 355.699 231.411 355.443 231.123 355.256C230.84 355.064 230.483 354.968 230.051 354.968C229.624 354.968 229.264 355.072 228.971 355.28C228.677 355.488 228.456 355.757 228.307 356.088C228.157 356.413 228.085 356.752 228.091 357.104ZM235.305 362V353.728H237.209V354.912C237.337 354.699 237.511 354.493 237.729 354.296C237.953 354.099 238.228 353.939 238.553 353.816C238.879 353.693 239.26 353.632 239.697 353.632C240.209 353.632 240.684 353.733 241.121 353.936C241.564 354.139 241.919 354.456 242.185 354.888C242.457 355.32 242.593 355.877 242.593 356.56V362H240.641V356.792C240.641 356.248 240.492 355.845 240.193 355.584C239.895 355.317 239.519 355.184 239.065 355.184C238.756 355.184 238.463 355.237 238.185 355.344C237.908 355.445 237.681 355.603 237.505 355.816C237.335 356.024 237.249 356.285 237.249 356.6V362H235.305ZM248.642 355.104H246.794L246.802 359.848C246.802 360.093 246.829 360.275 246.882 360.392C246.941 360.504 247.032 360.579 247.154 360.616C247.282 360.648 247.453 360.664 247.666 360.664H248.682V361.896C248.576 361.939 248.413 361.976 248.194 362.008C247.981 362.045 247.693 362.064 247.33 362.064C246.674 362.064 246.165 361.979 245.802 361.808C245.445 361.632 245.197 361.384 245.058 361.064C244.92 360.744 244.85 360.363 244.85 359.92V355.104H243.506V353.728H244.906L245.394 351.272H246.794V353.72H248.642V355.104Z" fill="#64748B"/>
<path d="M744 375H56V377H744V375Z" fill="#E2E8F0" mask="url(#path-20-inside-2_1714_4206)"/>
<path d="M716.602 400H548.956C547.079 400 545.557 401.343 545.557 403V417C545.557 418.657 547.079 420 548.956 420H716.602C718.479 420 720 418.657 720 417V403C720 401.343 718.479 400 716.602 400Z" fill="#8B3DFF" fill-opacity="0.25"/>
<path d="M521.388 400H156.537C154.867 400 153.514 401.343 153.514 403V417C153.514 418.657 154.867 420 156.537 420H521.388C523.058 420 524.411 418.657 524.411 417V403C524.411 401.343 523.058 400 521.388 400Z" fill="#0DCAF0" fill-opacity="0.25"/>
<path d="M421.669 428H83.0236C81.3537 428 80 429.343 80 431V445C80 446.657 81.3537 448 83.0236 448H421.669C423.339 448 424.693 446.657 424.693 445V431C424.693 429.343 423.339 428 421.669 428Z" fill="#FFC107" fill-opacity="0.25"/>
</g>
<g filter="url(#filter2_d_1714_4206)">
<rect x="56" y="496" width="688" height="136" rx="8" fill="white"/>
<path fill-rule="evenodd" clip-rule="evenodd" d="M65.9226 513.274C65.6213 512.99 65.2177 512.905 64.9186 513.123C64.6243 513.337 64.3515 513.596 64.1304 513.879C63.8896 514.186 63.9944 514.554 64.3458 514.889C65.6712 516.149 66.9977 517.408 68.3241 518.668C68.7906 519.111 69.2266 519.111 69.6937 518.668C70.5072 517.896 71.3202 517.123 72.1333 516.351C72.627 515.882 73.1041 515.396 73.6192 514.949C74.1086 514.524 74.1436 513.974 73.623 513.562C73.5339 513.492 73.4579 513.407 73.3752 513.329C72.923 512.904 72.4885 512.902 72.0396 513.326C71.5009 513.835 69.0001 516.324 69.0001 516.324C69.0001 516.324 66.4769 513.795 65.9226 513.274Z" fill="#CBD5E1"/>
<path d="M80.544 522L84.704 510.432H86.808L90.96 522H89.008L87.976 519.096H83.56L82.504 522H80.544ZM84.008 517.368H87.496L85.76 512.328L84.008 517.368ZM92.284 524.576V513.728H94.228L94.244 515.032C94.3507 514.851 94.4867 514.672 94.652 514.496C94.8227 514.32 95.0173 514.163 95.236 514.024C95.46 513.885 95.708 513.776 95.98 513.696C96.252 513.611 96.5507 513.568 96.876 513.568C97.5107 513.568 98.0733 513.72 98.564 514.024C99.0547 514.323 99.4387 514.784 99.716 515.408C99.9987 516.032 100.14 516.821 100.14 517.776C100.14 518.752 99.996 519.565 99.708 520.216C99.42 520.867 99.0173 521.355 98.5 521.68C97.9827 522 97.3827 522.16 96.7 522.16C96.3853 522.16 96.0973 522.117 95.836 522.032C95.58 521.947 95.3507 521.829 95.148 521.68C94.9453 521.531 94.7667 521.368 94.612 521.192C94.4627 521.016 94.3373 520.832 94.236 520.64V524.576H92.284ZM96.268 520.704C96.8547 520.704 97.34 520.472 97.724 520.008C98.108 519.539 98.3 518.805 98.3 517.808C98.3 516.944 98.1187 516.264 97.756 515.768C97.3987 515.267 96.9027 515.016 96.268 515.016C95.5853 515.016 95.0733 515.28 94.732 515.808C94.3907 516.331 94.22 516.997 94.22 517.808C94.22 518.331 94.2947 518.813 94.444 519.256C94.5987 519.693 94.8253 520.045 95.124 520.312C95.428 520.573 95.8093 520.704 96.268 520.704ZM101.542 524.576V513.728H103.486L103.502 515.032C103.609 514.851 103.745 514.672 103.91 514.496C104.081 514.32 104.275 514.163 104.494 514.024C104.718 513.885 104.966 513.776 105.238 513.696C105.51 513.611 105.809 513.568 106.134 513.568C106.769 513.568 107.331 513.72 107.822 514.024C108.313 514.323 108.697 514.784 108.974 515.408C109.257 516.032 109.398 516.821 109.398 517.776C109.398 518.752 109.254 519.565 108.966 520.216C108.678 520.867 108.275 521.355 107.758 521.68C107.241 522 106.641 522.16 105.958 522.16C105.643 522.16 105.355 522.117 105.094 522.032C104.838 521.947 104.609 521.829 104.406 521.68C104.203 521.531 104.025 521.368 103.87 521.192C103.721 521.016 103.595 520.832 103.494 520.64V524.576H101.542ZM105.526 520.704C106.113 520.704 106.598 520.472 106.982 520.008C107.366 519.539 107.558 518.805 107.558 517.808C107.558 516.944 107.377 516.264 107.014 515.768C106.657 515.267 106.161 515.016 105.526 515.016C104.843 515.016 104.331 515.28 103.99 515.808C103.649 516.331 103.478 516.997 103.478 517.808C103.478 518.331 103.553 518.813 103.702 519.256C103.857 519.693 104.083 520.045 104.382 520.312C104.686 520.573 105.067 520.704 105.526 520.704ZM113.184 522.12C112.651 522.12 112.224 522.053 111.904 521.92C111.584 521.787 111.344 521.608 111.184 521.384C111.024 521.16 110.92 520.909 110.872 520.632C110.824 520.349 110.8 520.061 110.8 519.768V510.112H112.704V519.544C112.704 519.901 112.776 520.179 112.92 520.376C113.07 520.573 113.31 520.688 113.64 520.72L114.056 520.736V521.96C113.912 522.003 113.766 522.04 113.616 522.072C113.467 522.104 113.323 522.12 113.184 522.12ZM117.441 513.728V522H115.569V513.728H117.441ZM117.465 510.44V512.28H115.537V510.44H117.465ZM122.905 513.568C123.55 513.568 124.118 513.696 124.609 513.952C125.099 514.208 125.491 514.563 125.785 515.016C126.083 515.469 126.262 515.984 126.321 516.56H124.657C124.619 516.309 124.529 516.072 124.385 515.848C124.241 515.619 124.046 515.435 123.801 515.296C123.555 515.152 123.259 515.08 122.913 515.08C122.294 515.08 121.79 515.309 121.401 515.768C121.017 516.227 120.825 516.931 120.825 517.88C120.825 518.755 121.009 519.451 121.377 519.968C121.745 520.485 122.27 520.744 122.953 520.744C123.294 520.744 123.585 520.669 123.825 520.52C124.07 520.365 124.262 520.176 124.401 519.952C124.545 519.723 124.638 519.493 124.681 519.264H126.297C126.249 519.824 126.073 520.323 125.769 520.76C125.47 521.197 125.075 521.541 124.585 521.792C124.099 522.037 123.539 522.16 122.905 522.16C122.147 522.16 121.473 521.995 120.881 521.664C120.294 521.328 119.833 520.843 119.497 520.208C119.161 519.568 118.993 518.797 118.993 517.896C118.993 517.037 119.15 516.285 119.465 515.64C119.779 514.989 120.23 514.483 120.817 514.12C121.403 513.752 122.099 513.568 122.905 513.568ZM130.059 522.16C129.531 522.16 129.057 522.064 128.635 521.872C128.219 521.675 127.891 521.395 127.651 521.032C127.417 520.664 127.299 520.219 127.299 519.696C127.299 518.784 127.627 518.096 128.283 517.632C128.945 517.168 129.998 516.925 131.443 516.904L132.675 516.872V516.312C132.675 515.875 132.545 515.533 132.283 515.288C132.027 515.037 131.627 514.915 131.083 514.92C130.683 514.925 130.315 515.021 129.979 515.208C129.649 515.389 129.43 515.696 129.323 516.128H127.667C127.699 515.563 127.862 515.091 128.155 514.712C128.454 514.328 128.862 514.043 129.379 513.856C129.897 513.664 130.494 513.568 131.171 513.568C131.961 513.568 132.603 513.672 133.099 513.88C133.595 514.088 133.961 514.389 134.195 514.784C134.43 515.173 134.547 515.645 134.547 516.2V522H132.907L132.755 520.512C132.457 521.136 132.078 521.568 131.619 521.808C131.166 522.043 130.646 522.16 130.059 522.16ZM130.691 520.84C130.931 520.84 131.169 520.797 131.403 520.712C131.638 520.621 131.851 520.501 132.043 520.352C132.235 520.197 132.387 520.027 132.499 519.84C132.617 519.653 132.675 519.459 132.675 519.256V517.952L131.659 517.968C131.158 517.973 130.721 518.027 130.347 518.128C129.974 518.229 129.681 518.392 129.467 518.616C129.259 518.835 129.155 519.128 129.155 519.496C129.155 519.917 129.302 520.248 129.595 520.488C129.889 520.723 130.254 520.84 130.691 520.84ZM140.787 515.104H138.939L138.947 519.848C138.947 520.093 138.973 520.275 139.027 520.392C139.085 520.504 139.176 520.579 139.299 520.616C139.427 520.648 139.597 520.664 139.811 520.664H140.827V521.896C140.72 521.939 140.557 521.976 140.339 522.008C140.125 522.045 139.837 522.064 139.475 522.064C138.819 522.064 138.309 521.979 137.947 521.808C137.589 521.632 137.341 521.384 137.203 521.064C137.064 520.744 136.995 520.363 136.995 519.92V515.104H135.651V513.728H137.051L137.539 511.272H138.939V513.72H140.787V515.104ZM144.38 513.728V522H142.508V513.728H144.38ZM144.404 510.44V512.28H142.476V510.44H144.404ZM149.844 522.16C149.054 522.16 148.366 521.992 147.78 521.656C147.193 521.315 146.737 520.827 146.412 520.192C146.092 519.557 145.932 518.795 145.932 517.904C145.932 517.04 146.086 516.283 146.396 515.632C146.71 514.981 147.161 514.475 147.748 514.112C148.334 513.749 149.036 513.568 149.852 513.568C150.641 513.568 151.326 513.741 151.908 514.088C152.489 514.435 152.937 514.931 153.252 515.576C153.572 516.221 153.732 516.997 153.732 517.904C153.732 518.741 153.58 519.48 153.276 520.12C152.977 520.755 152.537 521.253 151.956 521.616C151.38 521.979 150.676 522.16 149.844 522.16ZM149.852 520.68C150.3 520.68 150.668 520.557 150.956 520.312C151.249 520.067 151.465 519.731 151.604 519.304C151.748 518.877 151.82 518.392 151.82 517.848C151.82 517.341 151.756 516.875 151.628 516.448C151.505 516.021 151.297 515.68 151.004 515.424C150.716 515.163 150.332 515.032 149.852 515.032C149.398 515.032 149.022 515.152 148.724 515.392C148.43 515.627 148.209 515.957 148.06 516.384C147.916 516.805 147.844 517.293 147.844 517.848C147.844 518.349 147.908 518.816 148.036 519.248C148.169 519.675 148.382 520.021 148.676 520.288C148.969 520.549 149.361 520.68 149.852 520.68ZM155.138 522V513.728H157.042V514.912C157.17 514.699 157.344 514.493 157.562 514.296C157.786 514.099 158.061 513.939 158.386 513.816C158.712 513.693 159.093 513.632 159.53 513.632C160.042 513.632 160.517 513.733 160.954 513.936C161.397 514.139 161.752 514.456 162.018 514.888C162.29 515.32 162.426 515.877 162.426 516.56V522H160.474V516.792C160.474 516.248 160.325 515.845 160.026 515.584C159.728 515.317 159.352 515.184 158.898 515.184C158.589 515.184 158.296 515.237 158.018 515.344C157.741 515.445 157.514 515.603 157.338 515.816C157.168 516.024 157.082 516.285 157.082 516.6V522H155.138ZM167.701 522V510.432H171.805C172.637 510.432 173.381 510.576 174.037 510.864C174.698 511.147 175.218 511.565 175.597 512.12C175.975 512.675 176.165 513.357 176.165 514.168C176.165 514.931 175.991 515.584 175.645 516.128C175.303 516.672 174.826 517.088 174.213 517.376C173.599 517.664 172.882 517.808 172.061 517.808H169.677V522H167.701ZM169.661 516.248H172.013C172.69 516.248 173.242 516.045 173.669 515.64C174.101 515.235 174.317 514.707 174.317 514.056C174.317 513.395 174.093 512.883 173.645 512.52C173.197 512.152 172.634 511.968 171.957 511.968H169.661V516.248ZM177.397 522V513.728H179.261V515.52C179.394 515.109 179.584 514.76 179.829 514.472C180.08 514.179 180.373 513.955 180.709 513.8C181.045 513.645 181.41 513.568 181.805 513.568C181.901 513.568 181.994 513.573 182.085 513.584C182.176 513.595 182.242 513.613 182.285 513.64V515.504C182.226 515.477 182.149 515.459 182.053 515.448C181.962 515.437 181.882 515.432 181.813 515.432C181.413 515.4 181.058 515.416 180.749 515.48C180.445 515.544 180.186 515.653 179.973 515.808C179.765 515.957 179.608 516.149 179.501 516.384C179.394 516.613 179.341 516.883 179.341 517.192V522H177.397ZM186.79 522.16C186.001 522.16 185.313 521.992 184.726 521.656C184.14 521.315 183.684 520.827 183.358 520.192C183.038 519.557 182.878 518.795 182.878 517.904C182.878 517.04 183.033 516.283 183.342 515.632C183.657 514.981 184.108 514.475 184.694 514.112C185.281 513.749 185.982 513.568 186.798 513.568C187.588 513.568 188.273 513.741 188.854 514.088C189.436 514.435 189.884 514.931 190.198 515.576C190.518 516.221 190.678 516.997 190.678 517.904C190.678 518.741 190.526 519.48 190.222 520.12C189.924 520.755 189.484 521.253 188.902 521.616C188.326 521.979 187.622 522.16 186.79 522.16ZM186.798 520.68C187.246 520.68 187.614 520.557 187.902 520.312C188.196 520.067 188.412 519.731 188.55 519.304C188.694 518.877 188.766 518.392 188.766 517.848C188.766 517.341 188.702 516.875 188.574 516.448C188.452 516.021 188.244 515.68 187.95 515.424C187.662 515.163 187.278 515.032 186.798 515.032C186.345 515.032 185.969 515.152 185.67 515.392C185.377 515.627 185.156 515.957 185.006 516.384C184.862 516.805 184.79 517.293 184.79 517.848C184.79 518.349 184.854 518.816 184.982 519.248C185.116 519.675 185.329 520.021 185.622 520.288C185.916 520.549 186.308 520.68 186.798 520.68ZM195.679 524.736C194.287 524.736 193.218 524.549 192.471 524.176C191.724 523.803 191.351 523.291 191.351 522.64C191.351 522.347 191.423 522.101 191.567 521.904C191.711 521.707 191.882 521.544 192.079 521.416C192.276 521.288 192.458 521.189 192.623 521.12C192.788 521.051 192.895 521 192.943 520.968C192.852 520.915 192.732 520.845 192.583 520.76C192.434 520.675 192.298 520.557 192.175 520.408C192.058 520.259 191.999 520.064 191.999 519.824C191.999 519.547 192.13 519.291 192.391 519.056C192.658 518.821 193.055 518.653 193.583 518.552C193.066 518.301 192.668 517.963 192.391 517.536C192.114 517.109 191.975 516.667 191.975 516.208C191.975 515.664 192.132 515.197 192.447 514.808C192.767 514.419 193.21 514.12 193.775 513.912C194.346 513.704 195.004 513.6 195.751 513.6C196.306 513.6 196.764 513.661 197.127 513.784C197.49 513.907 197.828 514.072 198.143 514.28C198.25 514.237 198.399 514.179 198.591 514.104C198.788 514.024 199.002 513.939 199.231 513.848C199.46 513.752 199.679 513.661 199.887 513.576C200.1 513.485 200.282 513.411 200.431 513.352L200.415 514.96L198.983 515.216C199.052 515.371 199.106 515.539 199.143 515.72C199.186 515.901 199.207 516.061 199.207 516.2C199.207 516.68 199.071 517.125 198.799 517.536C198.532 517.941 198.13 518.267 197.591 518.512C197.058 518.757 196.391 518.88 195.591 518.88C195.511 518.88 195.402 518.877 195.263 518.872C195.124 518.867 195.012 518.861 194.927 518.856C194.495 518.872 194.199 518.923 194.039 519.008C193.879 519.093 193.799 519.187 193.799 519.288C193.799 519.432 193.919 519.528 194.159 519.576C194.399 519.624 194.783 519.667 195.311 519.704C195.498 519.715 195.743 519.728 196.047 519.744C196.351 519.76 196.69 519.781 197.063 519.808C198.007 519.867 198.722 520.104 199.207 520.52C199.692 520.931 199.935 521.464 199.935 522.12C199.935 522.883 199.583 523.509 198.879 524C198.175 524.491 197.108 524.736 195.679 524.736ZM196.007 523.592C196.706 523.592 197.223 523.496 197.559 523.304C197.895 523.112 198.063 522.829 198.063 522.456C198.063 522.168 197.948 521.933 197.719 521.752C197.49 521.571 197.148 521.464 196.695 521.432L194.607 521.304C194.378 521.288 194.159 521.331 193.951 521.432C193.748 521.528 193.583 521.664 193.455 521.84C193.327 522.011 193.263 522.2 193.263 522.408C193.263 522.797 193.487 523.091 193.935 523.288C194.383 523.491 195.074 523.592 196.007 523.592ZM195.655 517.736C196.162 517.736 196.572 517.608 196.887 517.352C197.202 517.091 197.359 516.723 197.359 516.248C197.359 515.757 197.202 515.376 196.887 515.104C196.572 514.827 196.162 514.688 195.655 514.688C195.138 514.688 194.719 514.827 194.399 515.104C194.084 515.381 193.927 515.763 193.927 516.248C193.927 516.707 194.079 517.069 194.383 517.336C194.687 517.603 195.111 517.736 195.655 517.736ZM201.671 522V513.728H203.535V515.52C203.669 515.109 203.858 514.76 204.103 514.472C204.354 514.179 204.647 513.955 204.983 513.8C205.319 513.645 205.685 513.568 206.079 513.568C206.175 513.568 206.269 513.573 206.359 513.584C206.45 513.595 206.517 513.613 206.559 513.64V515.504C206.501 515.477 206.423 515.459 206.327 515.448C206.237 515.437 206.157 515.432 206.087 515.432C205.687 515.4 205.333 515.416 205.023 515.48C204.719 515.544 204.461 515.653 204.247 515.808C204.039 515.957 203.882 516.149 203.775 516.384C203.669 516.613 203.615 516.883 203.615 517.192V522H201.671ZM209.93 522.16C209.402 522.16 208.927 522.064 208.506 521.872C208.09 521.675 207.762 521.395 207.522 521.032C207.287 520.664 207.17 520.219 207.17 519.696C207.17 518.784 207.498 518.096 208.154 517.632C208.815 517.168 209.869 516.925 211.314 516.904L212.546 516.872V516.312C212.546 515.875 212.415 515.533 212.154 515.288C211.898 515.037 211.498 514.915 210.954 514.92C210.554 514.925 210.186 515.021 209.85 515.208C209.519 515.389 209.301 515.696 209.194 516.128H207.538C207.57 515.563 207.733 515.091 208.026 514.712C208.325 514.328 208.733 514.043 209.25 513.856C209.767 513.664 210.365 513.568 211.042 513.568C211.831 513.568 212.474 513.672 212.97 513.88C213.466 514.088 213.831 514.389 214.066 514.784C214.301 515.173 214.418 515.645 214.418 516.2V522H212.778L212.626 520.512C212.327 521.136 211.949 521.568 211.49 521.808C211.037 522.043 210.517 522.16 209.93 522.16ZM210.562 520.84C210.802 520.84 211.039 520.797 211.274 520.712C211.509 520.621 211.722 520.501 211.914 520.352C212.106 520.197 212.258 520.027 212.37 519.84C212.487 519.653 212.546 519.459 212.546 519.256V517.952L211.53 517.968C211.029 517.973 210.591 518.027 210.218 518.128C209.845 518.229 209.551 518.392 209.338 518.616C209.13 518.835 209.026 519.128 209.026 519.496C209.026 519.917 209.173 520.248 209.466 520.488C209.759 520.723 210.125 520.84 210.562 520.84ZM216.375 522V513.728H218.271V514.912C218.511 514.549 218.837 514.235 219.247 513.968C219.663 513.701 220.191 513.568 220.831 513.568C221.125 513.568 221.421 513.619 221.719 513.72C222.023 513.821 222.303 513.971 222.559 514.168C222.821 514.365 223.029 514.611 223.183 514.904C223.445 514.515 223.791 514.195 224.223 513.944C224.661 513.693 225.151 513.568 225.695 513.568C225.994 513.568 226.301 513.616 226.615 513.712C226.935 513.808 227.229 513.968 227.495 514.192C227.762 514.416 227.978 514.723 228.143 515.112C228.309 515.496 228.391 515.979 228.391 516.56V522H226.447V516.792C226.447 516.381 226.375 516.059 226.231 515.824C226.087 515.589 225.901 515.424 225.671 515.328C225.447 515.227 225.207 515.176 224.951 515.176C224.722 515.176 224.482 515.221 224.231 515.312C223.986 515.403 223.775 515.552 223.599 515.76C223.429 515.968 223.343 516.248 223.343 516.6V522H221.399V516.48C221.399 516.192 221.325 515.952 221.175 515.76C221.026 515.568 220.837 515.424 220.607 515.328C220.383 515.227 220.154 515.176 219.919 515.176C219.679 515.176 219.434 515.227 219.183 515.328C218.938 515.429 218.733 515.584 218.567 515.792C218.402 516 218.319 516.269 218.319 516.6V522H216.375ZM230.165 522V513.728H232.061V514.912C232.301 514.549 232.626 514.235 233.037 513.968C233.453 513.701 233.981 513.568 234.621 513.568C234.914 513.568 235.21 513.619 235.509 513.72C235.813 513.821 236.093 513.971 236.349 514.168C236.61 514.365 236.818 514.611 236.973 514.904C237.234 514.515 237.581 514.195 238.013 513.944C238.45 513.693 238.941 513.568 239.485 513.568C239.783 513.568 240.09 513.616 240.405 513.712C240.725 513.808 241.018 513.968 241.285 514.192C241.551 514.416 241.767 514.723 241.933 515.112C242.098 515.496 242.181 515.979 242.181 516.56V522H240.237V516.792C240.237 516.381 240.165 516.059 240.021 515.824C239.877 515.589 239.69 515.424 239.461 515.328C239.237 515.227 238.997 515.176 238.741 515.176C238.511 515.176 238.271 515.221 238.021 515.312C237.775 515.403 237.565 515.552 237.389 515.76C237.218 515.968 237.133 516.248 237.133 516.6V522H235.189V516.48C235.189 516.192 235.114 515.952 234.965 515.76C234.815 515.568 234.626 515.424 234.397 515.328C234.173 515.227 233.943 515.176 233.709 515.176C233.469 515.176 233.223 515.227 232.973 515.328C232.727 515.429 232.522 515.584 232.357 515.792C232.191 516 232.109 516.269 232.109 516.6V522H230.165ZM245.962 513.728V522H244.09V513.728H245.962ZM245.986 510.44V512.28H244.058V510.44H245.986ZM248.071 522V513.728H249.975V514.912C250.103 514.699 250.277 514.493 250.495 514.296C250.719 514.099 250.994 513.939 251.319 513.816C251.645 513.693 252.026 513.632 252.463 513.632C252.975 513.632 253.45 513.733 253.887 513.936C254.33 514.139 254.685 514.456 254.951 514.888C255.223 515.32 255.359 515.877 255.359 516.56V522H253.407V516.792C253.407 516.248 253.258 515.845 252.959 515.584C252.661 515.317 252.285 515.184 251.831 515.184C251.522 515.184 251.229 515.237 250.951 515.344C250.674 515.445 250.447 515.603 250.271 515.816C250.101 516.024 250.015 516.285 250.015 516.6V522H248.071ZM260.799 524.736C259.407 524.736 258.337 524.549 257.591 524.176C256.844 523.803 256.471 523.291 256.471 522.64C256.471 522.347 256.543 522.101 256.687 521.904C256.831 521.707 257.001 521.544 257.199 521.416C257.396 521.288 257.577 521.189 257.743 521.12C257.908 521.051 258.015 521 258.063 520.968C257.972 520.915 257.852 520.845 257.703 520.76C257.553 520.675 257.417 520.557 257.295 520.408C257.177 520.259 257.119 520.064 257.119 519.824C257.119 519.547 257.249 519.291 257.511 519.056C257.777 518.821 258.175 518.653 258.703 518.552C258.185 518.301 257.788 517.963 257.511 517.536C257.233 517.109 257.095 516.667 257.095 516.208C257.095 515.664 257.252 515.197 257.567 514.808C257.887 514.419 258.329 514.12 258.895 513.912C259.465 513.704 260.124 513.6 260.871 513.6C261.425 513.6 261.884 513.661 262.247 513.784C262.609 513.907 262.948 514.072 263.263 514.28C263.369 514.237 263.519 514.179 263.711 514.104C263.908 514.024 264.121 513.939 264.351 513.848C264.58 513.752 264.799 513.661 265.007 513.576C265.22 513.485 265.401 513.411 265.551 513.352L265.535 514.96L264.103 515.216C264.172 515.371 264.225 515.539 264.263 515.72C264.305 515.901 264.327 516.061 264.327 516.2C264.327 516.68 264.191 517.125 263.919 517.536C263.652 517.941 263.249 518.267 262.711 518.512C262.177 518.757 261.511 518.88 260.711 518.88C260.631 518.88 260.521 518.877 260.383 518.872C260.244 518.867 260.132 518.861 260.047 518.856C259.615 518.872 259.319 518.923 259.159 519.008C258.999 519.093 258.919 519.187 258.919 519.288C258.919 519.432 259.039 519.528 259.279 519.576C259.519 519.624 259.903 519.667 260.431 519.704C260.617 519.715 260.863 519.728 261.167 519.744C261.471 519.76 261.809 519.781 262.183 519.808C263.127 519.867 263.841 520.104 264.327 520.52C264.812 520.931 265.055 521.464 265.055 522.12C265.055 522.883 264.703 523.509 263.999 524C263.295 524.491 262.228 524.736 260.799 524.736ZM261.127 523.592C261.825 523.592 262.343 523.496 262.679 523.304C263.015 523.112 263.183 522.829 263.183 522.456C263.183 522.168 263.068 521.933 262.839 521.752C262.609 521.571 262.268 521.464 261.815 521.432L259.727 521.304C259.497 521.288 259.279 521.331 259.071 521.432C258.868 521.528 258.703 521.664 258.575 521.84C258.447 522.011 258.383 522.2 258.383 522.408C258.383 522.797 258.607 523.091 259.055 523.288C259.503 523.491 260.193 523.592 261.127 523.592ZM260.775 517.736C261.281 517.736 261.692 517.608 262.007 517.352C262.321 517.091 262.479 516.723 262.479 516.248C262.479 515.757 262.321 515.376 262.007 515.104C261.692 514.827 261.281 514.688 260.775 514.688C260.257 514.688 259.839 514.827 259.519 515.104C259.204 515.381 259.047 515.763 259.047 516.248C259.047 516.707 259.199 517.069 259.503 517.336C259.807 517.603 260.231 517.736 260.775 517.736ZM270.298 510.432H272.242V522H270.298V510.432ZM274.432 522V513.728H276.336V514.912C276.464 514.699 276.637 514.493 276.856 514.296C277.08 514.099 277.355 513.939 277.68 513.816C278.005 513.693 278.387 513.632 278.824 513.632C279.336 513.632 279.811 513.733 280.248 513.936C280.691 514.139 281.045 514.456 281.312 514.888C281.584 515.32 281.72 515.877 281.72 516.56V522H279.768V516.792C279.768 516.248 279.619 515.845 279.32 515.584C279.021 515.317 278.645 515.184 278.192 515.184C277.883 515.184 277.589 515.237 277.312 515.344C277.035 515.445 276.808 515.603 276.632 515.816C276.461 516.024 276.376 516.285 276.376 516.6V522H274.432ZM287.769 515.104H285.921L285.929 519.848C285.929 520.093 285.956 520.275 286.009 520.392C286.068 520.504 286.159 520.579 286.281 520.616C286.409 520.648 286.58 520.664 286.793 520.664H287.809V521.896C287.703 521.939 287.54 521.976 287.321 522.008C287.108 522.045 286.82 522.064 286.457 522.064C285.801 522.064 285.292 521.979 284.929 521.808C284.572 521.632 284.324 521.384 284.185 521.064C284.047 520.744 283.977 520.363 283.977 519.92V515.104H282.633V513.728H284.033L284.521 511.272H285.921V513.72H287.769V515.104ZM290.648 518.312C290.643 518.781 290.718 519.197 290.872 519.56C291.027 519.923 291.256 520.208 291.56 520.416C291.864 520.619 292.24 520.72 292.688 520.72C293.147 520.72 293.544 520.619 293.88 520.416C294.222 520.208 294.448 519.893 294.56 519.472H296.344C296.248 520.048 296.019 520.536 295.656 520.936C295.294 521.336 294.854 521.64 294.336 521.848C293.824 522.056 293.291 522.16 292.736 522.16C291.936 522.16 291.232 521.992 290.624 521.656C290.022 521.315 289.55 520.829 289.208 520.2C288.872 519.571 288.704 518.821 288.704 517.952C288.704 517.104 288.859 516.352 289.168 515.696C289.478 515.035 289.923 514.515 290.504 514.136C291.091 513.757 291.795 513.568 292.616 513.568C293.432 513.568 294.118 513.741 294.672 514.088C295.232 514.435 295.654 514.92 295.936 515.544C296.224 516.163 296.368 516.888 296.368 517.72V518.312H290.648ZM290.648 517.104H294.528C294.528 516.704 294.459 516.344 294.32 516.024C294.182 515.699 293.968 515.443 293.68 515.256C293.398 515.064 293.04 514.968 292.608 514.968C292.182 514.968 291.822 515.072 291.528 515.28C291.235 515.488 291.014 515.757 290.864 516.088C290.715 516.413 290.643 516.752 290.648 517.104ZM297.863 522V513.728H299.727V515.52C299.86 515.109 300.049 514.76 300.295 514.472C300.545 514.179 300.839 513.955 301.175 513.8C301.511 513.645 301.876 513.568 302.271 513.568C302.367 513.568 302.46 513.573 302.551 513.584C302.641 513.595 302.708 513.613 302.751 513.64V515.504C302.692 515.477 302.615 515.459 302.519 515.448C302.428 515.437 302.348 515.432 302.279 515.432C301.879 515.4 301.524 515.416 301.215 515.48C300.911 515.544 300.652 515.653 300.439 515.808C300.231 515.957 300.073 516.149 299.967 516.384C299.86 516.613 299.807 516.883 299.807 517.192V522H297.863ZM309.009 513.728V515.104H307.145V522H305.201V515.104H303.569V513.728H305.201V512.496C305.201 511.835 305.382 511.325 305.745 510.968C306.113 510.611 306.643 510.432 307.337 510.432H309.081L309.089 511.76H307.937C307.622 511.76 307.406 511.843 307.289 512.008C307.171 512.168 307.113 512.421 307.113 512.768V513.728H309.009ZM312.754 522.16C312.226 522.16 311.752 522.064 311.33 521.872C310.914 521.675 310.586 521.395 310.346 521.032C310.112 520.664 309.994 520.219 309.994 519.696C309.994 518.784 310.322 518.096 310.978 517.632C311.64 517.168 312.693 516.925 314.138 516.904L315.37 516.872V516.312C315.37 515.875 315.24 515.533 314.978 515.288C314.722 515.037 314.322 514.915 313.778 514.92C313.378 514.925 313.01 515.021 312.674 515.208C312.344 515.389 312.125 515.696 312.018 516.128H310.362C310.394 515.563 310.557 515.091 310.85 514.712C311.149 514.328 311.557 514.043 312.074 513.856C312.592 513.664 313.189 513.568 313.866 513.568C314.656 513.568 315.298 513.672 315.794 513.88C316.29 514.088 316.656 514.389 316.89 514.784C317.125 515.173 317.242 515.645 317.242 516.2V522H315.602L315.45 520.512C315.152 521.136 314.773 521.568 314.314 521.808C313.861 522.043 313.341 522.16 312.754 522.16ZM313.386 520.84C313.626 520.84 313.864 520.797 314.098 520.712C314.333 520.621 314.546 520.501 314.738 520.352C314.93 520.197 315.082 520.027 315.194 519.84C315.312 519.653 315.37 519.459 315.37 519.256V517.952L314.354 517.968C313.853 517.973 313.416 518.027 313.042 518.128C312.669 518.229 312.376 518.392 312.162 518.616C311.954 518.835 311.85 519.128 311.85 519.496C311.85 519.917 311.997 520.248 312.29 520.488C312.584 520.723 312.949 520.84 313.386 520.84ZM322.632 513.568C323.277 513.568 323.845 513.696 324.336 513.952C324.826 514.208 325.218 514.563 325.512 515.016C325.81 515.469 325.989 515.984 326.048 516.56H324.384C324.346 516.309 324.256 516.072 324.112 515.848C323.968 515.619 323.773 515.435 323.528 515.296C323.282 515.152 322.986 515.08 322.64 515.08C322.021 515.08 321.517 515.309 321.128 515.768C320.744 516.227 320.552 516.931 320.552 517.88C320.552 518.755 320.736 519.451 321.104 519.968C321.472 520.485 321.997 520.744 322.68 520.744C323.021 520.744 323.312 520.669 323.552 520.52C323.797 520.365 323.989 520.176 324.128 519.952C324.272 519.723 324.365 519.493 324.408 519.264H326.024C325.976 519.824 325.8 520.323 325.496 520.76C325.197 521.197 324.802 521.541 324.312 521.792C323.826 522.037 323.266 522.16 322.632 522.16C321.874 522.16 321.2 521.995 320.608 521.664C320.021 521.328 319.56 520.843 319.224 520.208C318.888 519.568 318.72 518.797 318.72 517.896C318.72 517.037 318.877 516.285 319.192 515.64C319.506 514.989 319.957 514.483 320.544 514.12C321.13 513.752 321.826 513.568 322.632 513.568ZM329.048 518.312C329.043 518.781 329.118 519.197 329.272 519.56C329.427 519.923 329.656 520.208 329.96 520.416C330.264 520.619 330.64 520.72 331.088 520.72C331.547 520.72 331.944 520.619 332.28 520.416C332.622 520.208 332.848 519.893 332.96 519.472H334.744C334.648 520.048 334.419 520.536 334.056 520.936C333.694 521.336 333.254 521.64 332.736 521.848C332.224 522.056 331.691 522.16 331.136 522.16C330.336 522.16 329.632 521.992 329.024 521.656C328.422 521.315 327.95 520.829 327.608 520.2C327.272 519.571 327.104 518.821 327.104 517.952C327.104 517.104 327.259 516.352 327.568 515.696C327.878 515.035 328.323 514.515 328.904 514.136C329.491 513.757 330.195 513.568 331.016 513.568C331.832 513.568 332.518 513.741 333.072 514.088C333.632 514.435 334.054 514.92 334.336 515.544C334.624 516.163 334.768 516.888 334.768 517.72V518.312H329.048ZM329.048 517.104H332.928C332.928 516.704 332.859 516.344 332.72 516.024C332.582 515.699 332.368 515.443 332.08 515.256C331.798 515.064 331.44 514.968 331.008 514.968C330.582 514.968 330.222 515.072 329.928 515.28C329.635 515.488 329.414 515.757 329.264 516.088C329.115 516.413 329.043 516.752 329.048 517.104Z" fill="#64748B"/>
<path d="M744 535H56V537H744V535Z" fill="#E2E8F0" mask="url(#path-28-inside-3_1714_4206)"/>
<path d="M593.043 560H335.652C332.77 560 330.434 561.343 330.434 563V577C330.434 578.657 332.77 580 335.652 580H593.043C595.924 580 598.26 578.657 598.26 577V563C598.26 561.343 595.924 560 593.043 560Z" fill="#8B3DFF" fill-opacity="0.25"/>
<path d="M714.783 588H85.2174C82.3359 588 80 589.343 80 591V605C80 606.657 82.3359 608 85.2174 608H714.783C717.664 608 720 606.657 720 605V591C720 589.343 717.664 588 714.783 588Z" fill="#0DCAF0" fill-opacity="0.25"/>
</g>
<g filter="url(#filter3_d_1714_4206)">
<rect x="56" y="656" width="688" height="108" rx="8" fill="white"/>
<path fill-rule="evenodd" clip-rule="evenodd" d="M65.9226 673.274C65.6213 672.99 65.2177 672.905 64.9186 673.123C64.6243 673.337 64.3515 673.596 64.1304 673.879C63.8896 674.186 63.9944 674.554 64.3458 674.889C65.6712 676.149 66.9977 677.408 68.3241 678.668C68.7906 679.111 69.2266 679.111 69.6937 678.668C70.5072 677.896 71.3202 677.123 72.1333 676.351C72.627 675.882 73.1041 675.396 73.6192 674.949C74.1086 674.524 74.1436 673.974 73.623 673.562C73.5339 673.492 73.4579 673.407 73.3752 673.329C72.923 672.904 72.4885 672.902 72.0396 673.326C71.5009 673.835 69.0001 676.324 69.0001 676.324C69.0001 676.324 66.4769 673.795 65.9226 673.274Z" fill="#CBD5E1"/>
<path d="M90.056 682H88.024L86.032 677.304H83.344V682H81.4V670.432H86.096C86.9813 670.432 87.7093 670.571 88.28 670.848C88.856 671.12 89.2827 671.507 89.56 672.008C89.8373 672.504 89.976 673.085 89.976 673.752C89.976 674.371 89.8747 674.891 89.672 675.312C89.4693 675.728 89.2053 676.069 88.88 676.336C88.56 676.597 88.216 676.811 87.848 676.976L90.056 682ZM85.656 675.76C86.392 675.76 86.9653 675.589 87.376 675.248C87.792 674.907 88 674.432 88 673.824C88 673.227 87.808 672.765 87.424 672.44C87.04 672.115 86.5333 671.952 85.904 671.952H83.344V675.76H85.656ZM93.0151 678.312C93.0098 678.781 93.0845 679.197 93.2391 679.56C93.3938 679.923 93.6231 680.208 93.9271 680.416C94.2311 680.619 94.6071 680.72 95.0551 680.72C95.5138 680.72 95.9111 680.619 96.2471 680.416C96.5885 680.208 96.8151 679.893 96.9271 679.472H98.7111C98.6151 680.048 98.3858 680.536 98.0231 680.936C97.6605 681.336 97.2205 681.64 96.7031 681.848C96.1911 682.056 95.6578 682.16 95.1031 682.16C94.3031 682.16 93.5991 681.992 92.9911 681.656C92.3885 681.315 91.9165 680.829 91.5751 680.2C91.2391 679.571 91.0711 678.821 91.0711 677.952C91.0711 677.104 91.2258 676.352 91.5351 675.696C91.8445 675.035 92.2898 674.515 92.8711 674.136C93.4578 673.757 94.1618 673.568 94.9831 673.568C95.7991 673.568 96.4845 673.741 97.0391 674.088C97.5991 674.435 98.0205 674.92 98.3031 675.544C98.5911 676.163 98.7351 676.888 98.7351 677.72V678.312H93.0151ZM93.0151 677.104H96.8951C96.8951 676.704 96.8258 676.344 96.6871 676.024C96.5485 675.699 96.3351 675.443 96.0471 675.256C95.7645 675.064 95.4071 674.968 94.9751 674.968C94.5485 674.968 94.1885 675.072 93.8951 675.28C93.6018 675.488 93.3805 675.757 93.2311 676.088C93.0818 676.413 93.0098 676.752 93.0151 677.104ZM102.614 682.12C102.08 682.12 101.654 682.053 101.334 681.92C101.014 681.787 100.774 681.608 100.614 681.384C100.454 681.16 100.35 680.909 100.302 680.632C100.254 680.349 100.23 680.061 100.23 679.768V670.112H102.134V679.544C102.134 679.901 102.206 680.179 102.35 680.376C102.499 680.573 102.739 680.688 103.07 680.72L103.486 680.736V681.96C103.342 682.003 103.195 682.04 103.046 682.072C102.896 682.104 102.752 682.12 102.614 682.12ZM106.328 678.312C106.323 678.781 106.398 679.197 106.552 679.56C106.707 679.923 106.936 680.208 107.24 680.416C107.544 680.619 107.92 680.72 108.368 680.72C108.827 680.72 109.224 680.619 109.56 680.416C109.902 680.208 110.128 679.893 110.24 679.472H112.024C111.928 680.048 111.699 680.536 111.336 680.936C110.974 681.336 110.534 681.64 110.016 681.848C109.504 682.056 108.971 682.16 108.416 682.16C107.616 682.16 106.912 681.992 106.304 681.656C105.702 681.315 105.23 680.829 104.888 680.2C104.552 679.571 104.384 678.821 104.384 677.952C104.384 677.104 104.539 676.352 104.848 675.696C105.158 675.035 105.603 674.515 106.184 674.136C106.771 673.757 107.475 673.568 108.296 673.568C109.112 673.568 109.798 673.741 110.352 674.088C110.912 674.435 111.334 674.92 111.616 675.544C111.904 676.163 112.048 676.888 112.048 677.72V678.312H106.328ZM106.328 677.104H110.208C110.208 676.704 110.139 676.344 110 676.024C109.862 675.699 109.648 675.443 109.36 675.256C109.078 675.064 108.72 674.968 108.288 674.968C107.862 674.968 107.502 675.072 107.208 675.28C106.915 675.488 106.694 675.757 106.544 676.088C106.395 676.413 106.323 676.752 106.328 677.104ZM115.809 682.16C115.281 682.16 114.806 682.064 114.385 681.872C113.969 681.675 113.641 681.395 113.401 681.032C113.166 680.664 113.049 680.219 113.049 679.696C113.049 678.784 113.377 678.096 114.033 677.632C114.694 677.168 115.747 676.925 117.193 676.904L118.425 676.872V676.312C118.425 675.875 118.294 675.533 118.033 675.288C117.777 675.037 117.377 674.915 116.833 674.92C116.433 674.925 116.065 675.021 115.729 675.208C115.398 675.389 115.179 675.696 115.073 676.128H113.417C113.449 675.563 113.611 675.091 113.905 674.712C114.203 674.328 114.611 674.043 115.129 673.856C115.646 673.664 116.243 673.568 116.921 673.568C117.71 673.568 118.353 673.672 118.849 673.88C119.345 674.088 119.71 674.389 119.945 674.784C120.179 675.173 120.297 675.645 120.297 676.2V682H118.657L118.505 680.512C118.206 681.136 117.827 681.568 117.369 681.808C116.915 682.043 116.395 682.16 115.809 682.16ZM116.441 680.84C116.681 680.84 116.918 680.797 117.153 680.712C117.387 680.621 117.601 680.501 117.793 680.352C117.985 680.197 118.137 680.027 118.249 679.84C118.366 679.653 118.425 679.459 118.425 679.256V677.952L117.409 677.968C116.907 677.973 116.47 678.027 116.097 678.128C115.723 678.229 115.43 678.392 115.217 678.616C115.009 678.835 114.905 679.128 114.905 679.496C114.905 679.917 115.051 680.248 115.345 680.488C115.638 680.723 116.003 680.84 116.441 680.84ZM125.257 682.16C124.681 682.16 124.134 682.069 123.617 681.888C123.105 681.701 122.673 681.411 122.321 681.016C121.974 680.621 121.755 680.112 121.665 679.488H123.377C123.451 679.792 123.582 680.04 123.769 680.232C123.961 680.424 124.187 680.565 124.449 680.656C124.71 680.741 124.977 680.784 125.249 680.784C125.745 680.784 126.145 680.699 126.449 680.528C126.758 680.357 126.913 680.093 126.913 679.736C126.913 679.475 126.827 679.267 126.657 679.112C126.486 678.957 126.214 678.84 125.841 678.76L124.265 678.4C123.566 678.245 123.003 677.989 122.577 677.632C122.155 677.275 121.942 676.771 121.937 676.12C121.931 675.629 122.054 675.192 122.305 674.808C122.555 674.424 122.929 674.123 123.425 673.904C123.921 673.68 124.534 673.568 125.265 673.568C126.23 673.568 127.003 673.784 127.585 674.216C128.166 674.643 128.465 675.253 128.481 676.048H126.825C126.766 675.691 126.598 675.413 126.321 675.216C126.043 675.013 125.683 674.912 125.241 674.912C124.782 674.912 124.406 675 124.113 675.176C123.819 675.352 123.673 675.621 123.673 675.984C123.673 676.235 123.785 676.432 124.009 676.576C124.233 676.72 124.569 676.843 125.017 676.944L126.505 677.304C126.931 677.411 127.281 677.555 127.553 677.736C127.825 677.917 128.038 678.117 128.193 678.336C128.347 678.549 128.454 678.771 128.513 679C128.577 679.224 128.609 679.432 128.609 679.624C128.609 680.157 128.47 680.613 128.193 680.992C127.921 681.365 127.534 681.653 127.033 681.856C126.531 682.059 125.939 682.16 125.257 682.16ZM131.65 678.312C131.644 678.781 131.719 679.197 131.874 679.56C132.028 679.923 132.258 680.208 132.562 680.416C132.866 680.619 133.242 680.72 133.69 680.72C134.148 680.72 134.546 680.619 134.882 680.416C135.223 680.208 135.45 679.893 135.562 679.472H137.346C137.25 680.048 137.02 680.536 136.658 680.936C136.295 681.336 135.855 681.64 135.338 681.848C134.826 682.056 134.292 682.16 133.738 682.16C132.938 682.16 132.234 681.992 131.626 681.656C131.023 681.315 130.551 680.829 130.21 680.2C129.874 679.571 129.706 678.821 129.706 677.952C129.706 677.104 129.86 676.352 130.17 675.696C130.479 675.035 130.924 674.515 131.506 674.136C132.092 673.757 132.796 673.568 133.618 673.568C134.434 673.568 135.119 673.741 135.674 674.088C136.234 674.435 136.655 674.92 136.938 675.544C137.226 676.163 137.37 676.888 137.37 677.72V678.312H131.65ZM131.65 677.104H135.53C135.53 676.704 135.46 676.344 135.322 676.024C135.183 675.699 134.97 675.443 134.682 675.256C134.399 675.064 134.042 674.968 133.61 674.968C133.183 674.968 132.823 675.072 132.53 675.28C132.236 675.488 132.015 675.757 131.866 676.088C131.716 676.413 131.644 676.752 131.65 677.104Z" fill="#64748B"/>
<path d="M744 695H56V697H744V695Z" fill="#E2E8F0" mask="url(#path-35-inside-4_1714_4206)"/>
<path d="M716.608 720H549.28C547.406 720 545.888 721.343 545.888 723V737C545.888 738.657 547.406 740 549.28 740H716.608C718.481 740 720 738.657 720 737V723C720 721.343 718.481 720 716.608 720Z" fill="#8B3DFF" fill-opacity="0.25"/>
<path d="M463.273 720H83.3918C81.5186 720 80 721.343 80 723V737C80 738.657 81.5186 740 83.3918 740H463.273C465.146 740 466.665 738.657 466.665 737V723C466.665 721.343 465.146 720 463.273 720Z" fill="#FFC107" fill-opacity="0.25"/>
</g>
<path fill-rule="evenodd" clip-rule="evenodd" d="M462 152H495V160.421L490.306 165H462V152Z" fill="#8B3DFF"/>
<path d="M462 161.988H463V439H462V161.988Z" fill="#8B3DFF"/>
<defs>
<filter id="filter0_d_1714_4206" x="48" y="172" width="704" height="152" filterUnits="userSpaceOnUse" color-interpolation-filters="sRGB">
<feFlood flood-opacity="0" result="BackgroundImageFix"/>
<feColorMatrix in="SourceAlpha" type="matrix" values="0 0 0 0 0 0 0 0 0 0 0 0 0 0 0 0 0 0 127 0" result="hardAlpha"/>
<feOffset dy="4"/>
<feGaussianBlur stdDeviation="4"/>
<feColorMatrix type="matrix" values="0 0 0 0 0.559444 0 0 0 0 0.559444 0 0 0 0 0.633333 0 0 0 0.16 0"/>
<feBlend mode="normal" in2="BackgroundImageFix" result="effect1_dropShadow_1714_4206"/>
<feBlend mode="normal" in="SourceGraphic" in2="effect1_dropShadow_1714_4206" result="shape"/>
</filter>
<filter id="filter1_d_1714_4206" x="48" y="332" width="704" height="152" filterUnits="userSpaceOnUse" color-interpolation-filters="sRGB">
<feFlood flood-opacity="0" result="BackgroundImageFix"/>
<feColorMatrix in="SourceAlpha" type="matrix" values="0 0 0 0 0 0 0 0 0 0 0 0 0 0 0 0 0 0 127 0" result="hardAlpha"/>
<feOffset dy="4"/>
<feGaussianBlur stdDeviation="4"/>
<feColorMatrix type="matrix" values="0 0 0 0 0.559444 0 0 0 0 0.559444 0 0 0 0 0.633333 0 0 0 0.16 0"/>
<feBlend mode="normal" in2="BackgroundImageFix" result="effect1_dropShadow_1714_4206"/>
<feBlend mode="normal" in="SourceGraphic" in2="effect1_dropShadow_1714_4206" result="shape"/>
</filter>
<filter id="filter2_d_1714_4206" x="48" y="492" width="704" height="152" filterUnits="userSpaceOnUse" color-interpolation-filters="sRGB">
<feFlood flood-opacity="0" result="BackgroundImageFix"/>
<feColorMatrix in="SourceAlpha" type="matrix" values="0 0 0 0 0 0 0 0 0 0 0 0 0 0 0 0 0 0 127 0" result="hardAlpha"/>
<feOffset dy="4"/>
<feGaussianBlur stdDeviation="4"/>
<feColorMatrix type="matrix" values="0 0 0 0 0.559444 0 0 0 0 0.559444 0 0 0 0 0.633333 0 0 0 0.16 0"/>
<feBlend mode="normal" in2="BackgroundImageFix" result="effect1_dropShadow_1714_4206"/>
<feBlend mode="normal" in="SourceGraphic" in2="effect1_dropShadow_1714_4206" result="shape"/>
</filter>
<filter id="filter3_d_1714_4206" x="48" y="652" width="704" height="124" filterUnits="userSpaceOnUse" color-interpolation-filters="sRGB">
<feFlood flood-opacity="0" result="BackgroundImageFix"/>
<feColorMatrix in="SourceAlpha" type="matrix" values="0 0 0 0 0 0 0 0 0 0 0 0 0 0 0 0 0 0 127 0" result="hardAlpha"/>
<feOffset dy="4"/>
<feGaussianBlur stdDeviation="4"/>
<feColorMatrix type="matrix" values="0 0 0 0 0.559444 0 0 0 0 0.559444 0 0 0 0 0.633333 0 0 0 0.16 0"/>
<feBlend mode="normal" in2="BackgroundImageFix" result="effect1_dropShadow_1714_4206"/>
<feBlend mode="normal" in="SourceGraphic" in2="effect1_dropShadow_1714_4206" result="shape"/>
</filter>
</defs>
</svg>
