<svg fill="none" height="42" viewBox="0 0 172 42" width="172" xmlns="http://www.w3.org/2000/svg"><g fill="#2f234f"><path d="m54.5538 28.3798h10.9501v-3.2982h-7.0582v-12.4233h-3.8919z"/><path d="m71.9915 26.181c-1.5611 0-2.3747-1.3633-2.3747-3.4082 0-2.0448.8136-3.4301 2.3747-3.4301 1.5612 0 2.3967 1.3853 2.3967 3.4301 0 2.0449-.8355 3.4082-2.3967 3.4082zm.022 2.5506c3.628 0 6.0027-2.5726 6.0027-5.9588 0-3.3861-2.3747-5.9587-6.0027-5.9587-3.6061 0-6.0247 2.5726-6.0247 5.9587 0 3.3862 2.4186 5.9588 6.0247 5.9588z"/><path d="m84.296 32.2717c1.6711 0 3.1443-.3738 4.1338-1.2533.9015-.8136 1.4951-2.0449 1.4951-3.738v-10.1585h-3.4301v1.2094h-.044c-.6596-.9455-1.6711-1.5392-3.1662-1.5392-2.7925 0-4.7275 2.3307-4.7275 5.6289 0 3.4522 2.3527 5.3431 4.8814 5.3431 1.3632 0 2.2208-.5497 2.8804-1.2973h.088v1.1214c0 1.3633-.6377 2.1549-2.1549 2.1549-1.1873 0-1.781-.5058-1.9789-1.0994h-3.4741c.3518 2.3527 2.3967 3.628 5.497 3.628zm-.022-7.1681c-1.3413 0-2.2208-1.0994-2.2208-2.7925 0-1.7151.8795-2.8145 2.2208-2.8145 1.4952 0 2.2868 1.2753 2.2868 2.7925 0 1.5832-.7256 2.8145-2.2868 2.8145z"/><path d="m96.978 26.181c-1.5612 0-2.3747-1.3633-2.3747-3.4082 0-2.0448.8135-3.4301 2.3747-3.4301 1.5611 0 2.3966 1.3853 2.3966 3.4301 0 2.0449-.8355 3.4082-2.3966 3.4082zm.0219 2.5506c3.6281 0 6.0031-2.5726 6.0031-5.9588 0-3.3861-2.375-5.9587-6.0031-5.9587-3.606 0-6.0247 2.5726-6.0247 5.9587 0 3.3862 2.4187 5.9588 6.0247 5.9588z"/><path d="m104.049 28.3798h3.584v-11.2579h-3.584zm0-12.8191h3.584v-2.9024h-3.584z"/><path d="m109.188 32.0958h3.584v-4.8814h.044c.704.9455 1.737 1.5172 3.188 1.5172 2.947 0 4.904-2.3307 4.904-5.9807 0-3.3862-1.825-5.9588-4.816-5.9588-1.539 0-2.638.6816-3.408 1.6931h-.066v-1.3633h-3.43zm5.893-6.1347c-1.539 0-2.419-1.2533-2.419-3.0783s.792-3.2103 2.353-3.2103c1.539 0 2.265 1.2754 2.265 3.2103 0 1.913-.836 3.0783-2.199 3.0783z"/><path d="m126.744 28.7316c2.946 0 5.123-1.2753 5.123-3.738 0-2.8804-2.331-3.3861-4.31-3.7159-1.429-.2639-2.704-.3738-2.704-1.1654 0-.7036.681-1.0334 1.561-1.0334.989 0 1.671.3078 1.803 1.3193h3.298c-.176-2.2208-1.891-3.6061-5.079-3.6061-2.661 0-4.86 1.2313-4.86 3.6061 0 2.6385 2.089 3.1662 4.046 3.496 1.495.2639 2.859.3738 2.859 1.3853 0 .7256-.682 1.1214-1.759 1.1214-1.188 0-1.935-.5497-2.067-1.6711h-3.386c.109 2.4846 2.176 4.0018 5.475 4.0018z"/><path d="m136.734 28.7096c1.562 0 2.551-.6156 3.365-1.715h.066v1.3852h3.43v-11.2579h-3.584v6.2886c0 1.3413-.748 2.2648-1.979 2.2648-1.144 0-1.693-.6816-1.693-1.913v-6.6404h-3.562v7.388c0 2.5067 1.363 4.1997 3.957 4.1997z"/><path d="m145.154 28.3798h3.584v-6.3106c0-1.3412.66-2.2867 1.781-2.2867 1.077 0 1.583.7036 1.583 1.9129v6.6844h3.584v-6.3106c0-1.3412.638-2.2867 1.781-2.2867 1.078 0 1.583.7036 1.583 1.9129v6.6844h3.584v-7.322c0-2.5286-1.275-4.2657-3.826-4.2657-1.451 0-2.66.6157-3.54 1.9789h-.044c-.571-1.2093-1.693-1.9789-3.166-1.9789-1.627 0-2.704.7696-3.408 1.935h-.066v-1.6052h-3.43z"/></g><path clip-rule="evenodd" d="m17.9286 5.56529c-1.3107.9165-2.4959 2.0001-3.5248 3.2199 4.2045-.39035 9.5463.24704 15.748 3.34791 6.6226 3.3112 11.9554 3.4232 15.6668 2.7073-.3368-1.0196-.7608-1.9995-1.2629-2.9311-4.2485.4481-9.6952-.145-16.0427-3.31872-4.0308-2.01539-7.5839-2.84559-10.5844-3.02529zm24.1453 2.81152c-3.3551-3.74864-8.2309-6.10777-13.6577-6.10777-1.5937 0-3.14.20349-4.6141.58587 1.9965.54476 4.1175 1.34174 6.3497 2.45788 4.6474 2.32364 8.6596 3.07181 11.9221 3.06402zm4.5382 10.04249c-4.4837.8854-10.6753.7035-18.0991-3.0084-6.9406-3.4703-12.4646-3.4266-16.1902-2.5986-.1923.0427-.3801.0876-.5634.1343-.4877 1.0608-.8771 2.1763-1.1565 3.3347.2984-.0797.6067-.1554.9249-.2262 4.5198-1.0044 10.9059-.9607 18.624 2.8983 6.9406 3.4703 12.4646 3.4266 16.1903 2.5987.1277-.0284.2534-.0577.3771-.0879.0136-.2889.0204-.5796.0204-.8718 0-.7353-.0433-1.4604-.1275-2.1731zm-.4911 6.9118c-4.4402.7762-10.4515.4783-17.608-3.0999-6.9406-3.4702-12.4646-3.4265-16.1902-2.5986-.827.1837-1.571.4075-2.2272.6438-.0018.1051-.0027.2104-.0027.316 0 10.1197 8.2036 18.3233 18.3233 18.3233 8.4811 0 15.6164-5.7618 17.7048-13.5846z" fill="#7f57f1" fill-rule="evenodd"/></svg>