<svg fill="none" height="42" viewBox="0 0 172 42" width="172" xmlns="http://www.w3.org/2000/svg" xmlns:xlink="http://www.w3.org/1999/xlink"><clipPath id="a"><path d="m10 1h153v39.4839h-153z"/></clipPath><g clip-path="url(#a)"><g fill="#243a5a"><path d="m60.9165 11.1512h-3.5359v15.9548h9.7885v-3.1262h-6.2526z"/><path d="m67.5068 21.6943c0 3.4066 2.2855 5.6704 5.7351 5.6704 3.4281 0 5.7135-2.2638 5.7135-5.6704s-2.2854-5.692-5.7135-5.692c-3.4496 0-5.7351 2.2854-5.7351 5.692zm3.3419-.0216c0-1.617.9486-2.695 2.3932-2.695 1.423 0 2.3717 1.078 2.3717 2.695 0 1.6387-.9487 2.7167-2.3717 2.7167-1.4446 0-2.3932-1.078-2.3932-2.7167z"/><path d="m79.4894 21.5218c0 3.2556 2.113 5.4547 5.1098 5.4547 1.4446 0 2.6951-.5174 3.3203-1.3582v1.4876c0 1.4877-.9271 2.4794-2.5656 2.4794-1.4662 0-2.4795-.6899-2.5442-1.9188h-3.3634c.3018 2.9538 2.5873 4.9373 5.7135 4.9373 3.6868 0 6.0154-2.3932 6.0154-6.1879v-10.0902h-2.997l-.1724 1.0996c-.6037-.884-1.8758-1.4661-3.3418-1.4661-3.0186 0-5.1746 2.2638-5.1746 5.5626zm3.3635-.0863c0-1.5524 1.0348-2.5872 2.35-2.5872 1.5308 0 2.652 1.0133 2.652 2.5872 0 1.574-1.0997 2.652-2.6304 2.652-1.3152 0-2.3716-1.078-2.3716-2.652z"/><path d="m92.1428 21.6943c0 3.4066 2.2855 5.6704 5.7352 5.6704 3.428 0 5.713-2.2638 5.713-5.6704s-2.285-5.692-5.713-5.692c-3.4497 0-5.7352 2.2854-5.7352 5.692zm3.3419-.0216c0-1.617.9486-2.695 2.3933-2.695 1.4229 0 2.372 1.078 2.372 2.695 0 1.6387-.9491 2.7167-2.372 2.7167-1.4447 0-2.3933-1.078-2.3933-2.7167z"/><path d="m106.454 14.6441c1.035 0 1.876-.841 1.876-1.8973 0-1.0565-.841-1.8758-1.876-1.8758-1.056 0-1.897.8193-1.897 1.8758 0 1.0563.841 1.8973 1.897 1.8973zm-1.682 12.4619h3.342v-10.7802h-3.342z"/><path d="m110.06 32.2803h3.277v-6.2524c.625.8193 2.048 1.3798 3.536 1.3798 3.212 0 5.153-2.4578 5.067-5.8644-.087-3.4712-2.092-5.5626-5.089-5.5626-1.531 0-2.975.6684-3.579 1.6602l-.173-1.3152h-3.039zm3.341-10.5646c0-1.6169 1.078-2.6949 2.631-2.6949 1.573 0 2.565 1.0995 2.565 2.6949 0 1.5956-.992 2.6951-2.565 2.6951-1.553 0-2.631-1.078-2.631-2.6951z"/><path d="m122.293 23.6993c.086 2.1777 1.811 3.6868 4.528 3.6868 2.609 0 4.42-1.3798 4.42-3.6005 0-1.5955-.948-2.6519-2.717-3.0832l-1.918-.4743c-.69-.1725-1.122-.345-1.122-.9056 0-.5605.452-.9271 1.122-.9271.754 0 1.249.496 1.229 1.229h2.996c-.086-2.2423-1.789-3.6437-4.161-3.6437-2.393 0-4.182 1.423-4.182 3.579 0 1.4445.797 2.6304 2.931 3.191l1.897.4958c.561.151.798.4097.798.7762 0 .539-.496.884-1.337.884-.97 0-1.487-.4527-1.487-1.2074z"/><path d="m136.323 27.3862c1.316 0 2.63-.6037 3.299-1.4876l.216 1.2074h3.126v-10.7802h-3.321v5.6057c0 1.617-.473 2.5009-2.004 2.5009-1.187 0-1.963-.5389-1.963-2.544v-5.5626h-3.32v6.7699c0 2.5658 1.423 4.2905 3.967 4.2905z"/><path d="m148.229 27.1059v-5.8859c0-1.8112.97-2.3286 1.919-2.3286 1.056 0 1.746.6468 1.746 1.9836v6.2309h3.277v-5.8859c0-1.8327.949-2.3501 1.897-2.3501 1.057 0 1.768.6467 1.768 2.0051v6.2309h3.235v-7.0502c0-2.4579-1.294-4.0965-4.076-4.0965-1.551 0-2.824.7546-3.384 1.9188-.647-1.1642-1.768-1.9188-3.558-1.9188-1.185 0-2.285.539-2.932 1.4014l-.129-1.0349h-3.105v10.7802z"/><path d="m10 20.7419c0-9.3064 0-13.95963 2.8911-16.85076 2.8912-2.89114 7.5444-2.89114 16.8508-2.89114 9.3065 0 13.9597 0 16.8509 2.89114 2.8911 2.89113 2.8911 7.54436 2.8911 16.85076 0 9.3065 0 13.9597-2.8911 16.8509-2.8912 2.8911-7.5444 2.8911-16.8509 2.8911-9.3064 0-13.9596 0-16.8508-2.8911-2.8911-2.8912-2.8911-7.5444-2.8911-16.8509z"/></g><path d="m33.6903 26.6646c.5452 0 .9971.4462.8888.9805-.1914.9437-.6563 1.8184-1.3473 2.5093-.9255.9256-2.1809 1.4456-3.4899 1.4456s-2.5643-.52-3.4899-1.4456c-.6909-.6909-1.1559-1.5656-1.3472-2.5093-.1083-.5343.3436-.9805.8887-.9805z" fill="#2df8bb"/><path d="m35.7655 18.5471c-.5266.1411-.8491.692-.5821 1.1673.281.5002.6698.9368 1.1427 1.2757.7425.5321 1.6465.7903 2.558.7305s1.7741-.4337 2.4408-1.0581c.6668-.6244 1.0963-1.4608 1.2155-2.3665.1193-.9056-.0791-1.8246-.5615-2.6004-.4824-.7756-1.2189-1.3601-2.0839-1.6538-.865-.2936-1.805-.2782-2.6599.0436-.5445.2049-1.0329.526-1.4339.9364-.3809.39-.212 1.0057.2601 1.2782l.5008.2891c.7615.4398.6114 1.5808-.2381 1.8084z" fill="#2df8bb"/><path d="m23.7185 18.5471c.5266.1411.8491.692.5821 1.1673-.281.5002-.6697.9368-1.1425 1.2757-.7425.5321-1.6466.7903-2.5581.7305-.9116-.0598-1.7742-.4337-2.4409-1.0581s-1.0963-1.4608-1.2155-2.3665c-.1193-.9056.0792-1.8246.5616-2.6004.4824-.7756 1.2188-1.3601 2.0838-1.6538.865-.2936 1.8051-.2782 2.66.0436.5444.2049 1.0329.526 1.4339.9364.3809.39.2119 1.0057-.2602 1.2782l-.5008.2891c-.7615.4398-.6113 1.5808.2381 1.8084z" fill="#2df8bb"/></g></svg>